<svg width="25" height="24" viewBox="0 0 25 24" fill="none" xmlns="http://www.w3.org/2000/svg">
<path fill-rule="evenodd" clip-rule="evenodd" d="M17.3335 3C16.2726 3 15.2552 3.42143 14.5051 4.17157C13.7549 4.92172 13.3335 5.93913 13.3335 7C13.3335 8.06087 13.7549 9.07828 14.5051 9.82843C15.2552 10.5786 16.2726 11 17.3335 11C18.3944 11 19.4118 10.5786 20.1619 9.82843C20.9121 9.07828 21.3335 8.06087 21.3335 7C21.3335 5.93913 20.9121 4.92172 20.1619 4.17157C19.4118 3.42143 18.3944 3 17.3335 3ZM3.3335 17C3.3335 15.9391 3.75492 14.9217 4.50507 14.1716C5.25521 13.4214 6.27263 13 7.3335 13C8.39436 13 9.41178 13.4214 10.1619 14.1716C10.9121 14.9217 11.3335 15.9391 11.3335 17C11.3335 18.0609 10.9121 19.0783 10.1619 19.8284C9.41178 20.5786 8.39436 21 7.3335 21C6.27263 21 5.25521 20.5786 4.50507 19.8284C3.75492 19.0783 3.3335 18.0609 3.3335 17ZM13.3335 14C13.3335 13.7348 13.4389 13.4804 13.6264 13.2929C13.8139 13.1054 14.0683 13 14.3335 13H20.3335C20.5987 13 20.8531 13.1054 21.0406 13.2929C21.2281 13.4804 21.3335 13.7348 21.3335 14V19C21.3335 19.5304 21.1228 20.0391 20.7477 20.4142C20.3726 20.7893 19.8639 21 19.3335 21H15.3335C14.8031 21 14.2944 20.7893 13.9193 20.4142C13.5442 20.0391 13.3335 19.5304 13.3335 19V14ZM3.3335 4C3.3335 3.73478 3.43885 3.48043 3.62639 3.29289C3.81393 3.10536 4.06828 3 4.3335 3H10.3335C10.5987 3 10.8531 3.10536 11.0406 3.29289C11.2281 3.48043 11.3335 3.73478 11.3335 4V9C11.3335 9.53043 11.1228 10.0391 10.7477 10.4142C10.3726 10.7893 9.86393 11 9.3335 11H5.3335C4.80306 11 4.29436 10.7893 3.91928 10.4142C3.54421 10.0391 3.3335 9.53043 3.3335 9V4Z" fill="#4E6F52"/>
</svg>
