<svg width="25" height="24" viewBox="0 0 25 24" fill="none" xmlns="http://www.w3.org/2000/svg">
<path d="M2.3335 9C2.3335 7.114 2.3335 6.172 2.9195 5.586C3.5055 5 4.4475 5 6.3335 5H18.3335C20.2195 5 21.1615 5 21.7475 5.586C22.3335 6.172 22.3335 7.114 22.3335 9C22.3335 9.471 22.3335 9.707 22.1875 9.854C22.0405 10 21.8035 10 21.3335 10H3.3335C2.8625 10 2.6265 10 2.4795 9.854C2.3335 9.707 2.3335 9.47 2.3335 9ZM2.3335 18C2.3335 19.886 2.3335 20.828 2.9195 21.414C3.5055 22 4.4475 22 6.3335 22H18.3335C20.2195 22 21.1615 22 21.7475 21.414C22.3335 20.828 22.3335 19.886 22.3335 18V13C22.3335 12.529 22.3335 12.293 22.1875 12.146C22.0405 12 21.8035 12 21.3335 12H3.3335C2.8625 12 2.6265 12 2.4795 12.146C2.3335 12.293 2.3335 12.53 2.3335 13V18Z" fill="#4E6F52"/>
<path d="M7.3335 3V6M17.3335 3V6" stroke="#4E6F52" stroke-width="2" stroke-linecap="round"/>
</svg>
