<svg width="296" height="112" viewBox="0 0 296 112" fill="none" xmlns="http://www.w3.org/2000/svg">
<path d="M51.627 4.13402C52.107 4.13484 52.5871 4.13402 53.067 4.13305C53.3754 4.13315 53.6839 4.13335 53.9922 4.13365C54.1341 4.13334 54.2759 4.13303 54.4221 4.13271C54.557 4.13319 54.6919 4.13367 54.8309 4.13417C55.0061 4.13435 55.0061 4.13435 55.1847 4.13453C55.7291 4.16073 56.2699 4.2389 56.8107 4.30622C56.8107 7.32253 56.8107 10.3389 56.8107 13.4466C55.0783 13.4702 55.0783 13.4702 53.3109 13.4942C50.6287 13.5434 47.9862 13.6087 45.3359 14.056C45.1819 14.081 45.0278 14.1062 44.8691 14.1321C37.9393 15.2932 31.2235 18.1716 25.7522 22.587C25.6118 22.6975 25.4714 22.8081 25.3267 22.922C23.0188 24.7611 20.8401 26.8167 19.0203 29.1376C18.9466 29.2298 18.8729 29.3221 18.7969 29.4171C15.6806 33.3177 13.2579 37.6554 11.6765 42.3911C11.6324 42.5224 11.5883 42.6536 11.5429 42.7887C7.92391 53.7388 9.14174 65.5187 14.3086 75.7559C15.5267 78.1022 16.9587 80.3403 18.6638 82.3665C18.8674 82.6089 19.067 82.8539 19.2666 83.0996C21.1838 85.4255 23.3514 87.6655 25.8045 89.432C26.0703 89.6248 26.3309 89.824 26.5913 90.0238C28.1202 91.1865 29.7447 92.1697 31.4131 93.1204C31.5757 93.2139 31.5757 93.2139 31.7416 93.3094C35.415 95.4081 39.497 96.7171 43.6242 97.5857C43.7991 97.6227 43.974 97.6596 44.1542 97.6977C46.6454 98.1967 49.0981 98.3532 51.6356 98.3475C52.0934 98.3475 52.551 98.3507 53.0088 98.3545C55.7373 98.3634 58.426 98.0745 61.0946 97.4998C61.2448 97.468 61.395 97.4356 61.5497 97.4025C70.6743 95.3865 79.5037 90.1613 85.2685 82.761C85.4225 82.5682 85.5765 82.3754 85.7306 82.1826C89.2176 77.777 91.5708 72.877 93.2242 67.5271C81.2076 67.4768 69.191 67.4266 56.8107 67.375C56.8107 71.6985 56.8107 76.0213 56.8107 80.4758C55.622 80.6731 54.5045 80.8443 53.3109 80.8952C53.1621 80.9016 53.0134 80.9079 52.8601 80.9143C51.0814 80.9716 49.2108 80.9073 47.4779 80.4758C47.4779 59.8141 47.4779 39.1524 47.4779 17.8644C56.2009 16.1273 66.3386 19.1595 73.5861 23.9652C74.8618 24.834 76.0659 25.7755 77.2246 26.7938C77.3991 26.9468 77.5748 27.0987 77.7512 27.2497C79.4839 28.739 81.1373 30.361 82.5145 32.1844C82.588 32.2804 82.6609 32.3765 82.7369 32.4755C84.0331 34.179 85.1656 35.9414 86.1862 37.8209C86.2712 37.9769 86.2712 37.9769 86.3575 38.1361C89.0961 43.236 90.4971 48.8854 90.7284 54.6449C90.7361 54.8274 90.7431 55.0098 90.7508 55.1979C90.7597 55.4612 90.7597 55.4612 90.7687 55.7297C90.7738 55.8857 90.7789 56.0418 90.7847 56.2024C90.7744 56.8312 90.6926 57.4571 90.623 58.0821C95.1166 58.0821 99.6102 58.0821 104.24 58.0821C104.06 61.6576 104.06 61.6576 103.829 63.1949C103.789 63.4633 103.789 63.4633 103.748 63.7369C101.895 75.7114 95.8279 87.2098 86.4924 95.1007C86.3531 95.2223 86.2144 95.3438 86.0712 95.4692C83.1306 98.0217 79.8341 100.137 76.3944 101.956C76.2953 102.008 76.1963 102.061 76.094 102.115C63.9694 108.525 49.6118 109.424 36.5481 105.584C27.4068 102.791 18.252 97.1123 12.2974 89.558C11.9584 89.1291 11.6031 88.7168 11.2461 88.3025C7.99057 84.4086 5.46092 79.8293 3.56757 75.1444C3.51318 75.0101 3.4588 74.8758 3.40277 74.7377C1.87479 70.91 0.911138 66.8812 0.35462 62.8046C0.33347 62.65 0.33347 62.65 0.311893 62.4924C0.0298103 60.3632 -0.0064319 58.2471 0.000813146 56.1016C0.00109203 55.9302 0.00137092 55.7588 0.00165826 55.5822C0.00863147 53.036 0.0789266 50.5433 0.507618 48.0277C0.533873 47.8666 0.560128 47.7055 0.58718 47.5396C2.12954 38.2635 6.1954 29.3568 12.4414 22.2823C12.5349 22.174 12.6284 22.0659 12.7247 21.9544C14.2606 20.1822 15.8535 18.471 17.6433 16.9504C17.8498 16.7701 17.8498 16.7701 18.0605 16.5862C26.043 9.66791 36.2126 5.41639 46.7129 4.30622C46.8377 4.29164 46.9624 4.27706 47.091 4.26204C48.5989 4.10837 50.1131 4.13094 51.627 4.13402ZM56.8107 27.3095C56.8107 37.4645 56.8107 47.6194 56.8107 58.0821C64.8891 58.0821 72.9675 58.0821 81.2906 58.0821C81.3558 54.0653 81.3558 54.0653 80.8311 50.1604C80.7921 49.9821 80.7921 49.9821 80.7519 49.8001C79.7191 45.2813 77.7423 41.0492 74.7116 37.5162C74.5621 37.3424 74.5621 37.3424 74.41 37.1651C74.0591 36.767 73.6993 36.3789 73.3343 35.9928C73.2532 35.907 73.1726 35.8211 73.0889 35.7325C68.9257 31.3582 63.3798 28.4092 57.4227 27.3095C57.2208 27.3095 57.0188 27.3095 56.8107 27.3095Z" fill="#1A4D2E"/>
<path d="M43.1936 18.626C43.1936 21.8434 43.1936 25.0608 43.1936 28.3757C42.1333 28.7779 41.0731 29.1801 39.9807 29.5945C37.4136 30.848 35.0986 32.2911 32.9428 34.1646C32.8654 34.2315 32.788 34.2983 32.7082 34.3673C26.9497 39.3765 23.6576 46.5323 23.0362 54.0735C23.0204 54.3939 23.0074 54.7145 22.9979 55.0351C22.9918 55.1856 22.9857 55.336 22.9794 55.491C22.8099 63.2948 25.9619 70.5644 31.2598 76.2102C31.376 76.3343 31.4921 76.4584 31.6118 76.5857C36.5581 81.688 43.8974 84.7871 51.0013 84.9195C58.4256 84.9723 65.5408 82.8475 71.1925 77.8858C71.3426 77.7547 71.4928 77.6236 71.6481 77.488C73.3897 75.9455 74.8258 74.233 76.198 72.3634C76.2625 72.2756 76.3271 72.1878 76.3942 72.0974C76.453 71.9924 76.5118 71.888 76.5719 71.7805C76.8531 71.4878 76.8531 71.4878 77.3088 71.4146C77.4954 71.4158 77.682 71.4171 77.8744 71.4184C78.029 71.4184 78.029 71.4184 78.1863 71.4184C78.5269 71.419 78.8669 71.4235 79.2069 71.4286C79.4434 71.4292 79.6792 71.4305 79.9151 71.4311C80.5363 71.433 81.1575 71.4394 81.7781 71.4458C82.4121 71.4521 83.0461 71.4553 83.6794 71.4578C84.9231 71.4648 86.1662 71.475 87.4099 71.4878C87.146 72.2889 86.82 73.001 86.4251 73.7443C86.358 73.8709 86.2908 73.9976 86.2218 74.1274C84.0846 78.0868 81.1268 82.031 77.6181 84.8934C77.489 85.0048 77.3599 85.1161 77.227 85.2313C73.2983 88.5862 68.6469 91.159 63.6953 92.6628C63.4989 92.7238 63.4989 92.7238 63.2985 92.7856C59.702 93.8776 56.0314 94.3739 52.2779 94.3771C52.1015 94.3771 52.1015 94.3771 51.9215 94.3771C48.5785 94.3727 45.3645 93.9348 42.1226 93.1203C41.9952 93.0878 41.8678 93.056 41.7366 93.0229C35.963 91.5319 30.5663 88.4755 26.2109 84.4365C26.0043 84.2583 25.7972 84.0808 25.5893 83.9032C24.4805 82.9366 23.4965 81.8968 22.5766 80.7507C22.3528 80.4726 22.1254 80.197 21.8941 79.9247C20.3308 78.0811 19.0888 76.0486 17.949 73.925C17.8966 73.8283 17.8441 73.7316 17.7901 73.6323C13.014 64.7538 12.3262 54.1582 15.1897 44.5791C16.3657 40.8227 18.0788 37.2051 20.397 34.0123C20.5098 33.8554 20.6226 33.6985 20.7389 33.5368C21.8872 31.9778 23.1238 30.4753 24.5279 29.1374C24.8987 28.7712 25.2665 28.4033 25.627 28.027C29.5369 23.9922 37.3096 18.626 43.1936 18.626Z" fill="#7B8D6A"/>
<path d="M77.2248 26.7935C77.3993 26.9466 77.575 27.0984 77.7514 27.2495C79.4841 28.7387 81.1375 30.3607 82.5147 32.184C82.5876 32.2801 82.6611 32.3762 82.7372 32.4752C84.0333 34.1787 85.1658 35.9411 86.1864 37.8206C86.2427 37.9246 86.2996 38.0287 86.3577 38.1358C89.0963 43.2358 90.4973 48.8852 90.7286 54.6446C90.7363 54.8271 90.7433 55.0096 90.751 55.1976C90.7599 55.4609 90.7599 55.4609 90.7689 55.7294C90.774 55.8855 90.7791 56.0415 90.7842 56.2022C90.7746 56.8309 90.6928 57.4568 90.6232 58.0818C87.5433 58.0818 84.4634 58.0818 81.2902 58.0818C81.2749 57.3403 81.2589 56.5988 81.2429 55.8348C81.0282 48.2998 78.3893 41.5139 73.1818 35.9926C73.1057 35.9116 73.0297 35.8307 72.9511 35.7472C68.4926 31.0434 63.0421 28.8603 56.8109 27.3092C56.8109 44.8542 56.8109 62.3991 56.8109 80.4757C55.6222 80.673 54.5046 80.8442 53.3111 80.8944C53.1623 80.9008 53.0135 80.9078 52.8603 80.9142C51.0815 80.9714 49.211 80.9072 47.478 80.4757C47.478 59.8139 47.478 39.1521 47.478 17.8641C57.6896 15.8306 69.6008 20.0936 77.2248 26.7935Z" fill="#4E6F52"/>
<path d="M125.039 106.909L128.168 93.0617H133.526L136.656 106.909H133.833L133.281 104.404H128.414L127.861 106.909H125.039ZM128.945 101.961H132.749L131.338 95.3832H130.356L128.945 101.961ZM148.734 106.909V93.0617H153.417C158.264 93.0617 159.327 95.1185 159.327 99.7206C159.327 104.445 158.407 106.909 153.417 106.909H148.734ZM151.556 104.465H153.417C156.157 104.465 156.423 102.796 156.423 99.7206C156.423 96.6865 156.157 95.5054 153.417 95.5054H151.556V104.465ZM173.847 106.909L170.615 93.0617H173.581L175.994 104.465H176.915L179.328 93.0617H182.293L179.062 106.909H173.847ZM194.35 106.909V93.0617H197.172V106.909H194.35ZM214.477 107.153C213.086 107.153 211.021 106.787 209.835 106.522L210.121 104.343C211.307 104.506 213.25 104.71 214.313 104.71C215.827 104.71 216.481 103.997 216.481 102.918C216.481 102.062 215.99 101.676 213.986 101.105C210.857 100.209 209.671 99.1505 209.671 96.9308C209.671 94.0596 211.593 92.8174 214.416 92.8174C215.766 92.8174 217.831 93.1228 218.997 93.3672L218.772 95.5868C217.524 95.4443 215.561 95.261 214.702 95.261C213.189 95.261 212.473 95.8108 212.473 96.7272C212.473 97.6028 213.025 97.9083 215.357 98.6414C218.363 99.5985 219.283 100.433 219.283 102.734C219.283 105.748 217.218 107.153 214.477 107.153ZM236.932 107.153C232.556 107.153 231.165 104.75 231.165 100.067C231.165 95.3832 232.556 92.8174 236.932 92.8174C241.309 92.8174 242.7 95.3832 242.7 100.067C242.7 104.75 241.309 107.153 236.932 107.153ZM236.932 104.71C239.223 104.71 239.796 103.264 239.796 100.067C239.796 96.8697 239.223 95.261 236.932 95.261C234.642 95.261 234.069 96.8697 234.069 100.067C234.069 103.264 234.642 104.71 236.932 104.71ZM255.346 106.909V93.0617H260.745C263.915 93.0617 265.653 94.4668 265.653 97.6232C265.653 99.5374 264.876 100.82 263.608 101.614L265.592 106.909H262.504L260.888 102.266H258.168V106.909H255.346ZM258.168 99.8632H260.786C262.197 99.8632 262.77 98.8857 262.77 97.6639C262.77 96.3403 262.095 95.4647 260.745 95.4647H258.168V99.8632ZM280.576 106.909V101.309L276.281 93.0617H279.41L281.967 98.5803L284.523 93.0617H287.652L283.398 101.309V106.909H280.576Z" fill="#1A4D2E"/>
<path d="M150.082 82.0401C127.38 82.0401 121.654 69.4147 121.654 46.2001C121.654 20.9492 129.016 10.3601 149.57 10.3601C157.444 10.3601 167.977 11.9892 173.805 13.211L173.396 24.1056C168.079 23.4947 158.569 22.7819 151.82 22.7819C139.753 22.7819 136.174 26.7528 136.174 46.2001C136.174 64.6292 138.731 69.8219 151.411 69.8219C154.479 69.8219 158.058 69.6183 159.898 69.4147V55.9747H153.558V43.7565H173.805V79.6983C167.568 80.7165 156.728 82.0401 150.082 82.0401ZM210.958 82.0401C189.484 82.0401 184.371 70.4328 184.371 46.2001C184.371 19.931 190.302 10.3601 210.958 10.3601C218.219 10.3601 227.013 12.091 231.308 13.1092L230.899 24.3092C226.195 23.5965 217.605 22.7819 213.003 22.7819C202.266 22.7819 198.892 26.5492 198.892 46.2001C198.892 64.8328 201.346 69.6183 213.412 69.6183C218.116 69.6183 226.808 68.8037 230.899 68.1928L231.205 79.6983C226.501 80.7165 217.298 82.0401 210.958 82.0401ZM242.655 80.8183V11.5819H268.22C284.581 11.5819 292.966 19.5237 292.966 35.611C292.966 51.6983 284.581 60.6583 268.22 60.6583H256.767V80.8183H242.655ZM256.767 48.6437H268.117C275.173 48.6437 278.65 44.3674 278.65 35.611C278.65 26.9565 275.173 23.5965 268.117 23.5965H256.767V48.6437Z" fill="#343231"/>
</svg>
