<svg width="503" height="450" viewBox="0 0 503 450" fill="none" xmlns="http://www.w3.org/2000/svg">
<path d="M403.107 100.036C396.491 102.564 389.496 106.953 386.968 114.931C384.924 121.402 383.457 130.192 390.465 133.611C398.469 137.515 407.299 135.734 413.731 130.402C419.076 125.961 422.679 120.433 424.604 116.214C426.923 111.131 429.229 106.036 431.547 100.94C431.757 100.481 431.443 99.8129 430.958 99.8129C426.045 99.8915 421.159 99.5378 416.246 98.909C411.701 98.3195 407.417 98.3981 403.12 100.049L403.107 100.036Z" fill="#93A87E"/>
<path d="M431.102 100.585C428.312 102.642 425.496 104.699 422.469 106.323C422.207 106.454 421.959 106.585 421.71 106.703C422.679 106.651 423.635 106.612 424.592 106.598C425.81 106.598 427.002 106.782 428.142 107.267C428.522 107.424 428.351 108.092 427.985 107.922C426.858 107.437 425.692 107.28 424.487 107.293C423.085 107.306 421.697 107.398 420.308 107.463C420.242 107.463 420.19 107.45 420.151 107.411C417.897 108.38 415.566 109.14 413.326 110.122C410.902 111.184 408.596 112.467 406.343 113.908C408.819 115.742 412.251 115.389 415.081 115.441C416.797 115.467 418.513 115.494 420.242 115.52C421.566 115.546 422.928 115.585 423.95 116.607C424.264 116.908 423.793 117.393 423.517 117.092C422.299 115.873 420.177 116.201 418.657 116.175C416.902 116.162 415.12 116.122 413.352 116.083C410.745 116.044 407.954 116.018 405.754 114.288C402.505 116.411 399.387 118.808 396.321 121.192C395.3 121.978 394.291 122.751 393.282 123.576C401.195 126.982 409.867 127.598 418.055 125.044C418.448 124.913 418.605 125.581 418.225 125.712C409.802 128.345 400.828 127.664 392.706 124.061C390.675 125.725 388.75 127.533 387.073 129.642C386.798 129.969 386.365 129.471 386.627 129.144C387.243 128.371 387.898 127.637 388.579 126.93C388.579 126.904 388.579 126.891 388.579 126.864C389.129 122.437 390.204 118.114 391.776 113.987C393.374 109.874 395.378 105.184 398.837 102.59C399.164 102.341 399.479 102.944 399.151 103.192C397.304 104.581 396.033 106.585 394.92 108.668C393.924 110.529 393.033 112.467 392.274 114.445C390.846 118.218 389.85 122.148 389.3 126.183C390.269 125.24 391.291 124.349 392.313 123.498C392.352 123.367 392.457 123.262 392.575 123.275C393.138 122.817 393.701 122.384 394.252 121.926C395.404 121.022 396.57 120.118 397.723 119.227C398.431 115.847 399.505 112.69 401.064 109.664C402.78 106.297 404.588 102.983 406.343 99.6423C406.54 99.2624 407.09 99.603 406.893 99.996C405.19 103.219 403.448 106.441 401.771 109.69C400.304 112.546 399.23 115.494 398.509 118.651C399.885 117.603 401.286 116.568 402.688 115.559C403.579 114.943 404.457 114.328 405.374 113.738C405.413 113.594 405.583 113.476 405.74 113.502C407.483 112.389 409.251 111.341 411.085 110.437C411.085 110.437 411.085 110.424 411.098 110.411C412.291 108.577 412.526 106.323 413.26 104.293C414.059 102.079 415.5 100.586 417.177 99.1576C417.491 98.8825 417.937 99.3803 417.609 99.6423C416.771 100.363 415.932 101.096 415.225 101.987C414.531 102.878 414.02 103.926 413.666 105.04C413.142 106.677 412.854 108.419 412.094 109.952C414.963 108.629 418.002 107.738 420.858 106.363C424.382 104.686 427.592 102.328 430.775 99.996C431.102 99.7471 431.417 100.35 431.076 100.599L431.102 100.585Z" fill="white"/>
<path opacity="0.5" d="M16.9395 425.523H489.856C489.856 425.523 515.467 332.302 494.022 286.844C468.018 231.732 426.215 264.548 414.792 242.369C399.648 212.973 401.731 64.9404 308.196 64.9404C226.372 64.9404 225.665 175.034 207.56 175.034C184.543 175.034 129.863 133.074 56.7116 171.104C-39.6926 221.213 16.9526 425.536 16.9526 425.536L16.9395 425.523Z" fill="#F6EFE5"/>
<path d="M494.022 427.344C494.022 439.802 385.972 449.902 252.704 449.902C119.435 449.902 11.385 439.802 11.385 427.344C11.385 414.885 119.422 404.785 252.704 404.785C385.985 404.785 494.022 414.885 494.022 427.344Z" fill="#E0CAAE"/>
<path d="M45.8518 424.554C45.8518 424.554 61.7686 395.406 51.2098 391.699C44.2274 389.249 41.948 416.511 41.948 416.511C41.948 416.511 41.3323 386.288 32.0573 390.153C25.0618 393.061 34.4023 414.886 34.4023 414.886C34.4023 414.886 24.2496 406.646 22.9789 411.821C20.9353 420.034 32.6206 424.698 32.6206 424.698L45.8518 424.554Z" fill="#93A87E"/>
<path d="M42.5767 424.581L50.2796 400.424C50.3189 400.306 50.2534 400.162 50.1224 400.123C49.9914 400.07 49.8473 400.149 49.808 400.28L42.0527 424.594H42.5898L42.5767 424.581Z" fill="white"/>
<path d="M40.5726 424.607L35.0443 398.275C35.0181 398.144 34.8871 398.052 34.743 398.079C34.612 398.105 34.5203 398.236 34.5465 398.367L40.0486 424.607H40.5595H40.5726Z" fill="white"/>
<path d="M37.743 424.645L27.2497 415.606C27.1449 415.515 26.9746 415.528 26.896 415.632C26.8043 415.737 26.8174 415.894 26.9222 415.986L36.9832 424.645H37.7561H37.743Z" fill="white"/>
<path d="M180.862 416.352C180.862 416.352 167.304 396.27 175.95 388.58C181.242 383.851 183.823 398.955 183.823 398.955C183.823 398.955 186.823 370.135 196.596 376.213C201.364 379.187 191.342 405.767 191.342 405.767C191.342 405.767 198.469 391.947 204.102 395.746C213.193 401.876 191.539 416.143 191.539 416.143L180.862 416.339V416.352Z" fill="#93A87E"/>
<path d="M186.024 416.246L193.032 383.601C193.059 383.43 192.954 383.247 192.77 383.208C192.587 383.168 192.417 383.286 192.377 383.47L185.343 416.273H186.024V416.246Z" fill="white"/>
<path d="M189.744 416.182L202.648 400.501C202.766 400.357 202.753 400.161 202.609 400.03C202.464 399.925 202.255 399.938 202.137 400.082L188.866 416.195H189.744V416.182Z" fill="white"/>
<path d="M183.639 416.3L178.334 392.392C178.295 392.208 178.124 392.104 177.941 392.143C177.757 392.182 177.64 392.353 177.692 392.536L182.958 416.326L183.639 416.3Z" fill="white"/>
<path d="M78.6278 258.338C81.8374 255.338 84.5622 251.919 87.2478 248.447C90.0119 244.871 93.1429 241.36 95.3306 237.391C97.4528 233.539 98.5925 229.242 100.505 225.299C102.352 221.474 104.619 217.871 107.212 214.531C107.723 213.98 108.274 213.456 108.837 212.932C109.164 212.644 109.466 212.317 109.649 211.924C109.819 211.557 109.846 211.125 110.081 210.784C110.278 210.535 110.501 210.312 110.736 210.09C111.208 209.631 111.693 209.029 111.575 208.334C111.509 207.902 111.182 207.548 110.776 207.457C110.802 207.43 110.841 207.404 110.854 207.378C111.012 207.155 111.038 206.867 110.959 206.605C110.881 206.343 110.71 206.12 110.461 206.002C110.33 205.95 110.199 205.937 110.068 205.937C110.121 205.845 110.186 205.74 110.212 205.636C110.278 205.4 110.212 205.164 110.094 204.954C109.793 204.417 109.204 204.077 108.601 204.037C108.784 203.513 108.601 202.885 108.116 202.596C107.789 202.4 107.383 202.374 107.003 202.4C106.688 202.426 106.374 202.479 106.047 202.518C106.125 202.308 106.178 202.086 106.151 201.863C106.086 201.417 105.706 201.221 105.274 201.365C104.946 201.483 104.632 201.706 104.33 201.863C103.911 202.072 103.492 202.243 103.06 202.4C102.47 202.636 101.894 202.858 101.409 203.265C100.492 204.011 99.9156 205.177 99.8894 206.356C99.8632 207.077 100.073 207.784 100.138 208.505C100.217 209.382 100.007 211.151 100.02 211.177C98.9331 214.688 95.9725 217.78 93.7455 220.478C91.2433 223.517 88.322 226.268 86.0032 229.452C83.5011 232.884 82.4662 237.024 80.1737 240.548C78.1693 243.652 75.6803 247.203 72.1302 248.617C72.0254 248.591 78.5492 258.39 78.6147 258.325L78.6278 258.338Z" fill="#FFA18A"/>
<path d="M186.443 321.31C184.975 321.808 181.163 326.275 175.753 330.14C174.81 330.808 173.421 330.179 172.399 329.812C172.229 329.747 166.596 341.105 166.963 341.013C170.29 342.415 171.391 347.249 175.399 347.445C179.945 347.668 181.045 342.244 182.382 339.009C183.403 336.559 184.661 334.214 186.246 332.066C187.53 330.336 188.971 328.647 189.547 326.524C190.451 323.21 188.997 320.433 186.456 321.297L186.443 321.31Z" fill="black"/>
<path d="M101.108 423.047C100.112 421.868 94.5711 419.903 89.0428 416.235C88.0734 415.593 88.1651 414.073 88.1389 412.986C88.1389 412.803 75.5104 411.624 75.7331 411.925C75.6152 415.541 71.5017 418.292 72.7593 422.104C74.1741 426.414 79.65 425.51 83.1347 425.588C85.794 425.654 88.4271 425.995 90.9948 426.702C93.0646 427.278 95.1606 428.025 97.3484 427.802C100.768 427.462 102.837 425.104 101.121 423.047H101.108Z" fill="black"/>
<path d="M61.6893 325.371C60.471 329.995 61.1915 335.013 63.8771 339.008C66.6936 343.214 71.187 345.925 74.0428 350.104C79.165 357.611 78.0646 367.226 80.1737 375.807C77.8943 381.702 75.641 388.802 74.7502 411.675C74.7502 411.675 79.8462 413.941 89.2259 415.186C90.8503 408.649 92.4879 402.112 94.1123 395.575C95.5009 389.981 96.9026 384.361 98.3043 378.767C99.6406 373.383 101.029 368.182 100.309 362.589C99.6275 357.322 97.9899 352.135 96.3524 347.091C94.8328 342.362 93.1167 337.685 91.3874 333.022C103.282 332.052 114.483 327.755 125.422 323.183C129.928 327.375 134.88 331.004 140.71 333.297C144.928 334.96 163.059 340.646 167.801 341.956C168.901 337.895 170.84 333.375 173.329 329.969C166.884 326.956 161.211 322.672 155.565 318.402C146.172 311.288 135.325 302.747 128.186 302.747C119.645 302.747 111.221 305.485 105.077 307.253C98.3961 309.166 92.2652 308.904 85.309 309.205C76.7021 313.267 61.2308 325.738 61.6893 325.384V325.371Z" fill="#ACC891"/>
<path d="M54.1704 265.871C56.1223 265.53 64.2706 266.342 64.9125 263.211L54.9171 249.076L45.4587 255.613C45.4587 255.613 46.1268 256.491 46.9915 257.866C48.3539 260.002 48.5504 262.989 49.2709 265.989C49.3495 266.303 53.8429 265.923 54.1573 265.871H54.1704Z" fill="#FFA18A"/>
<path d="M45.459 255.627C48.5507 253.989 44.1097 244.308 45.6686 237.404C55.7689 221.278 79.3754 261.168 45.459 255.627Z" fill="#FFA18A"/>
<path d="M55.2444 233.396C55.5588 232.439 56.2793 231.653 56.2531 230.605C56.2269 229.793 55.7422 229.086 55.3492 228.392C54.3667 226.675 52.0742 224.579 49.7817 224.357C44.6071 223.846 36.354 230.304 34.5854 234.771C34.1138 235.95 33.6684 238.033 33.2623 239.225C30.6423 246.941 38.9871 249.85 39.9696 251.212C41.6595 253.557 42.9696 257.029 45.6682 258.168C47.0044 258.732 49.4542 257.605 50.607 256.557C51.2882 255.941 51.524 255.352 51.5109 254.71C51.3668 254.435 51.1572 254.225 50.8297 254.173C48.7205 245.749 45.642 254.081 50.2664 239.317C50.5153 237.784 53.0174 236.173 54.1833 233.946C54.3143 234.116 54.7728 234.129 55.2444 233.461C55.2444 233.435 55.2444 233.422 55.2444 233.396Z" fill="black"/>
<path d="M45.5897 247.845C46.4543 248.788 47.594 249.181 48.5634 248.317C49.4411 247.531 49.6769 246.234 48.9171 245.186C48.1704 244.138 46.7949 243.863 45.8386 244.531C44.0962 245.749 44.7513 246.928 45.5897 247.845Z" fill="#FFA18A"/>
<path d="M34.8996 290.944C38.7642 289.726 43.7292 288.455 47.8426 289.49C47.8426 296.866 48.3535 304.28 52.1526 310.791C54.5499 314.905 57.0651 318.625 58.5062 323.223C59.9472 327.808 60.8904 332.551 62.0039 337.214C62.41 334.922 70.3749 325.162 71.4491 323.577C72.5758 321.913 73.9251 320.433 75.3923 319.07C78.3267 316.346 81.6542 313.87 85.1257 311.852C88.8331 309.704 97.4792 308.63 97.4792 308.63C94.6758 300.822 90.9684 296.119 87.0253 287.748C85.0209 283.503 77.7896 269.408 76.5582 266.722C76.8333 266.237 77.1215 265.766 77.4752 265.32C79.2045 263.08 80.5669 260.997 80.973 258.115C77.1346 255.39 74.6194 251.264 73.912 246.613C67.3488 247.124 65.4362 253.674 60.2616 256.661L64.899 263.211C63.5628 263.578 59.79 263.683 58.9385 263.67C55.5324 263.63 52.4015 263.342 49.0216 262.818C48.9823 262.753 48.6024 262.661 48.5238 262.713C46.323 263.761 44.0305 264.888 42.3274 266.67C40.5327 268.569 40.048 270.94 39.524 273.403C38.8428 276.534 37.2053 279.259 36.2096 282.298C35.2926 285.089 34.8734 287.997 34.8865 290.944H34.8996Z" fill="#93A87E"/>
<path d="M91.034 332.838C90.0777 327.218 88.5057 321.716 86.3572 316.424C86.2786 316.227 86.593 316.149 86.6716 316.345C88.8201 321.638 90.379 327.127 91.3353 332.747C91.3746 332.956 91.0602 333.048 91.0209 332.838H91.034Z" fill="white"/>
<path d="M76.3096 266.761C74.528 263.093 71.4626 260.132 67.729 258.481C67.5325 258.403 67.7028 258.115 67.8993 258.193C71.6722 259.87 74.8031 262.87 76.5978 266.59C76.6895 266.774 76.4013 266.944 76.3227 266.748L76.3096 266.761Z" fill="white"/>
<path d="M53.0305 266.199C56.0173 267.287 57.2618 270.784 57.7334 273.653C58.0347 275.513 58.0478 277.413 58.1264 279.286C58.205 281.251 58.4408 283.203 58.598 285.168C58.7552 287.16 58.7421 289.164 58.5587 291.155C58.4801 292.059 58.2312 292.059 57.4321 291.784C55.1789 291.011 52.8077 290.435 50.489 289.924C50.2794 289.884 50.3711 289.557 50.5807 289.609C52.4933 290.042 54.3929 290.539 56.2793 291.09C56.6723 291.207 57.1308 291.443 57.5369 291.483C57.9037 291.509 57.7465 291.692 58.0871 291.391C58.3884 291.116 58.2967 290.592 58.3229 290.212C58.4408 288.535 58.4146 286.858 58.2967 285.181C58.0478 281.946 57.9168 278.71 57.6548 275.487C57.3928 272.265 56.4234 267.784 52.978 266.527C52.7815 266.448 52.8601 266.134 53.0697 266.212L53.0305 266.199Z" fill="white"/>
<path d="M103.374 62.6082C104.082 82.717 103.361 155.593 104.082 175.702C104.252 180.589 104.318 185.501 104.711 190.361C105.077 194.973 106.086 199.348 107.396 203.723L106.06 203.868C105.444 201.863 104.868 199.715 104.449 197.658C103.387 192.497 103.256 187.204 103.06 181.951C102.261 159.785 102.077 84.1842 102.038 62.0056C102.038 61.6257 103.335 61.8091 103.374 62.6082Z" fill="black"/>
<path d="M68.279 430.539C80.7635 432.295 93.2217 434.483 105.85 434.509C113.946 434.535 122.671 433.919 130.308 431.011C134.121 429.557 137.736 427.186 139.321 423.282C141.182 418.697 139.95 413.444 138.077 409.055C131.527 393.728 117.405 383.143 106.479 371.091C95.6191 359.091 86.593 344.877 83.1346 328.908C79.7416 313.267 82.2307 297.926 90.3659 284.197C94.5711 277.11 99.5884 270.508 103.453 263.211C107.462 255.639 110.003 247.346 111.038 238.844C112.178 229.478 111.365 220.006 108.785 210.954H110.003C111.562 216.718 112.623 222.522 112.767 228.613C112.964 236.932 111.719 245.277 109.099 253.176C106.558 260.8 102.562 267.625 98.1736 274.32C93.3265 281.734 88.1913 289.123 85.4402 297.625C82.7547 305.93 82.2569 314.825 83.4359 323.445C85.8987 341.55 95.8418 357.676 108.012 370.934C118.767 382.645 132.077 392.981 138.863 407.758C141.575 413.653 143.042 421.186 138.758 426.727C134.5 432.216 126.64 433.736 120.169 434.745C103.728 437.312 87.0515 434.522 70.768 432.138C69.9296 432.02 69.0781 431.889 68.2397 431.771C66.7332 431.548 66.7463 430.317 68.3183 430.539H68.279Z" fill="black"/>
<path d="M34.9784 304.923C35.5155 308.971 39.4456 310.635 43.0612 311.054C48.2882 311.67 53.5938 311.369 58.847 311.814C61.7028 312.05 64.5193 312.495 67.2704 313.281C69.5367 313.923 71.7375 314.683 74.1349 314.604C74.1349 314.604 74.1349 314.604 74.148 314.591C75.4842 315.102 76.8728 315.534 78.3269 315.561C79.0736 315.574 79.8334 315.482 80.5016 315.154C81.2352 314.788 81.8378 314.198 82.5845 313.831C83.3967 313.438 84.2744 313.242 85.0866 312.862C85.5582 312.639 86.1346 312.272 86.2001 311.696C86.2525 311.224 85.925 310.845 85.5058 310.687C85.4796 310.687 85.4665 310.687 85.4403 310.674C85.4403 310.674 85.4665 310.674 85.4796 310.674C85.7285 310.543 85.9774 310.412 86.1608 310.19C86.5145 309.797 86.5538 309.207 86.2656 308.775C86.1215 308.565 85.9119 308.434 85.6761 308.356C85.6892 308.356 85.7154 308.329 85.7285 308.329C86.1084 308.041 86.3573 307.517 86.187 307.045C86.1215 306.849 85.9774 306.718 85.8202 306.652C85.8333 306.6 85.8857 306.574 85.8988 306.535C85.9905 306.011 85.401 305.631 84.9818 305.5C84.6805 305.408 84.3661 305.395 84.0648 305.408C83.6063 305.434 82.8727 305.631 82.4797 305.369C82.2046 305.198 82.3225 305.12 82.2439 304.858C82.2177 304.792 82.2046 304.714 82.1653 304.648C82.0736 304.465 81.8902 304.36 81.7199 304.268C81.0518 303.941 80.0561 303.954 79.3356 303.993C78.602 304.046 77.8684 304.216 77.2527 304.622C76.506 305.107 76.113 305.971 75.3663 306.443C74.4231 307.032 73.2048 306.875 72.1698 306.744C72.1436 306.744 72.1436 306.77 72.1174 306.783C64.6634 305.08 56.9474 304.439 49.6637 302.054C50.227 300.168 50.8558 298.255 51.2095 296.316C51.6025 294.142 50.2663 289.688 50.2663 289.688C43.5852 287.906 36.3015 290.565 36.3015 290.565C36.4718 293.356 36.2753 296.094 35.6989 298.832C35.2797 300.836 34.7033 302.906 34.9784 304.976V304.923Z" fill="#FFA18A"/>
<path d="M81.9825 50.0842C86.1483 51.6693 90.6679 52.4815 95.266 52.4815C98.79 52.4815 102.026 52.6125 103.978 48.6956C107.895 40.8617 107.554 31.4295 104.554 24.2899C103.978 22.9406 103.296 21.683 102.55 20.4778C101.056 17.3992 99.052 14.6482 96.5499 12.4343C91.8993 8.29461 86.0042 6.05448 79.8733 4.80996C76.8472 4.19425 73.7555 3.82745 70.6508 3.53924C66.8648 3.19864 62.5156 3.42134 59.9348 0.368999C59.3584 -0.31221 58.3497 0.303499 58.1925 1.18121C57.2231 6.72259 56.2537 12.3557 56.6074 17.8446C56.948 23.1371 58.7296 27.8401 61.3497 32.019C66.3539 39.984 73.3232 46.7568 81.9956 50.0711L81.9825 50.0842Z" fill="#93A87E"/>
<path d="M80.1482 48.3816C82.8206 46.6917 85.8861 46.5083 88.8467 47.517C90.5104 48.0934 92.0563 48.565 93.851 48.5388C95.554 48.5257 97.2439 48.172 98.9076 47.8183C97.3618 44.8708 95.7505 41.9494 93.8641 39.1984C93.8117 39.1329 93.7593 39.0674 93.7069 38.9888C85.4538 37.7443 77.764 42.6307 69.5108 41.8577C68.9082 41.8053 68.9475 40.8752 69.5501 40.9145C77.5413 41.6612 84.9953 37.1024 92.9602 37.9408C90.589 34.7836 87.7725 32.0064 84.7595 29.4388C83.7376 28.5742 82.7289 27.7095 81.7071 26.8711C79.4801 26.8711 77.3709 27.5654 75.1963 27.9977C73.2968 28.3515 71.4366 28.4039 69.5239 28.0764C65.7118 27.4344 62.1747 25.7314 58.3757 25.1026C57.7731 25.0109 57.8255 24.0677 58.415 24.1594C62.1616 24.762 65.6332 26.3864 69.3405 27.0807C71.5283 27.4999 73.6243 27.382 75.7858 26.8973C77.4103 26.5305 79.0085 26.1244 80.646 25.9803C77.2268 23.1245 73.8077 20.2686 70.6244 17.177C65.5284 16.4172 60.0918 15.3037 57.0657 10.6924C56.7382 10.1815 57.5635 9.73609 57.891 10.247C60.4717 14.1771 65.0961 15.3561 69.4977 16.0504C68.3056 14.8583 67.1528 13.6137 66.0524 12.3168C63.0393 8.77977 60.4455 4.91522 58.4936 0.696962C58.2316 0.146755 59.07 -0.298652 59.3189 0.251556C62.1223 6.35624 66.3275 11.5963 71.0567 16.2993C71.2794 16.3386 71.4104 16.5089 71.4497 16.6923C71.9475 17.1901 72.4715 17.6748 72.9693 18.1464C73.2182 16.7316 73.2706 15.3168 73.2051 13.902C73.0348 10.7186 72.2357 7.54836 71.4497 4.49602C71.2925 3.90651 72.2226 3.6969 72.3667 4.27331C73.585 9.05488 74.7902 13.9806 73.7946 18.9062C74.1876 19.2861 74.6068 19.6529 75.0129 20.0197C77.3185 22.0765 79.7552 24.0284 82.1525 26.0065C82.1525 26.0065 82.1787 26.0327 82.1918 26.0458C83.4756 27.0938 84.7463 28.168 86.004 29.2554C87.5236 25.8624 86.8817 22.0765 86.1481 18.5787C85.349 14.7404 84.7857 11.0461 85.2311 7.11606C85.3097 6.51345 86.2529 6.55275 86.1743 7.15535C85.9254 9.32998 85.9123 11.5308 86.1743 13.7185C86.4625 15.8539 87.0127 17.9368 87.3926 20.0328C88.0083 23.3472 88.1917 26.7925 86.7245 29.9104C89.3445 32.2553 91.8074 34.7443 93.8903 37.6133C95.2134 39.408 96.3793 41.2682 97.4797 43.194C100.257 39.7617 99.6806 35.0063 99.1566 30.906C98.5932 26.5829 98.567 22.4695 100.034 18.3036C100.244 17.7403 101.135 18.0154 100.938 18.5787C100.139 20.845 99.6937 23.19 99.6675 25.6004C99.6413 28.2467 100.152 30.8405 100.414 33.4474C100.781 37.1548 100.519 41.1241 97.9775 44.0586C99.1828 46.1939 100.309 48.3947 101.423 50.5956C101.698 51.1327 100.86 51.5912 100.584 51.041C100.191 50.255 99.7854 49.4821 99.3793 48.696C96.34 49.3379 93.2222 49.9144 90.1698 48.9711C88.5454 48.4602 87.0389 47.8052 85.2966 47.8052C83.6197 47.8052 82.0215 48.3161 80.6067 49.2201C80.0958 49.5345 79.6504 48.7091 80.1613 48.3816H80.1482Z" fill="white"/>
<path d="M59.2007 65.0195C56.5938 68.1767 53.8558 71.1897 50.8821 73.9669C50.5808 74.2421 50.7511 74.7792 51.131 74.9233C55.2183 76.3905 59.3186 77.8446 63.419 79.2987C66.8119 80.5039 71.921 81.4603 77.4755 80.8183C84.1697 80.0323 90.3791 75.9451 93.104 69.1985C95.4882 63.3034 89.9337 59.334 85.2701 56.976C79.506 54.0678 72.9952 55.6791 67.6765 58.1026C64.2181 59.6615 61.6242 62.0851 59.2138 65.0326L59.2007 65.0195Z" fill="#93A87E"/>
<path d="M51.2097 74.4782C53.9738 74.0066 56.7511 73.5088 59.4366 72.6442C59.6593 72.5656 59.8689 72.5001 60.0916 72.4215C59.489 72.9455 58.8864 73.4826 58.31 74.0197C57.5895 74.714 56.9607 75.5 56.5415 76.417C56.4105 76.7183 56.8559 76.9934 56.9869 76.6921C57.4061 75.7882 58.0218 75.0284 58.7423 74.3341C59.5807 73.535 60.4715 72.7883 61.3231 72.0284C61.3624 71.9891 61.3885 71.9499 61.3885 71.9106C63.2488 71.1507 65.0435 70.2337 66.9168 69.4739C68.9343 68.6617 70.991 68.046 73.1001 67.5351C72.5892 69.9586 70.3491 71.7402 68.6854 73.3909C67.6766 74.3865 66.6548 75.3952 65.6461 76.4039C64.8601 77.1768 64.061 77.9759 63.9955 79.1418C63.9693 79.4825 64.4933 79.4694 64.5064 79.1418C64.5981 77.7794 66.0391 76.7445 66.9299 75.8537C67.9779 74.8188 69.0129 73.7839 70.0609 72.749C71.5936 71.2293 73.2573 69.6049 73.6503 67.4041C76.7158 66.6967 79.8598 66.2251 82.9777 65.7666C83.9995 65.6094 85.0213 65.4522 86.0562 65.3212C83.1349 71.7402 78.2616 77.0589 71.9997 80.3602C71.6984 80.5174 71.9604 80.9628 72.2486 80.8187C78.6939 77.4257 83.7113 71.8843 86.6457 65.2426C88.7548 64.9936 90.8771 64.8757 92.9993 65.0591C93.3399 65.0854 93.3268 64.5614 92.9993 64.5351C92.2133 64.4565 91.4273 64.4434 90.6544 64.4434C90.6544 64.4303 90.6282 64.4172 90.6151 64.4172C87.9295 62.3081 84.9951 60.5658 81.851 59.2034C78.707 57.8672 75.0127 56.4523 71.5543 57.0287C71.2268 57.0811 71.3578 57.592 71.6853 57.5396C73.5324 57.2383 75.3665 57.6051 77.135 58.103C78.7201 58.5484 80.279 59.0986 81.7986 59.7536C84.6545 60.985 87.3531 62.5832 89.8291 64.4696C88.7417 64.5089 87.6675 64.6137 86.5933 64.7316C86.5016 64.6792 86.3968 64.6792 86.3051 64.7579C85.7287 64.8234 85.1654 64.902 84.6021 64.9937C83.4362 65.164 82.2572 65.3343 81.0781 65.5046C78.8511 64.0635 76.5324 62.95 73.9909 62.1902C71.1875 61.3387 68.3316 60.5527 65.502 59.7274C65.1745 59.6488 65.0304 60.1466 65.3579 60.2514C68.0959 61.0374 70.8469 61.7972 73.5717 62.6094C75.9691 63.3299 78.183 64.3124 80.2921 65.6356C78.9166 65.8583 77.528 66.081 76.1525 66.343C75.301 66.5133 74.4363 66.6967 73.5848 66.8932C73.48 66.8408 73.3097 66.867 73.2311 66.9718C71.6067 67.3648 69.9954 67.8102 68.3972 68.3604C68.3972 68.3604 68.3972 68.3604 68.3841 68.3604C66.6941 68.046 65.3579 66.9456 63.8383 66.2513C62.1877 65.5046 60.5239 65.5177 58.7554 65.7011C58.4148 65.7273 58.4148 66.2644 58.7554 66.2251C59.6462 66.1334 60.537 66.0417 61.4279 66.1334C62.3187 66.2251 63.1702 66.5002 63.9824 66.9063C65.1614 67.4958 66.2749 68.2818 67.5456 68.6879C65.1221 69.618 62.8296 70.8756 60.3929 71.7664C57.393 72.8669 54.2097 73.4302 51.0656 73.9673C50.725 74.0328 50.8691 74.5306 51.2097 74.4782Z" fill="white"/>
<path d="M321.899 414.218C321.899 414.218 347.352 366.337 326.667 366.835C318.165 367.045 310.816 405.127 310.816 405.127C310.816 405.127 312.48 370.385 295.462 375.835C286.253 378.782 300.192 405.127 300.192 405.127C300.192 405.127 287.576 388.11 280.489 392.944C268.921 400.817 290.131 414.336 290.131 414.336L321.885 414.218H321.899Z" fill="#93A87E"/>
<path d="M333.06 414.18C333.06 414.18 337.54 388.831 347.404 389.263C354.465 389.591 348.099 406.752 342.112 414.167C342.112 414.167 333.322 414.167 333.06 414.193V414.18Z" fill="#93A87E"/>
<path d="M315.715 414.244L326.326 376.725C326.405 376.476 326.667 376.319 326.903 376.397C327.152 376.463 327.309 376.725 327.23 376.974L316.711 414.244H315.728H315.715Z" fill="white"/>
<path d="M306.925 414.283L299.576 383.917C299.523 383.668 299.668 383.406 299.916 383.353C300.165 383.301 300.427 383.445 300.493 383.707L307.894 414.296H306.925V414.283Z" fill="white"/>
<path d="M337.71 414.153L344.496 397.215C344.588 396.979 344.876 396.874 345.112 396.953C345.348 397.057 345.466 397.332 345.374 397.581L338.732 414.153H337.71Z" fill="white"/>
<path d="M299.13 414.323L285.768 399.258C285.598 399.062 285.611 398.76 285.807 398.577C286.004 398.394 286.292 398.42 286.475 398.616L300.388 414.31H299.13V414.323Z" fill="white"/>
<path d="M371.68 62.3594H109.663V69.2501H371.68V62.3594Z" fill="#1B1B1B"/>
<path d="M313.973 206.787H302.511C301.738 201.809 300.441 196.962 298.646 192.285L308.55 186.56C308.995 186.298 309.31 185.892 309.454 185.408C309.585 184.91 309.519 184.386 309.27 183.94L300.113 168.102C299.76 167.474 299.105 167.133 298.45 167.133C298.122 167.133 297.795 167.225 297.493 167.408L287.55 173.12C284.406 169.229 280.843 165.666 276.939 162.522L282.664 152.592C282.926 152.146 282.991 151.622 282.847 151.138C282.729 150.64 282.402 150.221 281.956 149.959L266.118 140.815C265.817 140.644 265.49 140.566 265.162 140.566C264.494 140.566 263.852 140.893 263.485 141.522L257.774 151.426C253.11 149.631 248.237 148.334 243.272 147.561V136.099C243.272 135.024 242.407 134.173 241.346 134.173H223.045C221.997 134.173 221.119 135.037 221.119 136.099V147.561C216.141 148.334 211.281 149.631 206.617 151.426L200.893 141.522C200.644 141.077 200.224 140.749 199.727 140.631C199.569 140.592 199.399 140.566 199.229 140.566C198.888 140.566 198.561 140.644 198.272 140.815L182.434 149.959C181.517 150.483 181.203 151.662 181.727 152.579L187.465 162.509C183.561 165.666 179.998 169.216 176.854 173.107L166.924 167.395C166.622 167.212 166.295 167.12 165.967 167.12C165.312 167.12 164.657 167.46 164.304 168.089L155.147 183.927C154.885 184.36 154.819 184.897 154.963 185.395C155.094 185.879 155.422 186.298 155.854 186.547L165.758 192.272C163.963 196.936 162.666 201.796 161.88 206.774H150.417C149.356 206.774 148.505 207.639 148.505 208.7V226.988C148.505 228.049 149.369 228.926 150.417 228.926H161.88C162.666 233.891 163.963 238.752 165.758 243.415L155.854 249.14C155.409 249.402 155.094 249.821 154.963 250.319C154.832 250.817 154.898 251.328 155.147 251.773L164.304 267.611C164.657 268.24 165.299 268.581 165.967 268.581C166.295 268.581 166.622 268.502 166.924 268.332L176.854 262.594C180.011 266.498 183.574 270.061 187.478 273.205L181.74 283.135C181.491 283.594 181.413 284.104 181.557 284.602C181.688 285.087 182.002 285.506 182.447 285.755L198.286 294.912C198.587 295.069 198.927 295.161 199.242 295.161C199.91 295.161 200.565 294.807 200.906 294.192L206.63 284.275C211.294 286.069 216.154 287.366 221.132 288.139V299.602C221.132 300.676 222.01 301.528 223.058 301.528H241.359C242.42 301.528 243.285 300.676 243.285 299.602V288.139C248.25 287.366 253.123 286.069 257.787 284.275L263.498 294.192C263.747 294.637 264.18 294.965 264.664 295.082C264.835 295.122 265.005 295.148 265.175 295.148C265.516 295.148 265.843 295.056 266.131 294.899L281.97 285.742C282.887 285.205 283.201 284.052 282.664 283.122L276.939 273.192C280.843 270.048 284.393 266.485 287.55 262.581L297.48 268.319C297.768 268.489 298.096 268.568 298.436 268.568C299.091 268.568 299.747 268.227 300.1 267.598L309.257 251.76C309.506 251.315 309.585 250.804 309.441 250.306C309.297 249.808 308.982 249.389 308.537 249.127L298.633 243.402C300.428 238.752 301.725 233.878 302.498 228.913H313.96C315.021 228.913 315.873 228.049 315.873 226.975V208.687C315.873 207.626 315.021 206.761 313.96 206.761L313.973 206.787ZM232.215 191.892C219.822 191.892 209.172 200.709 206.761 212.708H193.609C196.137 193.595 212.709 178.897 232.215 178.897C251.721 178.897 268.267 193.582 270.808 212.708H257.656C255.245 200.709 244.595 191.892 232.215 191.892ZM248.865 217.857C248.865 227.053 241.411 234.52 232.215 234.52C223.019 234.52 215.552 227.053 215.552 217.857C215.552 208.66 223.006 201.206 232.215 201.206C241.424 201.206 248.865 208.66 248.865 217.857ZM227.067 274.358C197.971 271.751 175.478 247.319 175.478 217.844C175.478 188.368 197.984 163.963 227.067 161.356V169.255C202.399 171.849 183.325 192.849 183.325 217.844C183.325 242.839 202.399 263.865 227.067 266.472V274.358ZM193.609 223.018H206.761C209.185 235.005 219.835 243.848 232.215 243.848C244.595 243.848 255.245 235.005 257.656 223.018H270.808C268.28 242.131 251.708 256.83 232.215 256.83C212.722 256.83 196.137 242.145 193.609 223.018ZM237.363 274.358V266.472C262.031 263.865 281.105 242.865 281.105 217.844C281.105 192.822 262.031 171.836 237.363 169.255V161.356C266.459 163.963 288.952 188.395 288.952 217.844C288.952 247.293 266.459 271.751 237.363 274.358Z" fill="#1A4D2E"/>
<path d="M248.866 217.856C248.866 227.053 241.412 234.52 232.215 234.52C223.019 234.52 215.552 227.053 215.552 217.856C215.552 208.66 223.006 201.206 232.215 201.206C241.425 201.206 248.866 208.66 248.866 217.856Z" fill="#7B8D6A"/>
<path d="M363.021 122.201H355.855C354.925 117.917 353.261 113.882 350.877 110.188L355.947 105.118C356.536 104.528 356.536 103.559 355.947 102.969L347.169 94.2055C346.868 93.9042 346.488 93.747 346.095 93.747C345.702 93.747 345.309 93.9042 345.008 94.2055L339.951 99.2621C336.257 96.8779 332.209 95.2011 327.938 94.2841V87.1183C327.938 86.2798 327.257 85.5986 326.406 85.5986H314.013C313.174 85.5986 312.48 86.2798 312.48 87.1183V94.2841C308.196 95.2011 304.148 96.8779 300.467 99.2621L295.398 94.2055C295.122 93.9042 294.716 93.747 294.323 93.747C293.93 93.747 293.55 93.9042 293.262 94.2055L284.472 102.969C283.882 103.559 283.882 104.528 284.472 105.118L289.542 110.188C287.158 113.882 285.494 117.917 284.564 122.201H277.411C276.573 122.201 275.891 122.882 275.891 123.72V136.126C275.891 136.964 276.573 137.646 277.411 137.646H284.564C285.494 141.943 287.158 145.977 289.542 149.659L284.472 154.728C283.882 155.318 283.882 156.287 284.472 156.877L293.262 165.654C293.55 165.955 293.943 166.099 294.323 166.099C294.703 166.099 295.122 165.955 295.398 165.654L300.467 160.584C304.148 162.968 308.183 164.645 312.48 165.562V172.728C312.48 173.553 313.161 174.234 314.013 174.234H326.406C327.257 174.234 327.938 173.553 327.938 172.728V165.562C332.222 164.632 336.27 162.968 339.951 160.584L345.008 165.654C345.309 165.955 345.689 166.099 346.095 166.099C346.501 166.099 346.868 165.955 347.169 165.654L355.947 156.877C356.536 156.287 356.536 155.331 355.947 154.728L350.877 149.659C353.261 145.977 354.925 141.943 355.855 137.646H363.021C363.859 137.646 364.527 136.964 364.527 136.126V123.72C364.527 122.882 363.846 122.201 363.021 122.201ZM317.052 156.706C303.585 155.134 293.249 143.672 293.249 129.93C293.249 116.188 303.585 104.725 317.052 103.153V106.218C305.301 107.777 296.288 117.943 296.288 129.93C296.288 141.916 305.301 152.082 317.052 153.641V156.706ZM301.227 129.93C301.227 119.436 309.729 110.934 320.209 110.934C330.689 110.934 339.218 119.436 339.218 129.93C339.218 140.423 330.703 148.925 320.209 148.925C309.716 148.925 301.227 140.423 301.227 129.93ZM323.38 156.706V153.641C335.143 152.082 344.143 141.929 344.143 129.93C344.143 117.93 335.143 107.777 323.38 106.218V103.153C336.86 104.725 347.169 116.188 347.169 129.93C347.169 143.672 336.847 155.134 323.38 156.706Z" fill="#7B8D6A"/>
<path d="M393.95 59.6993L388.881 59.0967C388.068 59.005 387.191 58.2845 386.942 57.5116L385.16 53.2278C384.793 52.4942 384.911 51.3807 385.409 50.7388L388.566 46.7301C389.077 46.0882 389.012 45.0926 388.435 44.5162L382.147 38.2281C381.571 37.6517 380.575 37.5993 379.946 38.0971L375.924 41.2542C375.296 41.7651 374.169 41.8699 373.435 41.5031L369.152 39.7346C368.379 39.4726 367.671 38.5949 367.567 37.7827L366.964 32.726C366.872 31.9138 366.126 31.2588 365.313 31.2588H356.418C355.606 31.2588 354.859 31.9269 354.768 32.726L354.165 37.7827C354.06 38.5949 353.353 39.4726 352.593 39.7346L348.309 41.5031C347.589 41.8699 346.462 41.752 345.82 41.2542L341.812 38.0971C341.17 37.5993 340.174 37.6517 339.598 38.2281L333.31 44.5162C332.733 45.0926 332.681 46.0882 333.179 46.7301L336.336 50.7388C336.847 51.3807 336.951 52.4942 336.585 53.2278L334.816 57.5116C334.554 58.2845 333.676 58.9919 332.877 59.0967L327.807 59.6993C326.995 59.8041 326.327 60.5508 326.327 61.363V70.2449C326.327 71.0572 326.995 71.8039 327.807 71.9087L332.877 72.5113C333.689 72.603 334.554 73.3235 334.816 74.0833L336.585 78.3671C336.951 79.1007 336.834 80.2142 336.336 80.8561L333.179 84.8647C332.681 85.5067 332.733 86.5023 333.31 87.0787L339.598 93.3668C340.174 93.9301 341.17 93.9956 341.812 93.4978L345.82 90.3406C346.462 89.8297 347.576 89.7249 348.309 90.0917L352.593 91.8602C353.366 92.1223 354.073 93 354.165 93.7991L354.768 98.8688C354.859 99.6811 355.606 100.336 356.418 100.336H365.313C366.126 100.336 366.872 99.668 366.964 98.8688L367.567 93.7991C367.658 92.9869 368.379 92.1223 369.152 91.8602L373.435 90.0917C374.169 89.7249 375.283 89.8428 375.924 90.3406L379.946 93.4978C380.588 94.0087 381.584 93.9432 382.147 93.3668L388.435 87.0787C389.012 86.5023 389.064 85.5067 388.566 84.8647L385.409 80.8561C384.911 80.2142 384.793 79.1007 385.16 78.3671L386.942 74.0833C387.191 73.3235 388.068 72.603 388.881 72.5113L393.95 71.9087C394.763 71.817 395.418 71.0703 395.418 70.2449V61.363C395.418 60.5508 394.763 59.8041 393.95 59.6993ZM383.968 71.2275L382.566 70.8475C382.173 70.7427 381.911 70.3235 381.977 69.9305L382.317 67.2974C382.357 66.8913 382.71 66.5638 383.116 66.5638H384.584C384.531 68.162 384.322 69.734 383.968 71.2406V71.2275ZM381.78 77.0046L380.51 76.271C380.156 76.0745 380.012 75.6029 380.182 75.2361L381.204 72.7733C381.348 72.3934 381.78 72.1707 382.16 72.2755L383.575 72.6554C383.116 74.175 382.514 75.6422 381.767 77.0177L381.78 77.0046ZM340.868 65.804C340.868 54.7474 349.829 45.7869 360.885 45.7869C371.942 45.7869 380.903 54.7474 380.903 65.804C380.903 76.8605 371.942 85.8211 360.885 85.8211C349.829 85.8211 340.868 76.8474 340.868 65.804ZM338.196 72.6554L339.611 72.2755C340.004 72.1707 340.436 72.3934 340.58 72.7733L341.602 75.2361C341.772 75.6029 341.628 76.0745 341.274 76.271L340.004 77.0046C339.257 75.6291 338.654 74.175 338.196 72.6423V72.6554ZM337.816 60.3805L339.231 60.7604C339.624 60.8652 339.886 61.2844 339.82 61.6774L339.48 64.3106C339.44 64.7167 339.087 65.0442 338.681 65.0442H337.213C337.266 63.4459 337.475 61.8739 337.829 60.3674L337.816 60.3805ZM340.004 54.6033L341.274 55.3369C341.628 55.5465 341.772 56.0181 341.602 56.3849L340.58 58.8478C340.436 59.2277 340.004 59.4504 339.611 59.3587L338.196 58.9788C338.654 57.4592 339.257 56.005 340.004 54.6164V54.6033ZM337.2 66.5507H338.668C339.074 66.5507 339.427 66.8782 339.467 67.2843L339.807 69.9174C339.886 70.3235 339.611 70.7296 339.218 70.8344L337.803 71.2144C337.449 69.7078 337.24 68.1358 337.187 66.5376L337.2 66.5507ZM383.588 58.9526L382.173 59.3325C381.78 59.4373 381.348 59.2146 381.217 58.8216L380.195 56.3587C380.012 55.9919 380.169 55.5203 380.523 55.3107L381.793 54.5771C382.527 55.9526 383.143 57.4199 383.601 58.9395L383.588 58.9526ZM383.116 65.0573C382.71 65.0573 382.357 64.7298 382.317 64.3237L381.977 61.6905C381.911 61.2844 382.173 60.8783 382.566 60.7735L383.968 60.3936C384.322 61.9001 384.531 63.4721 384.584 65.0704H383.116V65.0573ZM381.034 53.3195L379.763 54.0531C379.409 54.2496 378.924 54.1448 378.702 53.8173L377.077 51.7082C376.815 51.3938 376.828 50.9091 377.117 50.6209L378.151 49.5859C379.226 50.7388 380.182 51.9833 381.02 53.3326L381.034 53.3195ZM377.117 48.5379L376.082 49.5728C375.793 49.861 375.309 49.8742 374.994 49.6122L372.885 47.9877C372.545 47.7519 372.44 47.2803 372.649 46.9266L373.383 45.6559C374.719 46.4943 375.977 47.4506 377.13 48.5248L377.117 48.5379ZM372.086 44.9092L371.352 46.1799C371.143 46.5336 370.684 46.6777 370.318 46.5074L367.855 45.4987C367.475 45.3546 367.239 44.9223 367.357 44.5293L367.737 43.1145C369.256 43.573 370.724 44.1756 372.099 44.9223L372.086 44.9092ZM366.309 42.7215L365.929 44.1363C365.824 44.5293 365.405 44.7913 364.999 44.7258L362.366 44.3721C361.96 44.3459 361.632 43.9791 361.632 43.573V42.1057C363.243 42.1581 364.802 42.3677 366.309 42.7083V42.7215ZM360.152 42.1188V43.5861C360.152 43.9922 359.824 44.359 359.418 44.3852L356.785 44.7389C356.379 44.8044 355.973 44.5424 355.855 44.1494L355.475 42.7345C356.982 42.3808 358.554 42.1712 360.152 42.1319V42.1188ZM354.047 43.1145L354.427 44.5293C354.532 44.9223 354.309 45.3546 353.929 45.4987L351.48 46.5074C351.1 46.6908 350.641 46.5336 350.431 46.1799L349.698 44.9092C351.073 44.1756 352.528 43.573 354.06 43.1014L354.047 43.1145ZM348.401 45.6559L349.135 46.9266C349.344 47.2803 349.239 47.7519 348.899 47.9877L346.79 49.6122C346.475 49.8742 345.991 49.861 345.702 49.5728L344.667 48.5379C345.807 47.4637 347.065 46.4943 348.401 45.669V45.6559ZM343.619 49.5728L344.654 50.6078C344.942 50.896 344.956 51.3807 344.694 51.6951L343.069 53.8042C342.846 54.1448 342.362 54.2496 342.008 54.04L340.737 53.3064C341.576 51.9571 342.545 50.7126 343.606 49.5597L343.619 49.5728ZM340.737 78.2885L342.008 77.5548C342.362 77.3583 342.846 77.4631 343.069 77.8037L344.694 79.9129C344.956 80.2273 344.942 80.712 344.654 81.0002L343.619 82.0351C342.545 80.8954 341.576 79.6378 340.75 78.3015L340.737 78.2885ZM344.667 83.0831L345.702 82.0482C345.991 81.76 346.475 81.7338 346.79 81.9958L348.899 83.6202C349.239 83.856 349.344 84.3276 349.135 84.6813L348.401 85.9521C347.065 85.1137 345.807 84.1573 344.667 83.0831ZM349.685 86.6988L350.418 85.4281C350.628 85.0743 351.087 84.9302 351.466 85.1005L353.916 86.1224C354.296 86.2534 354.532 86.6988 354.414 87.0918L354.034 88.5066C352.501 88.0481 351.047 87.4324 349.672 86.6988H349.685ZM355.475 88.8865L355.855 87.4848C355.96 87.0918 356.379 86.8298 356.785 86.8953L359.418 87.2359C359.824 87.2752 360.152 87.6289 360.152 88.035V89.5022C358.554 89.4498 356.982 89.2402 355.475 88.8865ZM361.632 89.4891V88.0219C361.632 87.6158 361.96 87.2621 362.366 87.2228L364.999 86.8822C365.405 86.8036 365.811 87.0656 365.929 87.4717L366.309 88.8734C364.802 89.2271 363.243 89.4367 361.632 89.4891ZM367.737 88.4935L367.357 87.0787C367.252 86.6857 367.475 86.2534 367.855 86.1093L370.318 85.0874C370.684 84.9171 371.143 85.0612 371.352 85.415L372.086 86.6857C370.711 87.4193 369.256 88.035 367.724 88.4935H367.737ZM373.383 85.9521L372.649 84.6813C372.453 84.3276 372.558 83.8429 372.885 83.6202L374.994 81.9958C375.309 81.7338 375.793 81.7469 376.082 82.0482L377.117 83.0831C375.977 84.1573 374.719 85.1268 373.37 85.9521H373.383ZM378.165 82.0351L377.13 81.0002C376.841 80.712 376.828 80.2273 377.09 79.9129L378.715 77.8037C378.951 77.4631 379.422 77.3583 379.776 77.5548L381.047 78.2885C380.208 79.6247 379.252 80.8823 378.178 82.022L378.165 82.0351Z" fill="#1A4D2E"/>
<path d="M301.227 129.93C301.227 119.437 309.729 110.935 320.209 110.935C330.689 110.935 339.218 119.437 339.218 129.93C339.218 140.423 330.702 148.925 320.209 148.925C309.716 148.925 301.227 140.423 301.227 129.93Z" fill="#1A4D2E"/>
<path d="M340.868 65.8042C340.868 54.7476 349.829 45.7871 360.885 45.7871C371.942 45.7871 380.903 54.7476 380.903 65.8042C380.903 76.8607 371.942 85.8213 360.885 85.8213C349.829 85.8213 340.868 76.8476 340.868 65.8042Z" fill="#7B8D6A"/>
<path d="M385.265 131.999C384.427 131.999 383.641 131.488 383.339 130.663L358.96 66.5376C358.554 65.4765 359.091 64.2713 360.152 63.8651C361.226 63.459 362.418 63.9961 362.824 65.0573L387.204 129.183C387.61 130.257 387.073 131.449 385.999 131.855C385.763 131.947 385.514 131.986 385.265 131.986V131.999Z" fill="#1B1B1B"/>
<path d="M391.802 127.441C393.177 131.056 391.369 135.091 387.754 136.467C384.151 137.842 380.103 136.021 378.728 132.419C377.352 128.803 379.173 124.768 382.776 123.393C386.391 122.017 390.426 123.838 391.802 127.441Z" fill="#7B8D6A"/>
<path d="M367.436 63.3153C366.06 59.6997 362.025 57.8918 358.41 59.2674C354.794 60.6429 352.986 64.6777 354.362 68.2934C355.737 71.909 359.772 73.7169 363.388 72.3413C366.99 70.9658 368.811 66.931 367.436 63.3153Z" fill="#1A4D2E"/>
<path d="M153.693 59.6993L148.623 59.0967C147.811 59.005 146.933 58.2845 146.684 57.5116L144.916 53.2278C144.549 52.4942 144.667 51.3807 145.164 50.7388L148.322 46.7301C148.832 46.0882 148.767 45.0926 148.191 44.5162L141.902 38.2281C141.326 37.6517 140.33 37.5993 139.689 38.0971L135.667 41.2542C135.025 41.7651 133.911 41.8699 133.178 41.5031L128.894 39.7346C128.121 39.4726 127.414 38.5949 127.309 37.7827L126.706 32.726C126.615 31.9138 125.868 31.2588 125.043 31.2588H116.161C115.348 31.2588 114.602 31.9269 114.51 32.726L113.907 37.7827C113.816 38.5949 113.095 39.4726 112.322 39.7346L108.039 41.5031C107.318 41.8699 106.191 41.752 105.549 41.2542L101.541 38.0971C100.899 37.5993 99.9033 37.6517 99.3269 38.2281L93.0388 44.5162C92.4624 45.0926 92.41 46.0882 92.9078 46.7301L96.0649 50.7388C96.5627 51.3807 96.6806 52.4942 96.3138 53.2278L94.5453 57.5116C94.2833 58.2845 93.4056 58.9919 92.6065 59.0967L87.5367 59.6993C86.7245 59.8041 86.0564 60.5508 86.0564 61.363V70.2449C86.0564 71.0572 86.7245 71.8039 87.5367 71.9087L92.6065 72.5113C93.4187 72.603 94.2833 73.3235 94.5453 74.0833L96.3138 78.3671C96.6806 79.1007 96.5627 80.2142 96.0649 80.8561L92.9078 84.8647C92.41 85.5067 92.4624 86.5023 93.0388 87.0787L99.3269 93.3668C99.9033 93.9301 100.899 93.9956 101.541 93.4978L105.549 90.3406C106.191 89.8297 107.318 89.7249 108.039 90.0917L112.322 91.8602C113.095 92.1223 113.803 93 113.907 93.7991L114.51 98.8688C114.602 99.6811 115.348 100.336 116.161 100.336H125.043C125.855 100.336 126.601 99.668 126.706 98.8688L127.309 93.7991C127.414 92.9869 128.121 92.1223 128.894 91.8602L133.178 90.0917C133.911 89.7249 135.025 89.8428 135.667 90.3406L139.689 93.4978C140.33 94.0087 141.326 93.9432 141.902 93.3668L148.191 87.0787C148.767 86.5023 148.832 85.5067 148.322 84.8647L145.164 80.8561C144.667 80.2142 144.549 79.1007 144.916 78.3671L146.684 74.0833C146.946 73.3235 147.824 72.603 148.623 72.5113L153.693 71.9087C154.505 71.817 155.16 71.0703 155.16 70.2449V61.363C155.16 60.5508 154.505 59.8041 153.693 59.6993ZM143.697 71.2275L142.282 70.8475C141.889 70.7427 141.627 70.3235 141.693 69.9305L142.033 67.2974C142.073 66.8913 142.426 66.5638 142.833 66.5638H144.3C144.247 68.162 144.038 69.734 143.684 71.2406L143.697 71.2275ZM141.509 77.0046L140.239 76.271C139.885 76.0745 139.741 75.6029 139.911 75.2361L140.933 72.7733C141.077 72.3934 141.509 72.1707 141.902 72.2755L143.317 72.6554C142.859 74.175 142.256 75.6422 141.509 77.0177V77.0046ZM100.611 65.804C100.611 54.7474 109.571 45.7869 120.628 45.7869C131.684 45.7869 140.645 54.7474 140.645 65.804C140.645 76.8605 131.684 85.8211 120.628 85.8211C109.571 85.8211 100.611 76.8474 100.611 65.804ZM97.9252 72.6554L99.34 72.2755C99.733 72.1707 100.165 72.3934 100.309 72.7733L101.331 75.2361C101.502 75.6029 101.357 76.0745 101.004 76.271L99.733 77.0046C98.9994 75.6291 98.3837 74.175 97.9252 72.6423V72.6554ZM97.5453 60.3805L98.9601 60.7604C99.3531 60.8652 99.6151 61.2844 99.5496 61.6774L99.209 64.3106C99.1828 64.7167 98.816 65.0442 98.4099 65.0442H96.9426C96.995 63.4459 97.2047 61.8739 97.5584 60.3674L97.5453 60.3805ZM99.733 54.6033L101.004 55.3369C101.357 55.5465 101.502 56.0181 101.331 56.3849L100.309 58.8478C100.165 59.2277 99.733 59.4504 99.34 59.3587L97.9252 58.9788C98.3837 57.4592 98.9863 56.005 99.733 54.6164V54.6033ZM96.9296 66.5507H98.3968C98.8029 66.5507 99.1697 66.8782 99.1959 67.2843L99.5365 69.9174C99.6151 70.3235 99.34 70.7296 98.947 70.8344L97.5322 71.2144C97.1785 69.7078 96.9689 68.1358 96.9165 66.5376L96.9296 66.5507ZM143.317 58.9526L141.902 59.3325C141.509 59.4373 141.077 59.2146 140.933 58.8216L139.911 56.3587C139.741 55.9919 139.885 55.5203 140.239 55.3107L141.509 54.5771C142.243 55.9526 142.859 57.4199 143.317 58.9395V58.9526ZM142.846 65.0573C142.44 65.0573 142.086 64.7298 142.047 64.3237L141.706 61.6905C141.64 61.2844 141.902 60.8783 142.295 60.7735L143.71 60.3936C144.064 61.9001 144.274 63.4721 144.326 65.0704H142.859L142.846 65.0573ZM140.763 53.3195L139.492 54.0531C139.138 54.2496 138.654 54.1448 138.431 53.8173L136.807 51.7082C136.545 51.3938 136.571 50.9091 136.859 50.6209L137.894 49.5859C138.968 50.7388 139.937 51.9833 140.763 53.3326V53.3195ZM136.846 48.5379L135.811 49.5728C135.523 49.861 135.038 49.8742 134.724 49.6122L132.614 47.9877C132.274 47.7519 132.169 47.2803 132.366 46.9266L133.099 45.6559C134.448 46.4943 135.693 47.4506 136.846 48.5248V48.5379ZM131.828 44.9092L131.095 46.1799C130.885 46.5336 130.427 46.6777 130.06 46.5074L127.597 45.4987C127.217 45.3546 126.981 44.9223 127.086 44.5293L127.466 43.1145C128.986 43.573 130.453 44.1756 131.828 44.9223V44.9092ZM126.038 42.7215L125.658 44.1363C125.553 44.5293 125.134 44.7913 124.741 44.7258L122.108 44.3721C121.702 44.3459 121.374 43.9791 121.374 43.573V42.1057C122.973 42.1581 124.545 42.3677 126.051 42.7083L126.038 42.7215ZM119.881 42.1188V43.5861C119.881 43.9922 119.554 44.359 119.147 44.3852L116.514 44.7389C116.108 44.8044 115.702 44.5424 115.584 44.1494L115.204 42.7345C116.711 42.3808 118.283 42.1712 119.881 42.1319V42.1188ZM113.776 43.1145L114.156 44.5293C114.261 44.9223 114.038 45.3546 113.658 45.4987L111.209 46.5074C110.842 46.6908 110.37 46.5336 110.161 46.1799L109.427 44.9092C110.803 44.1756 112.257 43.573 113.789 43.1014L113.776 43.1145ZM108.13 45.6559L108.864 46.9266C109.073 47.2803 108.969 47.7519 108.628 47.9877L106.519 49.6122C106.204 49.8742 105.72 49.861 105.432 49.5728L104.397 48.5379C105.536 47.4637 106.794 46.4943 108.13 45.669V45.6559ZM103.349 49.5728L104.384 50.6078C104.672 50.896 104.685 51.3807 104.423 51.6951L102.798 53.8042C102.563 54.1448 102.091 54.2496 101.737 54.04L100.467 53.3064C101.305 51.9571 102.261 50.7126 103.336 49.5597L103.349 49.5728ZM100.48 78.2885L101.75 77.5548C102.104 77.3583 102.589 77.4631 102.812 77.8037L104.436 79.9129C104.698 80.2273 104.685 80.712 104.397 81.0002L103.362 82.0351C102.288 80.8954 101.318 79.6378 100.493 78.3015L100.48 78.2885ZM104.397 83.0831L105.432 82.0482C105.72 81.76 106.204 81.7338 106.519 81.9958L108.628 83.6202C108.956 83.856 109.073 84.3276 108.864 84.6813L108.13 85.9521C106.794 85.1137 105.536 84.1573 104.397 83.0831ZM109.414 86.6988L110.148 85.4281C110.357 85.0743 110.816 84.9302 111.196 85.1005L113.645 86.1224C114.025 86.2534 114.261 86.6988 114.143 87.0918L113.763 88.5066C112.244 88.0481 110.776 87.4324 109.401 86.6988H109.414ZM115.204 88.8865L115.584 87.4848C115.702 87.0918 116.108 86.8298 116.514 86.8953L119.147 87.2359C119.554 87.2752 119.881 87.6289 119.881 88.035V89.5022C118.283 89.4498 116.724 89.2402 115.204 88.8865ZM121.361 89.4891V88.0219C121.361 87.6158 121.689 87.2621 122.095 87.2228L124.728 86.8822C125.134 86.8036 125.54 87.0656 125.645 87.4717L126.025 88.8734C124.519 89.2271 122.96 89.4367 121.348 89.4891H121.361ZM127.466 88.4935L127.086 87.0787C126.981 86.6857 127.204 86.2534 127.597 86.1093L130.06 85.0874C130.427 84.9171 130.898 85.0612 131.095 85.415L131.828 86.6857C130.453 87.4193 128.999 88.035 127.466 88.4935ZM133.112 85.9521L132.379 84.6813C132.182 84.3276 132.287 83.8429 132.628 83.6202L134.737 81.9958C135.051 81.7338 135.536 81.7469 135.824 82.0482L136.859 83.0831C135.719 84.1573 134.462 85.1268 133.112 85.9521ZM137.894 82.0351L136.859 81.0002C136.571 80.712 136.545 80.2273 136.807 79.9129L138.431 77.8037C138.667 77.4631 139.138 77.3583 139.492 77.5548L140.763 78.2885C139.924 79.6247 138.968 80.8823 137.894 82.022V82.0351Z" fill="#1A4D2E"/>
<path d="M100.611 65.8042C100.611 54.7476 109.571 45.7871 120.628 45.7871C131.684 45.7871 140.645 54.7476 140.645 65.8042C140.645 76.8607 131.684 85.8213 120.628 85.8213C109.571 85.8213 100.611 76.8476 100.611 65.8042Z" fill="#7B8D6A"/>
<path d="M127.165 63.3153C125.789 59.6997 121.754 57.8918 118.139 59.2674C114.523 60.6429 112.715 64.6777 114.091 68.2934C115.466 71.909 119.501 73.7169 123.117 72.3413C126.733 70.9658 128.54 66.931 127.165 63.3153Z" fill="#1A4D2E"/>
<path d="M385.264 132H320.209C319.069 132 318.139 131.07 318.139 129.93C318.139 128.79 319.069 127.86 320.209 127.86H385.264C386.404 127.86 387.334 128.79 387.334 129.93C387.334 131.07 386.404 132 385.264 132Z" fill="#1B1B1B"/>
<path d="M320.222 136.926C316.358 136.926 313.227 133.795 313.227 129.93C313.227 126.066 316.358 122.935 320.222 122.935C324.087 122.935 327.218 126.066 327.218 129.93C327.218 133.795 324.087 136.926 320.222 136.926Z" fill="#7B8D6A"/>
<path d="M360.885 219.928C360.099 219.928 359.352 219.482 358.998 218.723L318.335 130.794C317.864 129.759 318.309 128.528 319.344 128.043C320.379 127.558 321.61 128.017 322.082 129.052L362.758 216.993C363.23 218.028 362.784 219.26 361.749 219.731C361.474 219.862 361.173 219.928 360.885 219.928Z" fill="#1B1B1B"/>
<path d="M367.238 214.924C368.863 218.435 367.33 222.587 363.832 224.212C360.321 225.836 356.168 224.303 354.544 220.806C352.92 217.295 354.452 213.142 357.95 211.518C361.461 209.893 365.627 211.426 367.238 214.937V214.924Z" fill="#7B8D6A"/>
<path d="M306.153 288.624C305.655 288.624 305.144 288.44 304.751 288.074L230.813 219.376C230.185 218.8 229.988 217.896 230.303 217.11C230.617 216.311 231.377 215.8 232.228 215.8H360.911C362.051 215.8 362.981 216.73 362.981 217.87C362.981 219.009 362.051 219.939 360.911 219.939H237.495L307.58 285.06C308.419 285.833 308.458 287.143 307.685 287.982C307.279 288.414 306.729 288.637 306.166 288.637L306.153 288.624Z" fill="#1B1B1B"/>
<path d="M232.215 224.852C228.351 224.852 225.22 221.721 225.22 217.857C225.22 213.992 228.351 210.861 232.215 210.861C236.08 210.861 239.211 213.992 239.211 217.857C239.211 221.721 236.08 224.852 232.215 224.852Z" fill="#1A4D2E"/>
<path d="M309.48 312.912C307.803 312.912 306.323 311.681 306.074 309.965L302.733 287.066C302.458 285.179 303.768 283.437 305.642 283.162C307.541 282.887 309.27 284.184 309.545 286.07L312.886 308.982C313.161 310.869 311.864 312.611 309.978 312.886C309.807 312.912 309.637 312.925 309.48 312.925V312.912Z" fill="#1A4D2E"/>
<path d="M168.64 59.5284C168.64 61.3362 167.159 62.8296 165.352 62.8296C163.544 62.8296 162.05 61.3493 162.05 59.5284V46.795C162.05 44.9872 163.531 43.5068 165.352 43.5068C167.159 43.5068 168.64 44.9872 168.64 46.795V59.5284Z" fill="#7B8D6A"/>
<path d="M165.351 59.4758C164.984 59.4758 164.683 59.1876 164.683 58.8208V47.5154C164.683 47.1486 164.984 46.8604 165.351 46.8604C165.718 46.8604 166.006 47.1617 166.006 47.5154V58.8208C166.006 59.1876 165.705 59.4758 165.351 59.4758Z" fill="#1B1B1B"/>
<path d="M162.823 54.2621H167.88C169.701 54.2621 171.168 55.7425 171.168 57.5503V64.1397C171.168 65.9606 169.687 67.4278 167.88 67.4278H162.823C161.002 67.4278 159.522 65.9475 159.522 64.1266V57.5372C159.522 55.7162 161.002 54.249 162.81 54.249L162.823 54.2621Z" fill="#1B1B1B"/>
<path d="M183.56 59.5284C183.56 61.3362 182.08 62.8296 180.259 62.8296C178.451 62.8296 176.971 61.3493 176.971 59.5284V46.795C176.971 44.9872 178.451 43.5068 180.259 43.5068C182.067 43.5068 183.56 44.9872 183.56 46.795V59.5284Z" fill="#93A87E"/>
<path d="M180.26 59.4758C179.893 59.4758 179.604 59.1876 179.604 58.8208V47.5154C179.604 47.1486 179.893 46.8604 180.26 46.8604C180.626 46.8604 180.915 47.1617 180.915 47.5154V58.8208C180.915 59.1876 180.626 59.4758 180.26 59.4758Z" fill="#1B1B1B"/>
<path d="M177.731 54.2617H182.788C184.609 54.2617 186.089 55.742 186.089 57.563V64.1393C186.089 65.9602 184.609 67.4405 182.788 67.4405H177.731C175.91 67.4405 174.43 65.9602 174.43 64.1393V57.5499C174.43 55.7289 175.91 54.2617 177.718 54.2617H177.731Z" fill="#1B1B1B"/>
<path d="M198.468 59.5284C198.468 61.3362 196.988 62.8296 195.167 62.8296C193.359 62.8296 191.879 61.3493 191.879 59.5284V46.795C191.879 44.9872 193.359 43.5068 195.167 43.5068C196.988 43.5068 198.468 44.9872 198.468 46.795V59.5284Z" fill="#93A87E"/>
<path d="M195.167 59.4758C194.814 59.4758 194.512 59.1876 194.512 58.8208V47.5154C194.512 47.1486 194.814 46.8604 195.167 46.8604C195.521 46.8604 195.836 47.1617 195.836 47.5154V58.8208C195.836 59.1876 195.534 59.4758 195.167 59.4758Z" fill="#1B1B1B"/>
<path d="M192.652 54.2617H197.709C199.53 54.2617 200.997 55.7289 200.997 57.5499V64.1393C200.997 65.9602 199.516 67.4274 197.709 67.4274H192.652C190.831 67.4274 189.364 65.9471 189.364 64.1393V57.5499C189.364 55.7289 190.844 54.2617 192.652 54.2617Z" fill="#1B1B1B"/>
<path d="M217.36 82.6773C212.919 82.6773 209.303 79.0748 209.303 74.6338V56.9878C209.303 52.5469 212.919 48.9443 217.36 48.9443H298.777C303.218 48.9443 306.834 52.56 306.834 56.9878V74.6338C306.834 79.0748 303.218 82.6773 298.777 82.6773H217.36Z" fill="#7B8D6A"/>
<path d="M303.965 74.6334C303.965 77.4893 301.633 79.8211 298.764 79.8211H217.347C214.491 79.8211 212.146 77.4893 212.146 74.6334V56.9875C212.146 54.1316 214.478 51.7998 217.347 51.7998H298.764C301.62 51.7998 303.965 54.1316 303.965 56.9875V74.6334Z" fill="#1A4D2E"/>
<path d="M215.591 66.1846C215.513 66.1846 215.46 66.1322 215.46 66.0536V65.5558C215.46 65.4903 215.513 65.4248 215.591 65.4248C215.67 65.4248 215.722 65.4772 215.722 65.5558V66.0536C215.722 66.1322 215.657 66.1846 215.591 66.1846Z" fill="#F6EFE5"/>
<path d="M216.285 66.1717C216.22 66.1717 216.154 66.1193 216.154 66.0407V65.5822C216.154 65.5167 216.207 65.4512 216.285 65.4512C216.364 65.4512 216.416 65.5167 216.416 65.5822V66.0407C216.416 66.1062 216.364 66.1717 216.285 66.1717Z" fill="#F6EFE5"/>
<path d="M216.993 66.2112C216.927 66.2112 216.862 66.1588 216.862 66.0802V65.5431C216.862 65.4776 216.914 65.4121 216.993 65.4121C217.071 65.4121 217.124 65.4645 217.124 65.5431V66.0802C217.124 66.1457 217.058 66.2112 216.993 66.2112Z" fill="#F6EFE5"/>
<path d="M217.7 66.2887C217.635 66.2887 217.569 66.2363 217.569 66.1577V65.4503C217.569 65.3848 217.635 65.3193 217.7 65.3193C217.766 65.3193 217.831 65.3717 217.831 65.4503V66.1577C217.831 66.2232 217.779 66.2887 217.7 66.2887Z" fill="#F6EFE5"/>
<path d="M218.395 66.4209C218.329 66.4209 218.264 66.3685 218.264 66.2899V65.3205C218.264 65.255 218.316 65.1895 218.395 65.1895C218.474 65.1895 218.526 65.2419 218.526 65.3205V66.2899C218.526 66.3554 218.474 66.4209 218.395 66.4209Z" fill="#F6EFE5"/>
<path d="M219.102 66.6047C219.037 66.6047 218.971 66.5523 218.971 66.4737V65.1505C218.971 65.0719 219.024 65.0195 219.102 65.0195C219.181 65.0195 219.233 65.0719 219.233 65.1505V66.4737C219.233 66.5392 219.181 66.6047 219.102 66.6047Z" fill="#F6EFE5"/>
<path d="M219.81 66.8259C219.744 66.8259 219.679 66.7735 219.679 66.6949V64.9132C219.679 64.8477 219.731 64.7822 219.81 64.7822C219.888 64.7822 219.941 64.8346 219.941 64.9132V66.6949C219.941 66.7604 219.888 66.8259 219.81 66.8259Z" fill="#F6EFE5"/>
<path d="M220.504 67.0881C220.425 67.0881 220.373 67.0357 220.373 66.9571V64.6515C220.373 64.586 220.425 64.5205 220.504 64.5205C220.582 64.5205 220.635 64.5729 220.635 64.6515V66.9571C220.635 67.0357 220.582 67.0881 220.504 67.0881Z" fill="#F6EFE5"/>
<path d="M221.211 67.6914C221.146 67.6914 221.08 67.6259 221.08 67.5604V64.0627C221.08 63.9971 221.146 63.9316 221.211 63.9316C221.277 63.9316 221.342 63.9971 221.342 64.0627V67.5604C221.342 67.6259 221.29 67.6914 221.211 67.6914Z" fill="#F6EFE5"/>
<path d="M221.905 68.5554C221.84 68.5554 221.774 68.503 221.774 68.4244V63.1974C221.774 63.1319 221.827 63.0664 221.905 63.0664C221.984 63.0664 222.036 63.1188 222.036 63.1974V68.4244C222.036 68.4899 221.971 68.5554 221.905 68.5554Z" fill="#F6EFE5"/>
<path d="M222.613 68.8312C222.547 68.8312 222.482 68.7788 222.482 68.7002V62.923C222.482 62.8444 222.534 62.792 222.613 62.792C222.691 62.792 222.744 62.8444 222.744 62.923V68.7002C222.744 68.7657 222.691 68.8312 222.613 68.8312Z" fill="#F6EFE5"/>
<path d="M223.32 68.6219C223.255 68.6219 223.189 68.5695 223.189 68.4909V63.133C223.189 63.0675 223.242 63.002 223.32 63.002C223.399 63.002 223.451 63.0544 223.451 63.133V68.4909C223.451 68.5564 223.386 68.6219 223.32 68.6219Z" fill="#F6EFE5"/>
<path d="M224.015 68.1234C223.936 68.1234 223.884 68.0579 223.884 67.9924V63.63C223.884 63.5645 223.936 63.499 224.015 63.499C224.094 63.499 224.146 63.5645 224.146 63.63V67.9924C224.146 68.0579 224.094 68.1234 224.015 68.1234Z" fill="#F6EFE5"/>
<path d="M224.722 67.5602C224.644 67.5602 224.591 67.5078 224.591 67.4292V64.1935C224.591 64.128 224.644 64.0625 224.722 64.0625C224.801 64.0625 224.853 64.128 224.853 64.1935V67.4292C224.853 67.4947 224.801 67.5602 224.722 67.5602Z" fill="#F6EFE5"/>
<path d="M225.416 67.2324C225.351 67.2324 225.285 67.1669 225.285 67.1014V64.5206C225.285 64.4551 225.351 64.3896 225.416 64.3896C225.482 64.3896 225.547 64.442 225.547 64.5206V67.1014C225.547 67.1669 225.495 67.2324 225.416 67.2324Z" fill="#F6EFE5"/>
<path d="M226.124 67.2845C226.058 67.2845 225.993 67.2321 225.993 67.1535V64.4679C225.993 64.4024 226.045 64.3369 226.124 64.3369C226.203 64.3369 226.255 64.3893 226.255 64.4679V67.1535C226.255 67.219 226.203 67.2845 226.124 67.2845Z" fill="#F6EFE5"/>
<path d="M226.831 67.7695C226.753 67.7695 226.7 67.704 226.7 67.6385V63.9835C226.7 63.918 226.753 63.8525 226.831 63.8525C226.897 63.8525 226.962 63.918 226.962 63.9835V67.6385C226.962 67.704 226.91 67.7695 226.831 67.7695Z" fill="#F6EFE5"/>
<path d="M227.525 68.7255C227.46 68.7255 227.394 68.6731 227.394 68.5945V63.0138C227.394 62.9483 227.46 62.8828 227.525 62.8828C227.591 62.8828 227.656 62.9483 227.656 63.0138V68.5945C227.656 68.66 227.604 68.7255 227.525 68.7255Z" fill="#F6EFE5"/>
<path d="M228.233 69.9048C228.154 69.9048 228.102 69.8524 228.102 69.7738V61.8351C228.102 61.7696 228.154 61.7041 228.233 61.7041C228.311 61.7041 228.364 61.7565 228.364 61.8351V69.7738C228.364 69.8393 228.311 69.9048 228.233 69.9048Z" fill="#F6EFE5"/>
<path d="M228.927 70.887C228.849 70.887 228.796 70.8346 228.796 70.756V60.8654C228.796 60.7999 228.849 60.7344 228.927 60.7344C229.006 60.7344 229.058 60.7868 229.058 60.8654V70.756C229.058 70.8215 228.993 70.887 228.927 70.887Z" fill="#F6EFE5"/>
<path d="M229.635 71.3194C229.569 71.3194 229.504 71.267 229.504 71.1884V60.4201C229.504 60.3415 229.556 60.2891 229.635 60.2891C229.713 60.2891 229.766 60.3415 229.766 60.4201V71.1884C229.766 71.2539 229.713 71.3194 229.635 71.3194Z" fill="#F6EFE5"/>
<path d="M230.342 69.1189C230.276 69.1189 230.211 69.0665 230.211 68.9879V62.6212C230.211 62.5557 230.276 62.4902 230.342 62.4902C230.407 62.4902 230.473 62.5426 230.473 62.6212V68.9879C230.473 69.0665 230.42 69.1189 230.342 69.1189Z" fill="#F6EFE5"/>
<path d="M231.037 67.8736C230.958 67.8736 230.906 67.8081 230.906 67.7426V63.8781C230.906 63.8126 230.958 63.7471 231.037 63.7471C231.115 63.7471 231.168 63.8126 231.168 63.8781V67.7426C231.168 67.8081 231.115 67.8736 231.037 67.8736Z" fill="#F6EFE5"/>
<path d="M231.744 67.2058C231.678 67.2058 231.613 67.1534 231.613 67.0748V64.5334C231.613 64.4679 231.665 64.4023 231.744 64.4023C231.822 64.4023 231.875 64.4679 231.875 64.5334V67.0748C231.875 67.1403 231.822 67.2058 231.744 67.2058Z" fill="#F6EFE5"/>
<path d="M232.438 66.8259C232.372 66.8259 232.307 66.7735 232.307 66.6949V64.9132C232.307 64.8477 232.359 64.7822 232.438 64.7822C232.516 64.7822 232.569 64.8346 232.569 64.9132V66.6949C232.569 66.7604 232.516 66.8259 232.438 66.8259Z" fill="#F6EFE5"/>
<path d="M233.145 66.4995C233.067 66.4995 233.014 66.4471 233.014 66.3685V65.255C233.014 65.1895 233.067 65.124 233.145 65.124C233.224 65.124 233.276 65.1895 233.276 65.255V66.3685C233.276 66.4471 233.211 66.4995 233.145 66.4995Z" fill="#F6EFE5"/>
<path d="M233.84 66.3549C233.774 66.3549 233.709 66.2894 233.709 66.2239V65.3986C233.709 65.32 233.761 65.2676 233.84 65.2676C233.919 65.2676 233.971 65.32 233.971 65.3986V66.2239C233.971 66.2894 233.919 66.3549 233.84 66.3549Z" fill="#F6EFE5"/>
<path d="M234.547 66.486C234.469 66.486 234.417 66.4336 234.417 66.355V65.2677C234.417 65.2022 234.469 65.1367 234.547 65.1367C234.626 65.1367 234.679 65.1891 234.679 65.2677V66.355C234.679 66.4205 234.626 66.486 234.547 66.486Z" fill="#F6EFE5"/>
<path d="M235.242 66.8795C235.176 66.8795 235.111 66.8271 235.111 66.7485V64.8751C235.111 64.8096 235.163 64.7441 235.242 64.7441C235.32 64.7441 235.373 64.7965 235.373 64.8751V66.7485C235.373 66.814 235.32 66.8795 235.242 66.8795Z" fill="#F6EFE5"/>
<path d="M235.949 68.2015C235.871 68.2015 235.818 68.1491 235.818 68.0705V63.5509C235.818 63.4854 235.871 63.4199 235.949 63.4199C236.015 63.4199 236.08 63.4723 236.08 63.5509V68.0705C236.08 68.136 236.015 68.2015 235.949 68.2015Z" fill="#F6EFE5"/>
<path d="M236.656 70.4554C236.591 70.4554 236.525 70.403 236.525 70.3244V61.2853C236.525 61.2198 236.578 61.1543 236.656 61.1543C236.735 61.1543 236.787 61.2067 236.787 61.2853V70.3244C236.787 70.3899 236.735 70.4554 236.656 70.4554Z" fill="#F6EFE5"/>
<path d="M237.35 72.5377C237.285 72.5377 237.219 72.4853 237.219 72.4067V59.1886C237.219 59.1231 237.272 59.0576 237.35 59.0576C237.429 59.0576 237.481 59.11 237.481 59.1886V72.4067C237.481 72.4722 237.429 72.5377 237.35 72.5377Z" fill="#F6EFE5"/>
<path d="M238.058 73.4418C237.993 73.4418 237.927 73.3894 237.927 73.3108V58.298C237.927 58.2194 237.979 58.167 238.058 58.167C238.137 58.167 238.189 58.2194 238.189 58.298V73.3108C238.189 73.3894 238.137 73.4418 238.058 73.4418Z" fill="#F6EFE5"/>
<path d="M238.766 70.4169C238.7 70.4169 238.635 70.3645 238.635 70.2859V61.3253C238.635 61.2598 238.687 61.1943 238.766 61.1943C238.844 61.1943 238.897 61.2598 238.897 61.3253V70.2859C238.897 70.3645 238.844 70.4169 238.766 70.4169Z" fill="#F6EFE5"/>
<path d="M239.46 66.6297C239.395 66.6297 239.329 66.5773 239.329 66.4987V65.1232C239.329 65.0577 239.381 64.9922 239.46 64.9922C239.539 64.9922 239.591 65.0446 239.591 65.1232V66.4987C239.591 66.5773 239.539 66.6297 239.46 66.6297Z" fill="#F6EFE5"/>
<path d="M240.167 66.3804C240.101 66.3804 240.036 66.328 240.036 66.2494V65.3585C240.036 65.293 240.088 65.2275 240.167 65.2275C240.245 65.2275 240.298 65.2799 240.298 65.3585V66.2494C240.298 66.328 240.245 66.3804 240.167 66.3804Z" fill="#F6EFE5"/>
<path d="M240.861 66.6552C240.796 66.6552 240.73 66.6028 240.73 66.5242V65.0831C240.73 65.0045 240.783 64.9521 240.861 64.9521C240.94 64.9521 240.992 65.0045 240.992 65.0831V66.5242C240.992 66.5897 240.927 66.6552 240.861 66.6552Z" fill="#F6EFE5"/>
<path d="M241.569 67.0235C241.503 67.0235 241.438 66.9712 241.438 66.8925V64.7179C241.438 64.6524 241.49 64.5869 241.569 64.5869C241.648 64.5869 241.7 64.6524 241.7 64.7179V66.8925C241.7 66.9581 241.648 67.0235 241.569 67.0235Z" fill="#F6EFE5"/>
<path d="M242.277 67.4685C242.211 67.4685 242.146 67.4161 242.146 67.3375V64.2589C242.146 64.1934 242.198 64.1279 242.277 64.1279C242.355 64.1279 242.408 64.1803 242.408 64.2589V67.3375C242.408 67.403 242.355 67.4685 242.277 67.4685Z" fill="#F6EFE5"/>
<path d="M242.971 67.8736C242.892 67.8736 242.84 67.8081 242.84 67.7426V63.8781C242.84 63.8126 242.892 63.7471 242.971 63.7471C243.049 63.7471 243.102 63.7995 243.102 63.8781V67.7426C243.102 67.8081 243.049 67.8736 242.971 67.8736Z" fill="#F6EFE5"/>
<path d="M243.678 67.1281C243.6 67.1281 243.547 67.0626 243.547 66.9971V64.5997C243.547 64.5342 243.6 64.4688 243.678 64.4688C243.757 64.4688 243.809 64.5211 243.809 64.5997V66.9971C243.809 67.0626 243.757 67.1281 243.678 67.1281Z" fill="#F6EFE5"/>
<path d="M244.373 66.7603C244.307 66.7603 244.242 66.7079 244.242 66.6293V64.9787C244.242 64.9001 244.294 64.8477 244.373 64.8477C244.451 64.8477 244.504 64.9001 244.504 64.9787V66.6293C244.504 66.6948 244.451 66.7603 244.373 66.7603Z" fill="#F6EFE5"/>
<path d="M245.079 66.4074C245.014 66.4074 244.948 66.355 244.948 66.2764V65.3332C244.948 65.2677 245.001 65.2021 245.079 65.2021C245.158 65.2021 245.21 65.2546 245.21 65.3332V66.2764C245.21 66.3419 245.158 66.4074 245.079 66.4074Z" fill="#F6EFE5"/>
<path d="M245.774 66.3549C245.709 66.3549 245.643 66.3025 245.643 66.2239V65.3986C245.643 65.32 245.695 65.2676 245.774 65.2676C245.853 65.2676 245.905 65.32 245.905 65.3986V66.2239C245.905 66.3025 245.853 66.3549 245.774 66.3549Z" fill="#F6EFE5"/>
<path d="M246.482 66.7217C246.416 66.7217 246.351 66.6693 246.351 66.5907V65.0187C246.351 64.9401 246.403 64.8877 246.482 64.8877C246.56 64.8877 246.613 64.9401 246.613 65.0187V66.5907C246.613 66.6562 246.56 66.7217 246.482 66.7217Z" fill="#F6EFE5"/>
<path d="M247.189 67.5072C247.124 67.5072 247.058 67.4548 247.058 67.3762V64.2453C247.058 64.1798 247.111 64.1143 247.189 64.1143C247.268 64.1143 247.32 64.1667 247.32 64.2453V67.3762C247.32 67.4548 247.268 67.5072 247.189 67.5072Z" fill="#F6EFE5"/>
<path d="M247.883 68.6474C247.805 68.6474 247.752 68.595 247.752 68.5164V63.0929C247.752 63.0274 247.805 62.9619 247.883 62.9619C247.962 62.9619 248.014 63.0143 248.014 63.0929V68.5164C248.014 68.5819 247.962 68.6474 247.883 68.6474Z" fill="#F6EFE5"/>
<path d="M248.59 69.8659C248.525 69.8659 248.459 69.8003 248.459 69.7348V61.8878C248.459 61.8223 248.512 61.7568 248.59 61.7568C248.669 61.7568 248.721 61.8092 248.721 61.8878V69.7348C248.721 69.8003 248.669 69.8659 248.59 69.8659Z" fill="#F6EFE5"/>
<path d="M249.285 70.7968C249.22 70.7968 249.154 70.7444 249.154 70.6658V60.9455C249.154 60.8669 249.207 60.8145 249.285 60.8145C249.364 60.8145 249.416 60.8669 249.416 60.9455V70.6658C249.416 70.7313 249.364 70.7968 249.285 70.7968Z" fill="#F6EFE5"/>
<path d="M249.992 71.1883C249.913 71.1883 249.861 71.1228 249.861 71.0573V60.5509C249.861 60.4854 249.913 60.4199 249.992 60.4199C250.071 60.4199 250.123 60.4723 250.123 60.5509V71.0573C250.123 71.1228 250.071 71.1883 249.992 71.1883Z" fill="#F6EFE5"/>
<path d="M250.7 68.7916C250.634 68.7916 250.569 68.7392 250.569 68.6606V62.9621C250.569 62.8966 250.621 62.8311 250.7 62.8311C250.778 62.8311 250.831 62.8835 250.831 62.9621V68.6606C250.831 68.7261 250.778 68.7916 250.7 68.7916Z" fill="#F6EFE5"/>
<path d="M251.394 70.9135C251.329 70.9135 251.263 70.8611 251.263 70.7825V60.8263C251.263 60.7608 251.316 60.6953 251.394 60.6953C251.473 60.6953 251.525 60.7477 251.525 60.8263V70.7825C251.525 70.848 251.473 70.9135 251.394 70.9135Z" fill="#F6EFE5"/>
<path d="M252.102 74.2668C252.036 74.2668 251.971 74.2144 251.971 74.1358V57.4855C251.971 57.4069 252.023 57.3545 252.102 57.3545C252.18 57.3545 252.233 57.4069 252.233 57.4855V74.1358C252.233 74.2144 252.18 74.2668 252.102 74.2668Z" fill="#F6EFE5"/>
<path d="M252.796 75.6298C252.73 75.6298 252.665 75.5774 252.665 75.4988V56.1105C252.665 56.0319 252.717 55.9795 252.796 55.9795C252.874 55.9795 252.927 56.0319 252.927 56.1105V75.4988C252.927 75.5643 252.874 75.6298 252.796 75.6298Z" fill="#F6EFE5"/>
<path d="M253.503 74.8834C253.424 74.8834 253.372 74.831 253.372 74.7524V56.8576C253.372 56.7921 253.424 56.7266 253.503 56.7266C253.582 56.7266 253.634 56.779 253.634 56.8576V74.7524C253.634 74.831 253.582 74.8834 253.503 74.8834Z" fill="#F6EFE5"/>
<path d="M254.211 72.8002C254.145 72.8002 254.08 72.7478 254.08 72.6692V58.9533C254.08 58.8747 254.132 58.8223 254.211 58.8223C254.289 58.8223 254.342 58.8747 254.342 58.9533V72.6692C254.342 72.7347 254.289 72.8002 254.211 72.8002Z" fill="#F6EFE5"/>
<path d="M254.905 70.089C254.826 70.089 254.774 70.0366 254.774 69.958V61.6525C254.774 61.587 254.826 61.5215 254.905 61.5215C254.97 61.5215 255.036 61.5739 255.036 61.6525V69.958C255.036 70.0235 254.983 70.089 254.905 70.089Z" fill="#F6EFE5"/>
<path d="M255.612 67.3109C255.547 67.3109 255.481 67.2585 255.481 67.1799V64.4289C255.481 64.3634 255.547 64.2979 255.612 64.2979C255.678 64.2979 255.743 64.3503 255.743 64.4289V67.1799C255.743 67.2454 255.691 67.3109 255.612 67.3109Z" fill="#F6EFE5"/>
<path d="M256.307 67.6648C256.241 67.6648 256.176 67.6124 256.176 67.5338V64.0753C256.176 64.0098 256.228 63.9443 256.307 63.9443C256.385 63.9443 256.438 63.9967 256.438 64.0753V67.5338C256.438 67.5993 256.385 67.6648 256.307 67.6648Z" fill="#F6EFE5"/>
<path d="M257.014 68.6339C256.936 68.6339 256.883 68.5815 256.883 68.5029V63.1056C256.883 63.0401 256.936 62.9746 257.014 62.9746C257.093 62.9746 257.145 63.027 257.145 63.1056V68.5029C257.145 68.5815 257.093 68.6339 257.014 68.6339Z" fill="#F6EFE5"/>
<path d="M257.722 69.1455C257.643 69.1455 257.591 69.0931 257.591 69.0145V62.6085C257.591 62.543 257.643 62.4775 257.722 62.4775C257.8 62.4775 257.853 62.5299 257.853 62.6085V69.0145C257.853 69.08 257.8 69.1455 257.722 69.1455Z" fill="#F6EFE5"/>
<path d="M258.416 68.8967C258.337 68.8967 258.285 68.8443 258.285 68.7657V62.8576C258.285 62.7921 258.337 62.7266 258.416 62.7266C258.494 62.7266 258.547 62.779 258.547 62.8576V68.7657C258.547 68.8312 258.494 68.8967 258.416 68.8967Z" fill="#F6EFE5"/>
<path d="M259.123 68.0312C259.058 68.0312 258.992 67.9788 258.992 67.9002V63.7081C258.992 63.6426 259.045 63.5771 259.123 63.5771C259.202 63.5771 259.254 63.6295 259.254 63.7081V67.9002C259.254 67.9788 259.202 68.0312 259.123 68.0312Z" fill="#F6EFE5"/>
<path d="M259.817 67.1142C259.739 67.1142 259.686 67.0487 259.686 66.9832V64.6252C259.686 64.5596 259.739 64.4941 259.817 64.4941C259.896 64.4941 259.948 64.5596 259.948 64.6252V66.9832C259.948 67.0487 259.896 67.1142 259.817 67.1142Z" fill="#F6EFE5"/>
<path d="M260.525 66.7738C260.459 66.7738 260.394 66.7214 260.394 66.6428V64.966C260.394 64.9005 260.459 64.835 260.525 64.835C260.59 64.835 260.656 64.8874 260.656 64.966V66.6428C260.656 66.7083 260.603 66.7738 260.525 66.7738Z" fill="#F6EFE5"/>
<path d="M261.219 67.4416C261.154 67.4416 261.088 67.3892 261.088 67.3106V64.3107C261.088 64.2452 261.141 64.1797 261.219 64.1797C261.298 64.1797 261.35 64.2452 261.35 64.3107V67.3106C261.35 67.3761 261.298 67.4416 261.219 67.4416Z" fill="#F6EFE5"/>
<path d="M261.927 68.8312C261.848 68.8312 261.796 68.7788 261.796 68.7002V62.923C261.796 62.8575 261.848 62.792 261.927 62.792C262.006 62.792 262.058 62.8444 262.058 62.923V68.7002C262.058 68.7657 262.006 68.8312 261.927 68.8312Z" fill="#F6EFE5"/>
<path d="M262.634 69.2892C262.569 69.2892 262.503 69.2368 262.503 69.1582V62.464C262.503 62.3854 262.556 62.333 262.634 62.333C262.713 62.333 262.765 62.3854 262.765 62.464V69.1582C262.765 69.2368 262.713 69.2892 262.634 69.2892Z" fill="#F6EFE5"/>
<path d="M263.328 67.9267C263.263 67.9267 263.197 67.8743 263.197 67.7957V63.8263C263.197 63.7608 263.25 63.6953 263.328 63.6953C263.407 63.6953 263.459 63.7477 263.459 63.8263V67.7957C263.459 67.8612 263.394 67.9267 263.328 67.9267Z" fill="#F6EFE5"/>
<path d="M264.036 66.4328C263.957 66.4328 263.905 66.3804 263.905 66.3018V65.2931C263.905 65.2276 263.957 65.1621 264.036 65.1621C264.114 65.1621 264.167 65.2145 264.167 65.2931V66.3018C264.167 66.3673 264.114 66.4328 264.036 66.4328Z" fill="#F6EFE5"/>
<path d="M264.73 66.2762C264.651 66.2762 264.599 66.2107 264.599 66.1452V65.464C264.599 65.3985 264.651 65.333 264.73 65.333C264.808 65.333 264.861 65.3985 264.861 65.464V66.1452C264.861 66.2107 264.795 66.2762 264.73 66.2762Z" fill="#F6EFE5"/>
<path d="M265.437 66.1711C265.372 66.1711 265.306 66.1187 265.306 66.0401V65.5685C265.306 65.503 265.359 65.4375 265.437 65.4375C265.516 65.4375 265.568 65.4899 265.568 65.5685V66.0401C265.568 66.1056 265.516 66.1711 265.437 66.1711Z" fill="#F6EFE5"/>
<path d="M266.145 66.1321C266.079 66.1321 266.014 66.0797 266.014 66.0011V65.6212C266.014 65.5426 266.066 65.4902 266.145 65.4902C266.223 65.4902 266.276 65.5426 266.276 65.6212V66.0011C266.276 66.0797 266.223 66.1321 266.145 66.1321Z" fill="#F6EFE5"/>
<path d="M266.839 66.158C266.774 66.158 266.708 66.1056 266.708 66.027V65.5685C266.708 65.503 266.761 65.4375 266.839 65.4375C266.918 65.4375 266.97 65.4899 266.97 65.5685V66.027C266.97 66.0925 266.918 66.158 266.839 66.158Z" fill="#F6EFE5"/>
<path d="M267.547 66.3023C267.468 66.3023 267.416 66.2499 267.416 66.1713V65.4376C267.416 65.3721 267.468 65.3066 267.547 65.3066C267.625 65.3066 267.678 65.359 267.678 65.4376V66.1713C267.678 66.2368 267.625 66.3023 267.547 66.3023Z" fill="#F6EFE5"/>
<path d="M268.241 66.551C268.175 66.551 268.11 66.4986 268.11 66.42V65.1886C268.11 65.1231 268.162 65.0576 268.241 65.0576C268.319 65.0576 268.372 65.11 268.372 65.1886V66.42C268.372 66.4855 268.319 66.551 268.241 66.551Z" fill="#F6EFE5"/>
<path d="M268.948 66.8783C268.87 66.8783 268.817 66.8259 268.817 66.7473V64.8478C268.817 64.7823 268.87 64.7168 268.948 64.7168C269.027 64.7168 269.079 64.7692 269.079 64.8478V66.7473C269.079 66.8128 269.027 66.8783 268.948 66.8783Z" fill="#F6EFE5"/>
<path d="M269.656 67.2845C269.577 67.2845 269.525 67.2321 269.525 67.1535V64.4679C269.525 64.4024 269.577 64.3369 269.656 64.3369C269.734 64.3369 269.787 64.3893 269.787 64.4679V67.1535C269.787 67.219 269.734 67.2845 269.656 67.2845Z" fill="#F6EFE5"/>
<path d="M270.35 68.8701C270.284 68.8701 270.219 68.8177 270.219 68.7391V62.8703C270.219 62.8048 270.284 62.7393 270.35 62.7393C270.415 62.7393 270.481 62.7917 270.481 62.8703V68.7391C270.481 68.8046 270.428 68.8701 270.35 68.8701Z" fill="#F6EFE5"/>
<path d="M271.057 70.547C270.992 70.547 270.926 70.4815 270.926 70.416V61.1935C270.926 61.128 270.979 61.0625 271.057 61.0625C271.136 61.0625 271.188 61.1149 271.188 61.1935V70.416C271.188 70.4815 271.123 70.547 271.057 70.547Z" fill="#F6EFE5"/>
<path d="M271.752 69.9579C271.686 69.9579 271.621 69.9055 271.621 69.8269V61.7833C271.621 61.7047 271.673 61.6523 271.752 61.6523C271.83 61.6523 271.883 61.7047 271.883 61.7833V69.8269C271.883 69.9055 271.83 69.9579 271.752 69.9579Z" fill="#F6EFE5"/>
<path d="M272.459 68.2023C272.394 68.2023 272.328 68.1499 272.328 68.0713V63.5255C272.328 63.46 272.381 63.3945 272.459 63.3945C272.538 63.3945 272.59 63.46 272.59 63.5255V68.0713C272.59 68.1368 272.538 68.2023 272.459 68.2023Z" fill="#F6EFE5"/>
<path d="M273.153 67.6648C273.088 67.6648 273.022 67.6124 273.022 67.5338V64.0753C273.022 64.0098 273.075 63.9443 273.153 63.9443C273.232 63.9443 273.284 63.9967 273.284 64.0753V67.5338C273.284 67.5993 273.232 67.6648 273.153 67.6648Z" fill="#F6EFE5"/>
<path d="M273.861 69.63C273.782 69.63 273.73 69.5645 273.73 69.499V62.1105C273.73 62.0319 273.782 61.9795 273.861 61.9795C273.94 61.9795 273.992 62.0319 273.992 62.1105V69.499C273.992 69.5645 273.94 69.63 273.861 69.63Z" fill="#F6EFE5"/>
<path d="M274.568 73.1936C274.503 73.1936 274.437 73.1412 274.437 73.0626V58.5607C274.437 58.4952 274.49 58.4297 274.568 58.4297C274.647 58.4297 274.699 58.4821 274.699 58.5607V73.0626C274.699 73.1281 274.647 73.1936 274.568 73.1936Z" fill="#F6EFE5"/>
<path d="M275.262 74.3854C275.197 74.3854 275.131 74.333 275.131 74.2544V57.3683C275.131 57.3028 275.184 57.2373 275.262 57.2373C275.341 57.2373 275.393 57.2897 275.393 57.3683V74.2544C275.393 74.3199 275.341 74.3854 275.262 74.3854Z" fill="#F6EFE5"/>
<path d="M275.97 73.141C275.891 73.141 275.839 73.0886 275.839 73.01V58.5997C275.839 58.5342 275.891 58.4688 275.97 58.4688C276.048 58.4688 276.101 58.5211 276.101 58.5997V73.01C276.101 73.0755 276.048 73.141 275.97 73.141Z" fill="#F6EFE5"/>
<path d="M276.677 70.4419C276.612 70.4419 276.546 70.3895 276.546 70.3109V61.298C276.546 61.2325 276.612 61.167 276.677 61.167C276.743 61.167 276.808 61.2194 276.808 61.298V70.3109C276.808 70.3764 276.756 70.4419 276.677 70.4419Z" fill="#F6EFE5"/>
<path d="M277.372 67.7435C277.306 67.7435 277.241 67.6911 277.241 67.6125V64.0099C277.241 63.9444 277.306 63.8789 277.372 63.8789C277.437 63.8789 277.503 63.9313 277.503 64.0099V67.6125C277.503 67.678 277.451 67.7435 277.372 67.7435Z" fill="#F6EFE5"/>
<path d="M278.079 66.4729C278.001 66.4729 277.948 66.4205 277.948 66.3419V65.2677C277.948 65.2022 278.001 65.1367 278.079 65.1367C278.145 65.1367 278.21 65.1891 278.21 65.2677V66.3419C278.21 66.4074 278.145 66.4729 278.079 66.4729Z" fill="#F6EFE5"/>
<path d="M278.773 66.4455C278.695 66.4455 278.642 66.3931 278.642 66.3145V65.3058C278.642 65.2403 278.695 65.1748 278.773 65.1748C278.852 65.1748 278.904 65.2272 278.904 65.3058V66.3145C278.904 66.38 278.852 66.4455 278.773 66.4455Z" fill="#F6EFE5"/>
<path d="M279.481 66.8918C279.402 66.8918 279.35 66.8394 279.35 66.7608V64.8351C279.35 64.7696 279.402 64.7041 279.481 64.7041C279.559 64.7041 279.612 64.7565 279.612 64.8351V66.7608C279.612 66.8263 279.559 66.8918 279.481 66.8918Z" fill="#F6EFE5"/>
<path d="M280.175 67.7699C280.109 67.7699 280.044 67.7175 280.044 67.6389V63.9709C280.044 63.8923 280.109 63.8398 280.175 63.8398C280.24 63.8398 280.306 63.8923 280.306 63.9709V67.6389C280.306 67.7175 280.24 67.7699 280.175 67.7699Z" fill="#F6EFE5"/>
<path d="M280.882 68.7911C280.804 68.7911 280.751 68.7387 280.751 68.6601V62.9484C280.751 62.8698 280.804 62.8174 280.882 62.8174C280.961 62.8174 281.013 62.8698 281.013 62.9484V68.6601C281.013 68.7256 280.961 68.7911 280.882 68.7911Z" fill="#F6EFE5"/>
<path d="M281.59 69.642C281.524 69.642 281.459 69.5896 281.459 69.511V62.0831C281.459 62.0176 281.524 61.9521 281.59 61.9521C281.655 61.9521 281.721 62.0176 281.721 62.0831V69.511C281.721 69.5765 281.669 69.642 281.59 69.642Z" fill="#F6EFE5"/>
<path d="M282.285 69.8528C282.219 69.8528 282.154 69.8004 282.154 69.7218V61.8878C282.154 61.8223 282.206 61.7568 282.285 61.7568C282.363 61.7568 282.416 61.8223 282.416 61.8878V69.7218C282.416 69.7873 282.363 69.8528 282.285 69.8528Z" fill="#F6EFE5"/>
<path d="M282.992 68.1629C282.927 68.1629 282.861 68.1105 282.861 68.0319V63.591C282.861 63.5255 282.927 63.46 282.992 63.46C283.058 63.46 283.123 63.5124 283.123 63.591V68.0319C283.123 68.0974 283.071 68.1629 282.992 68.1629Z" fill="#F6EFE5"/>
<path d="M283.699 67.469C283.62 67.469 283.568 67.4036 283.568 67.338V64.2726C283.568 64.2071 283.62 64.1416 283.699 64.1416C283.777 64.1416 283.83 64.194 283.83 64.2726V67.338C283.83 67.4036 283.777 67.469 283.699 67.469Z" fill="#F6EFE5"/>
<path d="M284.393 67.0235C284.328 67.0235 284.262 66.9581 284.262 66.8925V64.7179C284.262 64.6393 284.328 64.5869 284.393 64.5869C284.459 64.5869 284.524 64.6393 284.524 64.7179V66.8925C284.524 66.9581 284.459 67.0235 284.393 67.0235Z" fill="#F6EFE5"/>
<path d="M285.101 66.8008C285.035 66.8008 284.97 66.7484 284.97 66.6698V64.9406C284.97 64.862 285.022 64.8096 285.101 64.8096C285.18 64.8096 285.232 64.862 285.232 64.9406V66.6698C285.232 66.7484 285.18 66.8008 285.101 66.8008Z" fill="#F6EFE5"/>
<path d="M285.795 66.9576C285.73 66.9576 285.664 66.9052 285.664 66.8266V64.796C285.664 64.7174 285.73 64.665 285.795 64.665C285.861 64.665 285.926 64.7174 285.926 64.796V66.8266C285.926 66.8921 285.861 66.9576 285.795 66.9576Z" fill="#F6EFE5"/>
<path d="M286.502 67.4947C286.437 67.4947 286.371 67.4423 286.371 67.3637V64.2589C286.371 64.1934 286.437 64.1279 286.502 64.1279C286.568 64.1279 286.633 64.1803 286.633 64.2589V67.3637C286.633 67.4292 286.581 67.4947 286.502 67.4947Z" fill="#F6EFE5"/>
<path d="M287.197 67.7564C287.119 67.7564 287.066 67.704 287.066 67.6254V63.9835C287.066 63.918 287.119 63.8525 287.197 63.8525C287.263 63.8525 287.328 63.9049 287.328 63.9835V67.6254C287.328 67.6909 287.263 67.7564 287.197 67.7564Z" fill="#F6EFE5"/>
<path d="M287.904 67.01C287.826 67.01 287.773 66.9576 287.773 66.879V64.7306C287.773 64.6651 287.826 64.5996 287.904 64.5996C287.983 64.5996 288.035 64.652 288.035 64.7306V66.879C288.035 66.9576 287.983 67.01 287.904 67.01Z" fill="#F6EFE5"/>
<path d="M288.611 66.6047C288.533 66.6047 288.48 66.5392 288.48 66.4737V65.1505C288.48 65.085 288.533 65.0195 288.611 65.0195C288.69 65.0195 288.742 65.0719 288.742 65.1505V66.4737C288.742 66.5392 288.69 66.6047 288.611 66.6047Z" fill="#F6EFE5"/>
<path d="M289.306 69.0138C289.241 69.0138 289.175 68.9614 289.175 68.8828V62.7257C289.175 62.6602 289.227 62.5947 289.306 62.5947C289.385 62.5947 289.437 62.6602 289.437 62.7257V68.8828C289.437 68.9614 289.385 69.0138 289.306 69.0138Z" fill="#F6EFE5"/>
<path d="M290.014 71.4126C289.935 71.4126 289.883 71.3602 289.883 71.2816V60.3429C289.883 60.2774 289.935 60.2119 290.014 60.2119C290.092 60.2119 290.145 60.2643 290.145 60.3429V71.2816C290.145 71.3471 290.092 71.4126 290.014 71.4126Z" fill="#F6EFE5"/>
<path d="M290.708 70.7829C290.642 70.7829 290.577 70.7305 290.577 70.6519V60.9708C290.577 60.9053 290.629 60.8398 290.708 60.8398C290.786 60.8398 290.839 60.8922 290.839 60.9708V70.6519C290.839 70.7305 290.773 70.7829 290.708 70.7829Z" fill="#F6EFE5"/>
<path d="M291.415 68.7386C291.349 68.7386 291.284 68.6731 291.284 68.6076V63.0138C291.284 62.9483 291.349 62.8828 291.415 62.8828C291.494 62.8828 291.546 62.9352 291.546 63.0138V68.6076C291.546 68.6731 291.494 68.7386 291.415 68.7386Z" fill="#F6EFE5"/>
<path d="M292.122 67.3499C292.044 67.3499 291.991 67.2975 291.991 67.2189V64.3761C291.991 64.3106 292.044 64.2451 292.122 64.2451C292.201 64.2451 292.253 64.3106 292.253 64.3761V67.2189C292.253 67.2844 292.201 67.3499 292.122 67.3499Z" fill="#F6EFE5"/>
<path d="M292.817 66.8918C292.752 66.8918 292.686 66.8394 292.686 66.7608V64.8351C292.686 64.7696 292.738 64.7041 292.817 64.7041C292.896 64.7041 292.948 64.7565 292.948 64.8351V66.7608C292.948 66.8263 292.896 66.8918 292.817 66.8918Z" fill="#F6EFE5"/>
<path d="M293.525 66.6031C293.459 66.6031 293.394 66.5507 293.394 66.4721V65.1359C293.394 65.0704 293.446 65.0049 293.525 65.0049C293.603 65.0049 293.656 65.0573 293.656 65.1359V66.4721C293.656 66.5507 293.59 66.6031 293.525 66.6031Z" fill="#F6EFE5"/>
<path d="M294.219 66.4984C294.153 66.4984 294.088 66.446 294.088 66.3674V65.2277C294.088 65.1622 294.14 65.0967 294.219 65.0967C294.297 65.0967 294.35 65.1491 294.35 65.2277V66.3674C294.35 66.4329 294.297 66.4984 294.219 66.4984Z" fill="#F6EFE5"/>
<path d="M294.926 66.5645C294.848 66.5645 294.795 66.5121 294.795 66.4335V65.1759C294.795 65.0973 294.848 65.0449 294.926 65.0449C295.005 65.0449 295.057 65.0973 295.057 65.1759V66.4335C295.057 66.5121 294.992 66.5645 294.926 66.5645Z" fill="#F6EFE5"/>
<path d="M295.633 66.6953C295.568 66.6953 295.502 66.6429 295.502 66.5643V65.0578C295.502 64.9923 295.555 64.9268 295.633 64.9268C295.712 64.9268 295.764 64.9923 295.764 65.0578V66.5643C295.764 66.6298 295.712 66.6953 295.633 66.6953Z" fill="#F6EFE5"/>
<path d="M296.328 66.839C296.249 66.839 296.197 66.7866 296.197 66.708V64.9132C296.197 64.8477 296.249 64.7822 296.328 64.7822C296.406 64.7822 296.459 64.8346 296.459 64.9132V66.708C296.459 66.7735 296.406 66.839 296.328 66.839Z" fill="#F6EFE5"/>
<path d="M297.035 67.7703C296.97 67.7703 296.904 67.7179 296.904 67.6393V63.9581C296.904 63.8926 296.956 63.8271 297.035 63.8271C297.114 63.8271 297.166 63.8795 297.166 63.9581V67.6393C297.166 67.7048 297.101 67.7703 297.035 67.7703Z" fill="#F6EFE5"/>
<path d="M297.73 68.2675C297.664 68.2675 297.599 68.2151 297.599 68.1365V63.4728C297.599 63.4073 297.664 63.3418 297.73 63.3418C297.795 63.3418 297.861 63.3942 297.861 63.4728V68.1365C297.861 68.202 297.808 68.2675 297.73 68.2675Z" fill="#F6EFE5"/>
<path d="M298.437 67.2845C298.372 67.2845 298.306 67.2321 298.306 67.1535V64.4679C298.306 64.4024 298.359 64.3369 298.437 64.3369C298.516 64.3369 298.568 64.3893 298.568 64.4679V67.1535C298.568 67.219 298.516 67.2845 298.437 67.2845Z" fill="#F6EFE5"/>
<path d="M299.131 66.892C299.066 66.892 299 66.8396 299 66.761V64.8615C299 64.7829 299.053 64.7305 299.131 64.7305C299.21 64.7305 299.262 64.7829 299.262 64.8615V66.761C299.262 66.8265 299.21 66.892 299.131 66.892Z" fill="#F6EFE5"/>
<path d="M299.839 66.6436C299.773 66.6436 299.708 66.5912 299.708 66.5126V65.0978C299.708 65.0192 299.76 64.9668 299.839 64.9668C299.917 64.9668 299.97 65.0192 299.97 65.0978V66.5126C299.97 66.5912 299.917 66.6436 299.839 66.6436Z" fill="#F6EFE5"/>
<path d="M300.546 66.2502C300.481 66.2502 300.415 66.1847 300.415 66.1192V65.4904C300.415 65.4249 300.467 65.3594 300.546 65.3594C300.625 65.3594 300.677 65.4118 300.677 65.4904V66.1192C300.677 66.1847 300.625 66.2502 300.546 66.2502Z" fill="#F6EFE5"/>
<path d="M302.262 282.743C302.904 284.381 304.528 285.258 305.72 286.437C306.48 287.184 307.148 288.167 307.122 289.28C307.096 290.21 306.611 291.062 306.572 291.992C306.506 293.42 307.096 294.887 308.157 295.856C309.388 296.97 311.104 297.337 312.69 297.612C314.759 297.979 316.869 298.227 318.952 298.529C318.781 297.009 319.724 293.983 319.607 293.957C318.441 293.721 317.314 293.407 316.214 292.935C315.139 292.476 313.305 291.821 313.03 290.538C312.808 289.542 312.873 288.507 312.624 287.511C312.415 286.712 312.074 285.953 311.524 285.337C310.528 284.197 309.035 283.66 307.672 283.084C306.69 282.664 305.76 282.167 304.843 281.603C304.345 281.289 303.716 280.673 303.087 280.621C301.895 280.503 301.987 282.009 302.275 282.756L302.262 282.743Z" fill="#FFA18A"/>
<path d="M313.777 302.106C319.947 303.298 326.117 304.49 332.34 305.407C337.2 306.114 342.125 306.311 347.038 306.075C352.671 305.8 358.501 305.197 363.754 302.931C367.592 301.28 371.077 298.673 373.422 295.189C375.505 292.071 367.147 280.818 363.269 282.102C358.461 283.7 354.479 286.922 350.038 289.254C344.994 291.9 339.911 292.87 339.911 292.87C330.702 291.429 321.335 293.302 315.702 291.783C314.104 295.896 314.065 297.717 313.79 302.119L313.777 302.106Z" fill="#A7B897"/>
<path d="M457.827 429.964C459.923 429.558 461.652 428.274 463.42 427.148C465.608 425.772 467.966 424.711 470.416 423.899C473.625 422.838 478.97 422.156 479.075 417.742C479.167 413.851 474.569 412.436 473.442 409.122C473.56 408.768 462.163 413.419 462.215 413.589C462.503 414.611 463.001 415.999 462.294 416.864C458.18 421.829 453.582 425.222 452.993 426.597C451.958 428.995 454.565 430.593 457.84 429.951L457.827 429.964Z" fill="black"/>
<path d="M382.618 428.091C384.662 427.475 386.26 426.034 387.911 424.75C389.954 423.165 392.194 421.881 394.539 420.833C397.631 419.458 402.884 418.266 402.557 413.851C402.282 409.973 397.552 409.03 396.111 405.82C396.203 405.467 385.304 411.205 385.369 411.375C385.762 412.37 386.404 413.694 385.775 414.624C382.16 419.969 377.915 423.794 377.47 425.222C376.684 427.711 379.422 429.047 382.618 428.091Z" fill="black"/>
<path d="M305.917 298.451C306.651 300.194 308.432 301.085 309.742 302.303C310.594 303.089 311.341 304.111 311.341 305.316C311.341 306.312 310.856 307.242 310.843 308.25C310.817 309.796 311.498 311.329 312.664 312.338C314.013 313.503 315.873 313.831 317.589 314.08C319.843 314.394 322.109 314.604 324.362 314.853C324.139 313.228 325.043 309.94 324.912 309.914C323.655 309.704 322.423 309.39 321.244 308.932C320.065 308.473 318.087 307.818 317.733 306.469C317.458 305.408 317.498 304.294 317.196 303.22C316.961 302.368 316.554 301.569 315.952 300.927C314.825 299.748 313.214 299.211 311.734 298.635C310.672 298.216 309.638 297.718 308.655 297.128C308.105 296.801 307.411 296.172 306.729 296.133C305.445 296.041 305.59 297.652 305.917 298.438V298.451Z" fill="#FFA18A"/>
<path d="M358.855 373.567C359.103 379.331 363.44 383.34 366.95 387.178C374.339 395.222 377.784 406.056 385.33 413.981C388.657 410.012 398.221 407.353 398.221 407.353C396.269 404.798 389.588 386.026 388.775 383.523C387.583 379.816 386.09 376.187 384.112 372.834C386.941 371.943 389.588 370.476 392.116 368.904C395.666 366.703 399.177 364.45 402.701 362.209C404.889 365.825 407.351 369.27 410.037 372.532C413.666 376.947 417.661 381.048 421.853 384.925C424.028 386.93 426.268 388.855 428.757 390.48C431.325 392.156 434.128 393.427 436.827 394.855C442.29 397.763 447.019 401.838 451.525 406.043C456.032 410.235 457.971 411.846 461.888 416.588C466.25 413.064 475.001 410.588 475.001 410.588C472.263 395.353 454.054 384.401 451.132 382.816C447.661 380.943 443.98 379.449 441.124 376.646C438.242 373.829 435.936 370.319 433.591 367.057C431.272 363.821 429.032 360.52 427.12 357.022C425.246 353.576 425.6 344.157 418.46 337.267C418.46 337.227 379.985 346.398 380.024 346.502C381.099 350.236 377.509 353.21 374.797 355.162C372.151 357.061 362.772 365.144 360.806 367.345C359.103 369.271 358.71 370.856 358.815 373.541L358.855 373.567Z" fill="#4E6F52"/>
<path d="M372.033 279.979C370.815 281.394 365.523 287.171 364.147 284.957L358.147 271.818L368.274 267.351C368.274 267.351 368.614 268.176 369.295 269.604C370.357 271.831 372.426 273.861 374.483 276.023C374.706 276.246 372.23 279.73 372.02 279.966L372.033 279.979Z" fill="#FFA18A"/>
<path d="M371.13 269.67C371.13 269.67 367.75 268.714 368.326 266.303C369.427 261.718 363.256 253.216 358.763 253.937C353.444 254.801 350.143 259.164 350.536 264.469C350.706 266.709 349.802 267.757 348.951 269.002C348.623 269.5 349.147 270.246 349.776 270.024L350.536 269.866C350.706 269.827 350.89 269.932 350.929 270.115C351.309 271.569 351.82 272.906 352.462 274.032C353.981 276.692 354.453 279.77 359.405 278.342C367.134 276.102 371.13 269.67 371.13 269.67Z" fill="#FFA18A"/>
<path d="M362.589 307.489C363.781 311.013 365.706 314.157 367.488 317.406C369.348 320.773 370.999 324.245 372.453 327.795C375.309 334.751 378.571 351.873 378.571 351.873C388.723 350.628 405.439 344.576 409.238 343.331C412.762 342.179 417.099 340.96 420.347 339.126C419.286 333.153 415.749 327.637 412.553 322.528C409.631 317.878 406.278 313.529 403.173 308.983C401.627 306.703 400.121 304.372 398.798 301.961C397.396 299.393 396.256 296.734 395.221 294.022C394.252 291.494 393.256 288.966 391.868 286.634C390.584 284.472 389.012 282.481 387.23 280.713C383.785 277.293 379.134 274.071 374.051 274.49C370.96 279.481 366.597 282.049 366.034 282.285C364.855 282.769 363.663 283.241 362.418 283.529C362.405 283.529 362.405 283.542 362.392 283.555C362.392 283.555 362.366 283.568 362.366 283.595C362.366 283.595 362.353 283.595 362.353 283.608C360.388 291.389 359.982 299.8 362.576 307.489H362.589Z" fill="#93A87E"/>
<path d="M319.908 318.966C326.654 319.031 333.427 319.097 340.174 318.861C345.453 318.678 350.706 317.931 355.842 316.726C361.75 315.35 367.789 313.582 372.911 310.163C376.645 307.674 379.828 304.241 381.623 300.089C383.234 296.394 372.191 286.098 368.339 288.22C363.558 290.84 359.968 295.019 355.737 298.346C350.916 302.119 345.728 304.137 345.728 304.137C335.707 304.399 326.17 308.184 319.921 307.674C319.03 312.324 319.331 314.263 319.895 318.966H319.908Z" fill="#93A87E"/>
<path d="M365.641 313.883C370.606 310.569 374.994 306.455 378.584 301.687C379.527 300.429 380.496 299.132 381.007 297.639C381.518 296.146 381.57 294.521 381.505 292.962C381.439 291.338 381.125 289.674 379.946 288.482C378.924 287.434 377.509 286.91 376.108 286.609C376.003 286.582 376.042 286.412 376.16 286.438C378.177 286.871 380.208 287.853 381.086 289.844C381.977 291.862 381.911 294.587 381.466 296.709C380.928 299.159 379.252 301.189 377.719 303.102C376.095 305.119 374.326 307.019 372.413 308.774C370.33 310.687 368.103 312.442 365.745 314.014C365.654 314.08 365.562 313.922 365.654 313.87L365.641 313.883Z" fill="white"/>
<path d="M360.767 293.695C361.92 290.276 363.531 286.084 367.54 285.285C367.645 285.272 367.697 285.429 367.579 285.455C363.649 286.241 362.077 290.394 360.938 293.748C360.898 293.852 360.728 293.813 360.767 293.708V293.695Z" fill="white"/>
<path d="M345.977 304.162C348.06 305.158 349.305 307.359 349.056 309.651C349.056 309.756 348.872 309.756 348.886 309.651C349.121 307.411 347.929 305.276 345.899 304.306C345.794 304.254 345.899 304.11 345.99 304.149L345.977 304.162Z" fill="white"/>
<path d="M402.505 362.105C401.339 359.826 400.382 357.454 399.649 355.005C399.282 353.76 398.967 352.502 398.719 351.232C398.509 350.105 398.168 348.861 398.391 347.721C398.404 347.616 398.574 347.655 398.561 347.773C398.312 349.044 398.758 350.564 399.033 351.821C399.269 352.961 399.557 354.088 399.898 355.201C400.605 357.546 401.548 359.826 402.662 362.026C402.714 362.118 402.557 362.223 402.505 362.118V362.105Z" fill="white"/>
<path d="M383.968 372.782C383.601 371.852 383.234 370.935 382.684 370.096C382.199 369.35 381.61 368.668 380.942 368.053C379.658 366.834 378.164 365.865 376.684 364.922C376.592 364.856 376.684 364.699 376.776 364.765C378.295 365.747 379.841 366.743 381.151 368.013C381.78 368.616 382.356 369.284 382.828 370.005C383.378 370.856 383.745 371.799 384.125 372.73C384.164 372.834 384.007 372.874 383.955 372.782H383.968Z" fill="white"/>
<path d="M384.086 372.702C383.981 371.589 383.85 370.462 383.444 369.401C383.051 368.366 382.317 367.488 381.872 366.48C381.832 366.375 381.977 366.283 382.029 366.388C382.487 367.423 383.208 368.301 383.614 369.362C384.02 370.423 384.151 371.563 384.269 372.702C384.269 372.807 384.112 372.807 384.086 372.702Z" fill="white"/>
<path d="M352.095 247.95C350.615 248.67 347.169 249.011 345.244 252.587C343.947 254.985 345.925 259.832 350.523 260.578C352.685 260.919 355.92 258.757 359.903 263.801C361.619 266.002 361.514 261.757 363.492 261.325C364.855 261.037 366.361 264.626 365.012 266.264C365.012 266.264 368.785 273.168 371.719 271.871C374.903 270.456 375.282 265.596 374.523 260.316C372.558 246.718 362.981 242.644 352.108 247.95H352.095Z" fill="#A55852"/>
</svg>
