<svg width="80" height="80" viewBox="0 0 80 80" fill="none" xmlns="http://www.w3.org/2000/svg">
<g clip-path="url(#clip0_1002_12467)">
<path d="M48.7498 2.34397C48.9438 2.39714 49.1378 2.45031 49.3376 2.5051C51.3665 3.12232 53.2366 4.0737 54.8436 5.46897C54.9699 5.5729 55.0961 5.67683 55.2263 5.78391C57.5495 7.762 59.055 10.4634 59.6873 13.4377C59.6873 13.5924 59.6873 13.7471 59.6873 13.9065C59.7937 13.901 59.9 13.8956 60.0096 13.89C62.9944 13.8066 65.7904 14.6829 68.1248 16.5627C68.2429 16.6536 68.3609 16.7444 68.4825 16.838C70.3805 18.3935 71.826 20.847 72.1873 23.2815C72.2284 23.8877 72.2311 24.4904 72.2264 25.0979C72.2276 25.2538 72.2288 25.4097 72.23 25.5703C72.2278 26.4313 72.1618 27.1558 71.8748 27.969C71.9622 27.9788 72.0497 27.9887 72.1397 27.9989C74.6981 28.3896 76.882 30.0203 78.4373 32.0315C79.6915 33.8199 80.108 35.5093 80.0899 37.6673C80.0877 38.0261 80.0931 38.3842 80.099 38.7429C80.1135 41.4534 79.0506 43.5432 77.2264 45.5178C75.4222 47.2079 72.9493 48.3046 70.4677 48.2992C70.2864 48.2992 70.105 48.2992 69.9181 48.2992C69.7247 48.2984 69.5313 48.2976 69.3321 48.2967C69.0324 48.2964 69.0324 48.2964 68.7266 48.2961C68.1979 48.2953 67.6693 48.2939 67.1407 48.2922C66.6002 48.2906 66.0597 48.2899 65.5192 48.2891C64.4607 48.2874 63.4021 48.2848 62.3436 48.2815C62.3125 48.4904 62.3125 48.4904 62.2808 48.7035C62.2394 48.9777 62.2394 48.9777 62.1972 49.2575C62.17 49.4386 62.1428 49.6198 62.1148 49.8064C61.5923 52.9657 59.6899 55.7045 57.3436 57.8127C57.1647 57.9381 56.9828 58.0596 56.7967 58.174C56.3818 58.3949 56.3818 58.3949 56.3035 58.7667C56.2858 58.8644 56.2681 58.9621 56.2498 59.0627C56.3354 59.0613 56.4209 59.0599 56.509 59.0585C57.409 59.0446 58.309 59.0352 59.2091 59.0284C59.5438 59.0253 59.8785 59.021 60.2133 59.0156C63.407 58.9649 65.8038 59.3563 68.22 61.6244C70.3883 63.9875 70.6483 66.748 70.6511 69.7982C70.6516 69.9987 70.6521 70.1993 70.6526 70.4059C70.6536 70.8273 70.6539 71.2487 70.6538 71.6701C70.6538 72.2088 70.6559 72.7474 70.6586 73.2861C70.6607 73.8031 70.6607 74.3202 70.6608 74.8372C70.662 75.03 70.6631 75.2227 70.6642 75.4212C70.6638 75.6007 70.6633 75.7802 70.6628 75.9651C70.663 76.1224 70.6632 76.2797 70.6635 76.4418C70.6086 77.0572 70.4983 77.4888 70.0312 77.9098C69.643 78.153 69.4459 78.1839 68.9928 78.1842C68.8538 78.1854 68.7148 78.1866 68.5715 78.1879C68.4195 78.1869 68.2674 78.1858 68.1107 78.1847C67.9487 78.1855 67.7866 78.1862 67.6197 78.187C67.075 78.1888 66.5303 78.1873 65.9856 78.1859C65.5957 78.1865 65.2059 78.1873 64.8161 78.1884C63.8661 78.1903 62.9162 78.19 61.9662 78.1886C61.1941 78.1876 60.422 78.1874 59.65 78.1879C59.4852 78.188 59.4852 78.188 59.3171 78.1882C59.094 78.1883 58.8709 78.1885 58.6478 78.1886C56.5548 78.1899 54.4618 78.1884 52.3688 78.1859C50.5728 78.1838 48.7768 78.1842 46.9808 78.1863C44.8956 78.1888 42.8104 78.1898 40.7252 78.1884C40.5028 78.1882 40.2804 78.1881 40.0581 78.1879C39.9487 78.1879 39.8393 78.1878 39.7265 78.1877C38.9555 78.1873 38.1844 78.188 37.4133 78.1891C36.3754 78.1906 35.3375 78.1895 34.2996 78.1868C33.9182 78.1862 33.5368 78.1864 33.1554 78.1874C32.6356 78.1887 32.116 78.1871 31.5963 78.1847C31.4445 78.1858 31.2928 78.1868 31.1365 78.1879C30.3796 78.1813 29.8187 78.1754 29.2186 77.6565C29.0466 77.1404 29.0415 76.7561 29.0396 76.2126C29.0386 76.0113 29.0376 75.8099 29.0366 75.6024C29.0364 75.3819 29.0362 75.1615 29.0361 74.941C29.0356 74.7142 29.0351 74.4874 29.0345 74.2606C29.0336 73.7845 29.0333 73.3083 29.0334 72.8322C29.0334 72.2258 29.0313 71.6194 29.0286 71.013C29.0268 70.5439 29.0265 70.0749 29.0266 69.6058C29.0264 69.3825 29.0257 69.1592 29.0245 68.9359C29.0102 66.0406 29.6508 63.5815 31.6404 61.3967C33.4832 59.635 35.6967 58.9811 38.195 59.0169C38.3729 59.0176 38.5508 59.0183 38.7341 59.019C39.296 59.0215 39.8579 59.0274 40.4197 59.0334C40.8033 59.0358 41.187 59.0379 41.5706 59.0398C42.5053 59.045 43.4401 59.0528 44.3748 59.0627C44.1916 58.5131 44.0433 58.4277 43.5838 58.0959C40.9268 56.0769 39.1754 53.0897 38.4373 49.844C38.3858 49.3799 38.3342 48.9158 38.2811 48.4377C30.0826 48.4377 21.8842 48.4377 13.4373 48.4377C13.4373 48.7987 13.4373 49.1596 13.4373 49.5315C13.263 50.1348 13.1916 50.2682 12.6561 50.6252C12.1066 50.6752 11.7143 50.7032 11.2175 50.4482C10.9373 50.1565 10.9373 50.1565 10.8763 49.7005C10.8835 49.5319 10.8908 49.3634 10.8983 49.1897C10.9039 49.0199 10.9095 48.8501 10.9154 48.6751C10.9226 48.5452 10.9299 48.4153 10.9373 48.2815C10.7762 48.275 10.6151 48.2686 10.449 48.2619C8.1342 47.9593 6.02792 46.4034 4.54694 44.6773C3.30065 42.9376 2.46978 40.8919 2.34357 38.7502C2.33532 38.6471 2.32706 38.544 2.31855 38.4377C2.20077 35.7339 3.24955 33.1374 5.00349 31.1092C5.81472 30.2483 6.65706 29.6004 7.6756 29.0041C7.76717 28.95 7.85874 28.8959 7.95309 28.8402C8.52883 28.5163 9.03125 28.3513 9.68732 28.2815C9.65349 28.1115 9.61965 27.9415 9.58478 27.7663C8.94106 24.4244 9.17349 21.1878 11.0545 18.2522C13.3546 14.975 16.6446 12.7263 20.6083 11.9839C23.3012 11.5658 26.0144 11.7967 28.5936 12.6565C28.615 12.464 28.615 12.464 28.6369 12.2677C28.7735 11.6041 29.016 11.0486 29.3065 10.4397C29.362 10.3227 29.4176 10.2056 29.4749 10.0851C29.9634 9.08585 30.5459 8.20622 31.2498 7.34397C31.371 7.18475 31.371 7.18475 31.4946 7.02231C33.4144 4.63101 36.3131 3.14049 39.2186 2.34397C39.398 2.29401 39.5775 2.24406 39.7624 2.1926C42.6108 1.53315 45.9299 1.55906 48.7498 2.34397ZM33.3393 8.96361C32.0023 10.5555 31.1621 12.358 30.7713 14.4045C30.6248 15.0002 30.6248 15.0002 30.3709 15.3322C29.4355 15.6769 28.51 15.2415 27.617 14.9319C24.4178 13.8244 21.1891 14.0475 18.1248 15.469C15.3826 16.8103 13.5257 18.9308 12.3436 21.719C11.6945 23.6708 11.7426 25.437 12.275 27.3925C12.4912 28.1977 12.5981 28.8594 12.4998 29.6877C12.1433 30.1822 11.7734 30.2425 11.1912 30.3518C8.64523 30.9388 7.10927 32.4062 5.7353 34.5315C4.76652 36.2537 4.67212 38.2848 5.11274 40.1711C5.72242 42.2192 6.92062 43.882 8.77058 44.9776C9.48744 45.3484 10.1363 45.6531 10.9373 45.7815C11.0404 45.4205 11.1436 45.0596 11.2498 44.6877C12.4412 44.5119 12.4412 44.5119 12.9686 44.6877C13.1233 45.1518 13.2779 45.6158 13.4373 46.094C21.4811 46.094 29.5248 46.094 37.8123 46.094C37.5545 44.5471 37.2967 43.0002 37.0311 41.4065C36.855 39.4695 36.855 39.4695 36.8541 38.749C36.8539 38.5917 36.8537 38.4344 36.8535 38.2723C36.8541 38.1142 36.8547 37.9561 36.8553 37.7932C36.8547 37.6339 36.8541 37.4745 36.8535 37.3104C36.8547 36.3713 36.9091 35.4627 37.0311 34.5315C36.8571 34.4863 36.683 34.4412 36.5037 34.3947C35.9373 34.219 35.9373 34.219 35.6248 33.9065C35.5193 32.7987 35.5193 32.7987 35.8494 32.3537C36.2498 32.1877 36.2498 32.1877 36.5605 32.2146C37.008 32.2424 37.2478 32.2288 37.6561 32.0315C37.9641 31.5401 38.1985 31.0534 38.4352 30.526C39.3434 28.5193 40.7261 27.5283 42.7421 26.7538C47.2635 25.0789 52.2945 24.2862 56.8815 26.1922C59.7392 27.5172 61.6866 29.7422 62.8123 32.6565C63.8721 35.6838 63.9949 38.8457 63.5545 42.0022C63.5375 42.1249 63.5204 42.2477 63.5028 42.3742C63.3066 43.6332 62.9751 44.8617 62.6561 46.094C63.7178 46.1019 64.7796 46.1074 65.8413 46.1111C66.202 46.1127 66.5627 46.1148 66.9233 46.1175C67.4439 46.1214 67.9644 46.1231 68.4849 46.1245C68.6443 46.1261 68.8037 46.1277 68.968 46.1294C71.5233 46.1298 73.6135 45.3537 75.482 43.6007C76.9373 42.098 77.784 40.159 77.8612 38.0764C77.8107 35.9466 76.9806 33.8933 75.5089 32.3488C73.9966 30.9883 72.2514 30.329 70.2543 30.0924C69.7934 29.989 69.5547 29.8614 69.2186 29.5315C69.096 28.7042 69.2607 28.1194 69.5311 27.3342C70.1872 25.3072 69.93 23.3586 69.0178 21.4565C67.639 18.9908 65.4744 17.4331 62.8019 16.6238C61.6782 16.3246 60.5707 16.3338 59.4151 16.3241C59.1752 16.3189 59.1752 16.3189 58.9305 16.3137C58.7868 16.3126 58.6431 16.3115 58.495 16.3103C58.1248 16.2502 58.1248 16.2502 57.8488 16.0498C57.5093 15.577 57.4853 14.9875 57.3924 14.424C57.0162 12.4166 56.1816 10.6208 54.8436 9.06272C54.7273 8.91316 54.7273 8.91316 54.6086 8.76059C52.8644 6.60456 50.1572 5.18632 47.4998 4.53147C47.3719 4.49642 47.244 4.46137 47.1123 4.42526C42.0864 3.25869 36.7212 5.16312 33.3393 8.96361ZM44.4139 28.7307C44.2725 28.7799 44.1311 28.8292 43.9855 28.8799C42.4717 29.4435 41.1869 30.3638 40.41 31.805C39.4603 33.8937 39.2937 36.0229 39.3748 38.2815C39.4761 38.1812 39.5774 38.0809 39.6818 37.9775C40.2803 37.5724 40.7949 37.5547 41.494 37.5197C45.4548 37.1964 49.2449 35.3059 52.7884 33.621C54.336 32.8949 55.763 32.5199 57.4315 33.0569C58.9789 33.6784 59.8609 34.7978 60.6248 36.2502C60.8622 36.8152 61.0677 37.384 61.2498 37.969C61.3014 37.969 61.3529 37.969 61.4061 37.969C61.5685 35.3163 60.5207 32.3956 58.9061 30.3127C57.269 28.4768 54.5646 27.638 52.171 27.4783C49.4387 27.3595 46.9865 27.8241 44.4139 28.7307ZM52.7364 36.2342C52.1666 36.5112 51.5918 36.7773 51.0173 37.0443C50.9032 37.0975 50.7891 37.1508 50.6716 37.2057C47.7392 38.5671 44.6406 39.6919 41.4061 40.0002C40.3242 44.1731 40.0622 48.9558 42.1873 52.8127C43.6577 55.1343 45.7168 57.1303 48.4173 57.8956C50.4514 58.3444 52.5832 57.9778 54.3547 56.9198C54.7396 56.6584 55.1049 56.3839 55.4686 56.094C55.6297 55.9747 55.7908 55.8555 55.9569 55.7326C58.2318 53.6061 59.7212 50.5635 59.86 47.444C59.9742 43.6467 59.9139 38.7321 57.1873 35.7815C56.6121 35.2684 56.0738 35.2322 55.3282 35.2405C54.3992 35.3789 53.5735 35.8261 52.7364 36.2342ZM46.8748 60.0002C46.9315 61.2504 47.1805 62.0136 48.076 62.9299C48.7713 63.4544 49.5249 63.7731 50.4045 63.7307C51.6971 63.513 52.5125 62.9427 53.2811 61.8752C53.5668 61.2221 53.6044 60.7059 53.5936 60.0002C53.4181 60.034 53.2427 60.0679 53.062 60.1028C50.8421 60.5207 49.0976 60.4504 46.8748 60.0002ZM32.9881 63.7112C32.3511 64.4955 31.7186 65.5334 31.7186 66.5627C31.9129 66.578 32.1073 66.5933 32.3076 66.6091C34.3991 66.7897 36.2697 67.028 37.8123 68.594C39.595 70.7928 39.4063 72.9114 39.5311 75.7815C46.2858 75.7815 53.0404 75.7815 59.9998 75.7815C60.0514 74.3377 60.1029 72.894 60.1561 71.4065C60.9271 69.479 61.7167 68.0726 63.6357 67.1871C64.9606 66.7038 66.4164 66.6568 67.8123 66.5627C67.3236 64.8463 66.4698 63.4048 64.9394 62.4154C63.5711 61.6829 62.1679 61.5135 60.6334 61.5322C60.4934 61.5326 60.3534 61.5331 60.2092 61.5335C59.7683 61.5353 59.3274 61.5392 58.8865 61.5432C58.585 61.5448 58.2835 61.5462 57.982 61.5475C57.2483 61.5509 56.5147 61.5563 55.7811 61.5627C55.7306 61.6901 55.6801 61.8176 55.628 61.9488C55.5601 62.1167 55.4922 62.2845 55.4222 62.4575C55.3556 62.6236 55.289 62.7897 55.2203 62.9608C54.6004 64.3016 53.4316 65.2671 52.0646 65.7924C50.5395 66.2385 48.943 66.2389 47.5084 65.5031C46.1106 64.674 45.329 63.7272 44.6734 62.2401C44.6174 62.1133 44.5614 61.9865 44.5037 61.8559C44.4612 61.7591 44.4187 61.6624 44.3748 61.5627C43.3856 61.5507 42.3963 61.5426 41.407 61.537C41.0712 61.5346 40.7354 61.5314 40.3996 61.5274C37.5675 61.4938 35.0728 61.5184 32.9881 63.7112ZM63.4044 70.2804C62.4706 71.4323 62.4178 72.4524 62.4608 73.9065C62.4737 74.5252 62.4865 75.144 62.4998 75.7815C64.3045 75.7815 66.1092 75.7815 67.9686 75.7815C67.9686 73.5643 67.9686 71.3471 67.9686 69.0627C65.4249 69.0449 65.4249 69.0449 63.4044 70.2804ZM31.5623 69.219C31.5623 71.3846 31.5623 73.5502 31.5623 75.7815C33.367 75.7815 35.1717 75.7815 37.0311 75.7815C37.0456 75.0129 37.0456 75.0129 37.0604 74.2287C37.0646 74.0702 37.0689 73.9117 37.0733 73.7484C37.0855 72.3948 36.8393 71.2473 35.8977 70.2352C34.5958 69.1139 33.2722 69.219 31.5623 69.219Z" fill="#1A4D2E"/>
<path d="M12.6563 52.0316C13.1753 52.3822 13.2699 52.6125 13.4278 53.223C13.4826 53.397 13.5374 53.571 13.5938 53.7503C13.7153 53.7852 13.8367 53.82 13.9619 53.8559C14.5259 54.1383 14.575 54.4514 14.7791 55.0269C14.8614 55.2763 14.9424 55.5261 15.022 55.7764C15.1459 56.1217 15.2617 56.416 15.4688 56.7191C16.0875 56.9368 16.4205 56.9215 17.0411 56.7197C17.1925 56.6454 17.344 56.571 17.5001 56.4945C18.8296 55.9122 18.8296 55.9122 19.5313 56.0941C20.1068 56.5121 20.5984 56.9915 21.0938 57.5003C21.2636 57.668 21.2636 57.668 21.4368 57.8391C22.1708 58.6072 22.1708 58.6072 22.2401 59.1989C22.1819 59.741 22.0312 60.1151 21.7969 60.6058C21.4445 61.4019 21.3234 61.9503 21.4063 62.8128C21.5288 62.8257 21.6512 62.8386 21.7774 62.8519C22.6867 63.04 23.7792 63.3027 24.3751 64.0628C24.4919 64.7018 24.4763 65.3479 24.4825 65.9964C24.495 66.2629 24.495 66.2629 24.5078 66.5347C24.522 67.8076 24.522 67.8076 24.116 68.2538C23.793 68.4591 23.4805 68.6098 23.1251 68.7503C22.9178 68.8558 22.9178 68.8558 22.7064 68.9633C22.5932 69.0123 22.48 69.0612 22.3633 69.1116C22.2477 69.1626 22.1321 69.2136 22.013 69.2661C21.7188 69.3753 21.7188 69.3753 21.4063 69.3753C21.2962 70.3445 21.604 71.0084 22.0167 71.8808C22.206 72.3939 22.2525 72.7393 22.1876 73.2816C21.9923 73.6026 21.9923 73.6026 21.7188 73.887C21.6199 73.9916 21.521 74.0961 21.4191 74.2038C21.2581 74.3661 21.2581 74.3661 21.0938 74.5316C20.9816 74.6478 20.8694 74.764 20.7539 74.8837C19.9055 75.7508 19.9055 75.7508 19.5313 75.9378C18.7592 75.946 18.1038 75.7979 17.4122 75.4593C16.7264 75.1249 16.2253 75.1016 15.4688 75.1566C15.4404 75.2567 15.412 75.3568 15.3828 75.4599C14.7393 77.6742 14.7393 77.6742 14.0626 78.1253C13.4137 78.1942 12.7615 78.176 12.1094 78.1742C11.9292 78.1767 11.7489 78.1792 11.5632 78.1818C11.3906 78.1819 11.218 78.182 11.0401 78.1821C10.8819 78.1826 10.7237 78.183 10.5607 78.1835C10.1563 78.1253 10.1563 78.1253 9.88239 77.9223C9.55677 77.4782 9.38284 76.9666 9.18952 76.4554C9.14692 76.3457 9.10432 76.2361 9.06043 76.1231C8.95587 75.8534 8.85282 75.5832 8.75007 75.3128C7.92494 75.1406 7.47379 75.167 6.71882 75.5374C6.00113 75.8877 5.48768 76.0746 4.68757 75.9378C4.18544 75.6068 3.77956 75.2038 3.35944 74.7757C3.18602 74.6145 3.18602 74.6145 3.0091 74.4501C2.21697 73.6587 2.21697 73.6587 2.13805 73.0658C2.20885 72.2882 2.47694 71.667 2.85285 70.9903C3.03116 70.4291 2.99264 70.0914 2.81257 69.5316C2.43302 69.2468 2.01753 69.1019 1.57233 68.9456C0.345575 68.4873 0.345575 68.4873 6.86646e-05 67.9691C-0.0687935 67.3202 -0.0505809 66.668 -0.0487595 66.0159C-0.0512772 65.8357 -0.0537949 65.6554 -0.0563889 65.4697C-0.0564896 65.2971 -0.0565903 65.1245 -0.056694 64.9466C-0.0571598 64.7884 -0.0576256 64.6302 -0.0581055 64.4672C6.86646e-05 64.0628 6.86646e-05 64.0628 0.203087 63.7889C0.647233 63.4633 1.15876 63.2893 1.66999 63.096C1.77966 63.0534 1.88933 63.0108 2.00233 62.9669C2.27198 62.8624 2.54222 62.7593 2.81257 62.6566C2.98481 61.8314 2.95842 61.3803 2.58796 60.6253C2.23781 59.9078 2.049 59.3938 2.18757 58.5941C2.52634 58.096 2.93645 57.6925 3.36921 57.2757C3.47928 57.1614 3.58936 57.0471 3.70277 56.9293C4.22165 56.4171 4.52703 56.1219 5.25764 55.9952C5.96855 56.1294 6.54597 56.4059 7.19306 56.7197C7.75009 56.9068 8.04059 56.9192 8.59382 56.7191C8.86062 56.3197 8.86062 56.3197 9.01374 55.8206C9.58216 54.2345 9.58216 54.2345 10.1563 53.8577C10.4688 53.7503 10.4688 53.7503 10.9376 53.7503C10.9247 53.5827 10.9118 53.4152 10.8985 53.2425C10.9376 52.6566 10.9376 52.6566 11.1817 52.2757C11.7098 51.9372 12.0407 51.9436 12.6563 52.0316ZM11.7188 56.2503C11.6593 56.3694 11.6593 56.3694 11.5986 56.4908C11.4864 56.7152 11.373 56.9389 11.2586 57.1622C11.0759 57.5224 11.0759 57.5224 10.9083 58.0081C10.4858 58.6491 9.91586 58.7971 9.21882 59.0628C9.11448 59.1188 9.01015 59.1748 8.90266 59.2325C8.3449 59.4904 7.78782 59.4587 7.18757 59.3753C6.80809 59.2304 6.45765 59.065 6.10053 58.8718C5.78604 58.7271 5.78604 58.7271 5.44746 58.7705C5.13844 58.8896 5.13844 58.8896 4.9372 59.1721C4.80092 59.6967 4.98789 59.9607 5.22468 60.4398C5.75227 61.6381 5.56701 62.2795 5.11726 63.4769C4.83292 64.2043 4.60821 64.4988 3.90632 64.8441C3.76835 64.9156 3.63038 64.9871 3.48823 65.0607C3.35227 65.1278 3.21632 65.1949 3.07624 65.264C2.93827 65.3323 2.8003 65.4006 2.65815 65.4709C2.50256 65.5473 2.50256 65.5473 2.34382 65.6253C2.34382 65.9347 2.34382 66.2441 2.34382 66.5628C2.50576 66.6029 2.6677 66.643 2.83454 66.6843C4.52265 67.1447 4.52265 67.1447 4.97138 67.6871C5.11998 68.0402 5.22026 68.3791 5.31257 68.7503C5.36635 68.8569 5.42013 68.9634 5.47553 69.0732C5.7348 69.597 5.72723 70.0651 5.62507 70.6253C5.34862 71.3727 5.02751 72.0925 4.68757 72.8128C4.94538 73.0191 5.20319 73.2253 5.46882 73.4378C5.59329 73.3814 5.71777 73.325 5.84602 73.2669C6.09436 73.1582 6.09436 73.1582 6.34772 73.0472C6.59245 72.9384 6.59245 72.9384 6.84211 72.8275C7.77137 72.5109 8.42509 72.6607 9.32624 73.0081C9.50087 73.0734 9.6755 73.1387 9.85542 73.2059C10.6648 73.6165 10.872 74.2208 11.2012 75.0394C11.2695 75.2078 11.3378 75.3762 11.4081 75.5496C11.4591 75.6777 11.5101 75.8058 11.5626 75.9378C11.9235 75.9378 12.2844 75.9378 12.6563 75.9378C12.7135 75.7777 12.7707 75.6176 12.8297 75.4526C13.4771 73.7899 13.4771 73.7899 14.2017 73.27C14.6782 73.0706 15.1204 72.9223 15.6251 72.8128C15.8009 72.7739 15.9767 72.7351 16.1579 72.695C16.8298 72.649 17.2562 72.7935 17.8809 73.0374C17.9803 73.0754 18.0797 73.1134 18.1821 73.1525C18.4244 73.2454 18.6655 73.3413 18.9063 73.4378C19.1126 73.18 19.3188 72.9222 19.5313 72.6566C19.4731 72.5357 19.4149 72.4149 19.3549 72.2904C18.5698 70.5618 18.5698 70.5618 18.9063 69.5316C18.9773 69.2983 18.9773 69.2983 19.0498 69.0604C19.5573 67.6262 19.5573 67.6262 20.293 67.2562C20.5061 67.1764 20.721 67.1014 20.9376 67.0316C21.1466 66.942 21.355 66.851 21.5626 66.7581C21.7173 66.6937 21.8719 66.6292 22.0313 66.5628C22.0313 66.2534 22.0313 65.9441 22.0313 65.6253C21.7874 65.5012 21.5432 65.3776 21.2989 65.2542C21.1629 65.1853 21.027 65.1165 20.8869 65.0455C20.4801 64.8332 20.4801 64.8332 20.0599 64.736C19.4944 64.4255 19.3555 63.9302 19.1505 63.3499C19.1095 63.2365 19.0685 63.1231 19.0263 63.0063C18.7283 62.1135 18.6942 61.5034 19.0626 60.6253C19.1481 60.3619 19.2327 60.0983 19.3165 59.8343C19.3874 59.629 19.4587 59.4238 19.5313 59.2191C19.3494 58.9587 19.3494 58.9587 19.0626 58.7503C18.4782 58.7928 18.0014 59.023 17.4708 59.2581C16.494 59.6213 15.9356 59.4379 15.0001 59.0628C14.8702 59.0336 14.7402 59.0044 14.6064 58.9743C14.2233 58.8858 13.9286 58.8009 13.5938 58.5941C13.3401 58.1459 13.2443 57.6852 13.1251 57.1878C12.9755 56.8721 12.822 56.5579 12.6563 56.2503C12.3469 56.2503 12.0376 56.2503 11.7188 56.2503Z" fill="#1A4D2E"/>
<path d="M14.3749 62.0308C15.5934 62.9015 16.362 63.7899 16.6436 65.27C16.8193 66.6702 16.5584 67.7289 15.7811 68.9058C14.9534 69.8715 13.9469 70.5575 12.669 70.6618C11.5146 70.688 10.6872 70.5828 9.68739 69.9996C9.52304 69.9126 9.35868 69.8256 9.18934 69.7359C8.32572 69.0258 7.79268 68.1048 7.49989 67.0308C7.35332 65.4966 7.48756 64.3129 8.44716 63.0953C9.9072 61.5172 12.4551 60.9882 14.3749 62.0308ZM10.4882 64.775C10.0774 65.3128 10.0362 65.8239 10.0683 66.4876C10.2146 67.1322 10.5827 67.5618 11.0936 67.9683C11.6592 68.1568 12.0612 68.175 12.6561 68.1246C13.4893 67.692 13.8949 67.2208 14.1893 66.3375C14.2438 65.5935 14.0189 65.1336 13.5448 64.5699C12.4235 63.6311 11.5477 63.8306 10.4882 64.775Z" fill="#1A4D2E"/>
<path d="M12.651 36.8027C13.1237 36.9098 13.2952 37.1229 13.594 37.4998C13.6555 37.9743 13.6555 37.9743 13.6318 38.5245C13.6242 38.7234 13.6165 38.9223 13.6086 39.1273C13.603 39.2304 13.5973 39.3336 13.5915 39.4399C13.5745 39.754 13.5625 40.0679 13.5513 40.3821C13.4727 42.1471 13.4727 42.1471 13.1252 42.8123C12.5439 43.1998 12.2505 43.1972 11.5627 43.1248C11.0988 42.7835 10.9537 42.5993 10.8618 42.0252C10.8631 41.8437 10.8644 41.6621 10.8657 41.475C10.8663 41.2761 10.8669 41.0772 10.8675 40.8723C10.8695 40.7691 10.8714 40.6659 10.8734 40.5596C10.8791 40.2454 10.8798 39.9316 10.8797 39.6174C10.8958 37.8578 10.8958 37.8578 11.2502 37.1873C11.7525 36.8524 12.0587 36.8278 12.651 36.8027Z" fill="#1A4D2E"/>
<path d="M29.668 31.9326C29.9761 31.9321 29.9761 31.9321 30.2905 31.9316C30.4499 31.9346 30.4499 31.9346 30.6125 31.9376C30.9367 31.9429 31.2602 31.9408 31.5845 31.9377C33.3507 31.9507 33.3507 31.9507 34.0625 32.6558C34.1608 32.9683 34.1608 32.9683 34.1504 33.2808C34.1507 33.4355 34.1507 33.4355 34.151 33.5933C34.0199 34.0561 33.8142 34.2335 33.4375 34.5308C32.9175 34.6117 32.9175 34.6117 32.3047 34.6138C32.1961 34.6144 32.0875 34.615 31.9756 34.6156C31.7465 34.6161 31.5175 34.6149 31.2885 34.6123C30.9386 34.609 30.5891 34.6123 30.2393 34.6163C30.0163 34.6159 29.7933 34.6151 29.5703 34.6138C29.3681 34.6131 29.1659 34.6124 28.9575 34.6117C28.4375 34.5308 28.4375 34.5308 28.0597 34.2467C27.6936 33.7418 27.7165 33.42 27.8125 32.8121C28.3825 32.0856 28.7547 31.932 29.668 31.9326Z" fill="#1A4D2E"/>
<path d="M23.1126 31.9411C23.4369 31.9433 23.7604 31.9379 24.0846 31.932C24.29 31.9323 24.4955 31.9326 24.7072 31.9329C24.8945 31.9328 25.0818 31.9327 25.2748 31.9325C25.9236 32.0588 26.156 32.3018 26.5626 32.8124C26.6603 33.2812 26.6603 33.2812 26.5626 33.7499C26.1504 34.2713 25.9192 34.5052 25.258 34.6298C24.9657 34.6296 24.9657 34.6296 24.6675 34.6294C24.5626 34.6298 24.4576 34.6302 24.3495 34.6306C24.1288 34.6304 23.908 34.6283 23.6873 34.6244C23.3501 34.619 23.0135 34.6212 22.6762 34.6242C22.4611 34.6232 22.2459 34.6216 22.0308 34.6197C21.8361 34.618 21.6414 34.6163 21.4408 34.6145C20.8541 34.5173 20.6692 34.3724 20.3126 33.9062C20.2241 33.5937 20.2241 33.5937 20.2247 33.2812C20.2213 33.178 20.2179 33.0749 20.2144 32.9687C20.6068 31.7205 22.074 31.9314 23.1126 31.9411Z" fill="#1A4D2E"/>
<path d="M18.1249 32.0316C18.6594 32.4183 18.8741 32.6383 18.994 33.2914C18.8846 33.8629 18.7268 34.009 18.2811 34.3754C17.8307 34.5347 17.8307 34.5347 17.3241 34.6586C16.5669 34.8689 16.0387 35.1125 15.4198 35.5961C14.9258 35.9702 14.623 36.1778 13.994 36.1332C13.4374 35.9379 13.4374 35.9379 13.1151 35.5961C12.9237 35.0219 12.9077 34.7905 13.1249 34.2191C14.2762 32.874 16.3366 31.7998 18.1249 32.0316Z" fill="#1A4D2E"/>
</g>
<defs>
<clipPath id="clip0_1002_12467">
<rect width="80" height="80" fill="white"/>
</clipPath>
</defs>
</svg>
