<svg width="80" height="80" viewBox="0 0 80 80" fill="none" xmlns="http://www.w3.org/2000/svg">
<path d="M54.9317 1.33834C55.0944 1.33924 55.257 1.34015 55.4246 1.34108C56.7741 1.36278 56.7741 1.36278 57.3438 1.7192C57.6951 2.17857 57.8458 2.5991 57.9688 3.15474C58.0635 3.78433 58.0635 3.78433 58.5938 4.06295C58.9645 4.14128 58.9645 4.14128 59.3751 4.06295C59.5169 3.95982 59.6587 3.8567 59.8048 3.75045C60.3735 3.40049 60.7032 3.31676 61.36 3.34761C62.0571 3.52309 62.4853 4.02561 62.9688 4.5317C63.073 4.6324 63.1771 4.73311 63.2844 4.83687C64.2406 5.76385 64.2406 5.76385 64.2677 6.60201C64.2653 7.33648 64.0021 7.67588 63.5938 8.2817C63.578 8.86187 63.578 8.86187 63.7501 9.37545C64.1783 9.66092 64.3551 9.73457 64.8341 9.82467C65.4127 9.95892 65.7282 10.1379 66.0938 10.6254C66.0938 10.7286 66.0938 10.8317 66.0938 10.9379C66.2277 10.9347 66.3615 10.9314 66.4993 10.928C67.0031 10.9173 67.5069 10.9095 68.0107 10.9036C68.2274 10.9005 68.4441 10.8963 68.6608 10.8908C70.4963 10.8457 71.9406 11.0493 73.3192 12.3442C74.1068 13.2403 74.5496 14.2166 74.5523 15.4087C74.553 15.5536 74.5537 15.6984 74.5544 15.8477C74.5544 16.0856 74.5544 16.0856 74.5543 16.3284C74.5549 16.4973 74.5555 16.6662 74.5561 16.8403C74.5578 17.4083 74.5584 17.9764 74.559 18.5445C74.56 18.951 74.561 19.3575 74.5621 19.764C74.5652 20.9855 74.5668 22.207 74.5682 23.4285C74.5688 24.0042 74.5697 24.5799 74.5705 25.1556C74.5732 27.0702 74.5754 28.9848 74.5766 30.8994C74.5769 31.3961 74.5772 31.8928 74.5775 32.3895C74.5775 32.513 74.5776 32.6364 74.5777 32.7636C74.579 34.7619 74.5829 36.7601 74.588 38.7584C74.5932 40.8115 74.596 42.8646 74.5965 44.9178C74.5968 46.0699 74.5982 47.222 74.6022 48.3741C74.606 49.4586 74.6065 50.543 74.6049 51.6275C74.6048 52.0248 74.6058 52.4221 74.6079 52.8194C74.6107 53.3634 74.6096 53.9073 74.6076 54.4513C74.6101 54.685 74.6101 54.685 74.6127 54.9235C74.5966 56.7031 74.0617 58.2469 72.8126 59.5317C71.3821 60.8611 69.8668 61.1884 67.9581 61.1651C67.7597 61.1652 67.5614 61.1653 67.357 61.1654C66.818 61.1656 66.279 61.162 65.74 61.1576C65.1749 61.1536 64.6097 61.1533 64.0446 61.1525C62.9766 61.1506 61.9087 61.1455 60.8407 61.1392C59.624 61.1322 58.4072 61.1288 57.1904 61.1256C54.6895 61.1191 52.1885 61.1082 49.6876 61.0942C49.7602 61.7214 49.8338 62.3485 49.9077 62.9756C49.9281 63.1523 49.9485 63.329 49.9696 63.5111C50.1112 64.7083 50.2975 65.8578 50.6153 67.0219C50.6714 67.2441 50.6714 67.2441 50.7285 67.4708C50.9841 68.452 51.3211 69.3807 51.7188 70.3129C51.8471 70.3144 51.9754 70.3159 52.1075 70.3174C52.5919 70.3243 53.0761 70.334 53.5604 70.3454C53.8697 70.3519 54.179 70.3553 54.4883 70.3587C56.0008 70.397 57.4065 70.5562 58.5841 71.5825C59.4665 72.5795 59.802 73.7337 59.748 75.0517C59.5761 76.2392 58.9614 77.2904 58.009 78.0223C56.6166 78.8598 55.0656 78.7038 53.4968 78.6953C53.1697 78.6963 52.8425 78.6977 52.5154 78.6994C51.6302 78.703 50.7451 78.7016 49.8599 78.6991C48.9318 78.6972 48.0037 78.699 47.0756 78.7002C45.5173 78.7016 43.9591 78.6998 42.4008 78.696C40.6013 78.6918 38.8019 78.6932 37.0024 78.6975C35.4552 78.701 33.9079 78.7015 32.3606 78.6995C31.4375 78.6983 30.5144 78.6981 29.5913 78.7007C28.7232 78.7029 27.8553 78.7014 26.9873 78.6969C26.6695 78.6958 26.3516 78.6961 26.0338 78.6978C22.709 78.7142 22.709 78.7142 21.4254 77.5459C20.6143 76.7121 20.2943 75.7771 20.2442 74.6293C20.2904 73.3449 20.6577 72.3896 21.5919 71.4946C22.8794 70.3504 24.4656 70.39 26.1036 70.3618C26.3155 70.3566 26.5274 70.3512 26.7393 70.3456C27.2533 70.3328 27.7673 70.322 28.2813 70.3129C28.8153 68.8552 29.2769 67.4058 29.5704 65.8793C29.5939 65.7602 29.6174 65.641 29.6417 65.5182C29.8169 64.5504 29.9131 63.5771 30.0085 62.5989C30.0228 62.4541 30.0371 62.3092 30.0518 62.1599C30.0868 61.8047 30.1217 61.4495 30.1563 61.0942C30.0542 61.0949 29.952 61.0956 29.8468 61.0964C27.3543 61.1137 24.8619 61.1266 22.3693 61.1347C21.1639 61.1387 19.9586 61.1442 18.7532 61.1531C17.7019 61.1609 16.6506 61.166 15.5992 61.1677C15.0432 61.1687 14.4872 61.1711 13.9312 61.1768C13.3085 61.1832 12.686 61.1832 12.0632 61.1829C11.8815 61.1857 11.6998 61.1885 11.5125 61.1914C9.74166 61.1804 8.29572 60.6287 7.01608 59.3907C5.74391 57.9879 5.39649 56.398 5.40932 54.5426C5.40859 54.3778 5.40785 54.2129 5.4071 54.0431C5.40524 53.4945 5.40671 52.9459 5.40819 52.3973C5.40755 52.0024 5.40672 51.6076 5.4057 51.2127C5.40379 50.2538 5.40406 49.295 5.40542 48.3361C5.40648 47.5564 5.40662 46.7767 5.40611 45.997C5.40604 45.8857 5.40597 45.7745 5.4059 45.6599C5.40575 45.4339 5.4056 45.208 5.40544 44.982C5.40411 42.8659 5.40564 40.7498 5.40816 38.6336C5.41025 36.8202 5.40989 35.0068 5.40773 33.1933C5.40522 31.0845 5.40424 28.9757 5.40568 26.8668C5.40582 26.6417 5.40597 26.4166 5.40611 26.1914C5.40619 26.0807 5.40626 25.9699 5.40633 25.8558C5.40674 25.0776 5.40606 24.2994 5.40496 23.5211C5.4035 22.4725 5.40454 21.424 5.40725 20.3754C5.40787 19.9911 5.40769 19.6067 5.40666 19.2224C5.40537 18.6968 5.40699 18.1713 5.40932 17.6457C5.40827 17.4945 5.40722 17.3433 5.40615 17.1875C5.42159 15.3868 5.96052 13.9389 7.19919 12.6256C8.59044 11.312 9.93465 10.9128 11.821 10.9185C11.957 10.9183 12.0931 10.918 12.2332 10.9178C12.6889 10.9172 13.1446 10.9178 13.6003 10.9183C13.927 10.918 14.2537 10.9177 14.5805 10.9174C15.284 10.9167 15.9876 10.9164 16.6911 10.9164C17.8032 10.9162 18.9154 10.9142 20.0275 10.9117C20.309 10.9111 20.309 10.9111 20.5962 10.9105C20.9799 10.9097 21.3636 10.9089 21.7473 10.9081C24.3365 10.9026 26.9256 10.8984 29.5148 10.8988C31.2614 10.8991 33.008 10.8966 34.7546 10.8909C35.679 10.888 36.6034 10.8865 37.5278 10.8885C38.3969 10.8902 39.2658 10.8884 40.1348 10.8838C40.454 10.8828 40.7732 10.8831 41.0923 10.8848C41.5276 10.887 41.9626 10.8844 42.3979 10.8805C42.5879 10.8832 42.5879 10.8832 42.7818 10.8859C43.4251 10.8749 43.7046 10.8208 44.1998 10.395C44.3639 10.1997 44.3639 10.1997 44.5313 10.0004C44.9384 9.83809 44.9384 9.83809 45.3419 9.74654C45.9965 9.60714 45.9965 9.60714 46.4063 9.06295C46.4847 8.69229 46.4847 8.69229 46.4063 8.2817C46.3032 8.1399 46.2001 7.9981 46.0938 7.85201C45.7439 7.28333 45.6602 6.95359 45.691 6.29683C45.8665 5.59968 46.369 5.17148 46.8751 4.68795C46.9758 4.58381 47.0765 4.47968 47.1803 4.3724C48.1073 3.4162 48.1073 3.4162 48.9454 3.38912C49.6799 3.39147 50.0193 3.65468 50.6251 4.06295C51.2053 4.07878 51.2053 4.07878 51.7188 3.9067C52.0349 3.43257 52.1176 3.07668 52.2102 2.5212C52.7334 1.21675 53.7128 1.2997 54.9317 1.33834ZM54.3751 3.5942C54.3485 3.68665 54.3219 3.7791 54.2945 3.87435C54.0264 4.74874 53.7968 5.45456 52.989 5.96724C51.958 6.4965 50.8912 6.60955 49.7694 6.29989C49.4767 6.19183 49.1905 6.06663 48.9063 5.93795C48.7001 6.1442 48.4938 6.35045 48.2813 6.56295C48.3539 6.7418 48.3539 6.7418 48.4278 6.92428C48.8287 7.93816 48.9394 8.90462 48.6195 9.96444C48.0969 11.134 47.3887 11.5824 46.2501 12.0805C46.0954 12.1337 46.0954 12.1337 45.9376 12.1879C45.9376 12.5489 45.9376 12.9098 45.9376 13.2817C46.0763 13.3189 46.0763 13.3189 46.2177 13.3568C47.2996 13.6762 47.9068 14.114 48.4864 15.0981C48.8495 15.8773 48.865 16.6571 48.7501 17.5004C48.6008 17.8163 48.4465 18.1301 48.2813 18.4379C48.3867 18.8593 48.5303 19.0088 48.8575 19.2876C49.3323 19.4031 49.5665 19.2272 49.9934 19.0251C50.9184 18.682 51.8214 18.8299 52.7052 19.2192C53.4656 19.6401 53.8792 20.1432 54.2188 20.9379C54.3458 21.4067 54.3458 21.4067 54.3751 21.7192C54.736 21.7192 55.097 21.7192 55.4688 21.7192C55.522 21.5929 55.5752 21.4666 55.63 21.3365C56.1251 20.2448 56.5296 19.5362 57.6563 19.0629C58.84 18.6684 59.967 18.9182 61.0938 19.3754C61.3001 19.1176 61.5063 18.8598 61.7188 18.5942C61.6415 18.4492 61.5642 18.3042 61.4845 18.1547C61.0995 17.2368 61.0914 16.2995 61.3819 15.3514C61.8026 14.3977 62.3208 13.8485 63.2813 13.4379C63.7501 13.311 63.7501 13.311 64.0626 13.2817C64.0626 12.9208 64.0626 12.5598 64.0626 12.1879C63.8704 12.1 63.8704 12.1 63.6744 12.0103C63.506 11.9304 63.3376 11.8504 63.1642 11.768C62.9974 11.6901 62.8306 11.6121 62.6588 11.5318C62.0235 11.1525 61.683 10.722 61.3673 10.059C61.1038 8.87339 61.1425 7.94961 61.7188 6.87545C61.5714 6.34481 61.4077 6.25137 60.9376 5.93795C60.6847 6.05385 60.4321 6.17025 60.1808 6.28951C59.3423 6.58113 58.3429 6.53854 57.5196 6.21138C56.3304 5.54543 55.9725 4.83733 55.4688 3.5942C55.1079 3.5942 54.747 3.5942 54.3751 3.5942ZM8.38315 14.8047C7.54294 16.1988 7.70914 17.7563 7.7239 19.3267C7.72414 19.6601 7.72403 19.9935 7.72361 20.3269C7.72344 21.2168 7.72795 22.1066 7.73347 22.9965C7.73793 23.8326 7.73813 24.6687 7.73868 25.5049C7.74278 27.9474 7.75368 30.3899 7.76376 32.8325C7.77988 38.2917 7.79599 43.7508 7.81259 49.3754C29.0563 49.3754 50.3001 49.3754 72.1876 49.3754C72.2005 43.7261 72.2134 38.0768 72.2267 32.2563C72.2323 30.4716 72.238 28.687 72.2439 26.8482C72.246 25.2503 72.246 25.2503 72.2472 23.6524C72.2478 22.94 72.2502 22.2275 72.2536 21.5151C72.2579 20.6065 72.2591 19.6979 72.2583 18.7892C72.2584 18.4557 72.2597 18.1221 72.2621 17.7886C72.2652 17.338 72.2645 16.8876 72.2627 16.437C72.2646 16.3065 72.2664 16.1759 72.2683 16.0414C72.2592 15.1527 72.0741 14.638 71.5626 13.9067C70.5925 13.0993 69.5859 13.2081 68.3692 13.2426C68.086 13.2469 68.086 13.2469 67.797 13.2512C67.3333 13.2585 66.8699 13.2688 66.4063 13.2817C66.3779 13.3778 66.3495 13.4738 66.3203 13.5728C66.281 13.6991 66.2417 13.8254 66.2013 13.9555C66.1632 14.0806 66.1251 14.2057 66.0859 14.3346C65.9285 14.7095 65.7821 14.9014 65.4688 15.1567C65.0756 15.2906 64.6815 15.3827 64.2774 15.4784C63.8294 15.6559 63.6807 15.8401 63.4376 16.2504C63.3463 16.6277 63.3463 16.6277 63.4376 17.0317C63.5407 17.1735 63.6438 17.3153 63.7501 17.4614C64.1 18.03 64.1843 18.3598 64.1523 19.0166C63.9766 19.7195 63.4828 20.1427 62.9688 20.6254C62.8693 20.7314 62.7698 20.8373 62.6673 20.9465C62.1435 21.4703 61.753 21.7898 60.9962 21.8266C60.3171 21.7755 59.9349 21.4714 59.3751 21.0942C58.7936 21.0942 58.4449 21.1094 57.9981 21.4946C57.8281 21.8435 57.7486 22.1249 57.6661 22.5004C57.5353 23.0808 57.3678 23.3881 56.8751 23.7504C56.2783 23.9617 55.6551 23.9411 55.0294 23.9458C54.9221 23.949 54.8149 23.9522 54.7044 23.9555C53.9108 23.9615 53.3512 23.8322 52.6563 23.4379C52.4635 23.112 52.4635 23.112 52.3829 22.7544C52.3321 22.5688 52.3321 22.5688 52.2804 22.3796C52.2497 22.2648 52.2191 22.15 52.1876 22.0317C52.0214 21.5628 52.0214 21.5628 51.7188 21.2504C51.2004 21.0536 51.2004 21.0536 50.6251 21.0942C50.4768 21.1941 50.3286 21.294 50.1759 21.3969C49.617 21.7658 49.2982 21.8409 48.6402 21.8089C47.9373 21.6332 47.5141 21.1394 47.0313 20.6254C46.9254 20.5259 46.8195 20.4264 46.7103 20.3239C46.1865 19.8001 45.867 19.4096 45.8302 18.6528C45.8813 17.9737 46.1853 17.5915 46.5626 17.0317C46.6032 16.4564 46.6032 16.4564 46.4063 15.9379C46.0507 15.6267 45.7313 15.4975 45.2772 15.3764C44.2786 15.1032 44.2786 15.1032 43.9063 14.4633C43.796 14.0701 43.6914 13.678 43.5938 13.2817C39.3372 13.2707 35.0806 13.2625 30.824 13.2574C28.8475 13.255 26.8711 13.2517 24.8947 13.2463C23.172 13.2417 21.4493 13.2386 19.7266 13.2376C18.8145 13.237 17.9024 13.2355 16.9902 13.2321C16.1315 13.229 15.2728 13.228 14.414 13.2287C14.0991 13.2285 13.7842 13.2276 13.4692 13.2258C13.0386 13.2235 12.608 13.2241 12.1773 13.2253C12.0533 13.224 11.9293 13.2226 11.8015 13.2212C10.4213 13.2322 9.24334 13.6902 8.38315 14.8047ZM7.81259 51.5629C7.50191 54.9384 7.50191 54.9384 8.7446 57.7098C9.91799 58.6601 10.8944 58.9258 12.4109 58.9268C12.6111 58.9273 12.8113 58.9278 13.0176 58.9283C13.2386 58.9281 13.4596 58.9278 13.6807 58.9276C13.9164 58.9279 14.1521 58.9282 14.3878 58.9287C15.035 58.9296 15.6821 58.9296 16.3293 58.9294C17.0275 58.9294 17.7257 58.9302 18.4239 58.931C19.7916 58.9323 21.1593 58.9327 22.527 58.9328C23.6387 58.9329 24.7505 58.9332 25.8622 58.9337C29.0141 58.9351 32.1661 58.9358 35.318 58.9357C35.5729 58.9357 35.5729 58.9357 35.833 58.9356C36.0031 58.9356 36.1732 58.9356 36.3485 58.9356C39.1059 58.9356 41.8632 58.9371 44.6206 58.9393C47.4518 58.9415 50.2831 58.9426 53.1143 58.9425C54.7039 58.9424 56.2934 58.9428 57.8829 58.9445C59.2362 58.9459 60.5895 58.9463 61.9429 58.9452C62.6332 58.9447 63.3236 58.9447 64.0139 58.946C64.6463 58.9473 65.2786 58.9471 65.911 58.9457C66.1394 58.9454 66.3678 58.9457 66.5961 58.9466C69.1025 58.9734 69.1025 58.9734 71.1921 57.7183C72.8166 55.9451 72.1876 54.1291 72.1876 51.5629C50.9438 51.5629 29.7001 51.5629 7.81259 51.5629ZM32.5001 61.0942C32.3454 62.5895 32.1907 64.0848 32.0313 65.6254C31.4888 68.0452 31.4888 68.0452 31.1902 69.1386C31.0827 69.5771 31.0118 70.0239 30.9376 70.4692C36.9188 70.4692 42.9001 70.4692 49.0626 70.4692C48.9079 69.902 48.7532 69.3348 48.5938 68.7504C47.9642 66.1994 47.6473 63.7244 47.3438 61.0942C42.4454 61.0942 37.547 61.0942 32.5001 61.0942ZM23.1251 73.2817C22.7481 73.8046 22.6154 74.2189 22.6466 74.854C22.7318 75.3481 22.8757 75.5977 23.252 75.9282C24.0413 76.4389 24.7056 76.4297 25.6293 76.4286C25.7566 76.4291 25.884 76.4296 26.0152 76.43C26.4426 76.4314 26.87 76.4316 27.2973 76.4319C27.6035 76.4326 27.9097 76.4334 28.2159 76.4342C29.0482 76.4363 29.8805 76.4373 30.7127 76.438C31.2326 76.4384 31.7526 76.4391 32.2725 76.4398C33.8991 76.4419 35.5257 76.4434 37.1522 76.444C39.0302 76.4447 40.9081 76.4475 42.786 76.452C44.2374 76.4554 45.6889 76.4569 47.1403 76.4572C48.0073 76.4573 48.8742 76.4582 49.7412 76.461C50.5567 76.4636 51.3722 76.4639 52.1878 76.4626C52.4869 76.4624 52.786 76.4631 53.0851 76.4647C53.4939 76.4667 53.9026 76.4657 54.3114 76.4641C54.4294 76.4654 54.5474 76.4666 54.6689 76.4679C55.585 76.4594 56.241 76.2406 57.0118 75.7524C57.3088 75.274 57.3595 74.77 57.3438 74.2192C57.1511 73.6182 57.0039 73.3633 56.4697 73.0248C55.8397 72.774 55.2881 72.7476 54.6211 72.7534C54.4908 72.7527 54.3605 72.752 54.2262 72.7512C53.7908 72.7493 53.3554 72.7508 52.92 72.7523C52.6074 72.7517 52.2947 72.7508 51.9821 72.7498C51.1337 72.7477 50.2853 72.7485 49.4369 72.75C48.549 72.7512 47.6611 72.7501 46.7732 72.7493C45.2821 72.7485 43.791 72.7496 42.2999 72.7518C40.5761 72.7544 38.8523 72.7536 37.1284 72.751C35.6483 72.7488 34.1682 72.7486 32.6881 72.7498C31.8041 72.7505 30.9202 72.7506 30.0362 72.7491C29.2051 72.7477 28.3741 72.7486 27.543 72.7514C27.238 72.752 26.9331 72.7518 26.6281 72.7508C26.2117 72.7495 25.7955 72.7511 25.3791 72.7534C25.2585 72.7524 25.1378 72.7513 25.0135 72.7503C24.269 72.7584 23.7552 72.8824 23.1251 73.2817Z" fill="#1A4D2E"/>
<path d="M27.6951 16.5135C27.8702 16.509 28.0452 16.5045 28.2255 16.4998C29.2657 16.4918 29.9509 16.5348 30.7811 17.1874C30.9739 17.4724 30.9739 17.4724 31.0545 17.7635C31.0881 17.8711 31.1218 17.9786 31.1564 18.0895C31.2212 18.3309 31.2851 18.5726 31.3481 18.8145C31.5715 19.6053 31.5715 19.6053 32.1483 20.1756C32.7755 20.3445 33.1219 20.3293 33.7498 20.1561C33.9516 20.0276 34.1501 19.8937 34.3455 19.7557C34.9596 19.3495 35.4473 19.2481 36.1809 19.2906C36.8739 19.4436 37.3069 19.8324 37.8123 20.3124C37.9356 20.4272 38.0589 20.542 38.1859 20.6603C39.5945 22.019 39.5945 22.019 39.7606 22.8795C39.7719 23.7651 39.6537 24.2083 39.0922 24.8882C38.7459 25.3866 38.7498 25.8033 38.7498 26.4061C38.854 26.94 38.854 26.94 39.2186 27.3436C39.671 27.562 40.1398 27.686 40.6248 27.8124C40.8507 27.873 41.0755 27.9379 41.2987 28.0077C41.3947 28.0343 41.4908 28.0608 41.5898 28.0882C42.0758 28.4171 42.3113 28.8342 42.4998 29.3749C42.5884 30.0312 42.5872 30.6764 42.5779 31.3377C42.5816 31.598 42.5816 31.598 42.5853 31.8636C42.5806 32.8486 42.5455 33.4757 41.8748 34.2186C41.3971 34.6008 40.9794 34.7166 40.3904 34.8241C39.6942 34.961 39.356 35.2187 38.9061 35.7811C38.6822 36.2289 38.7019 36.5331 38.7498 37.0311C39.0313 37.5314 39.0313 37.5314 39.3748 37.9686C39.8446 38.6733 39.8315 39.3317 39.6873 40.1561C39.4022 40.6603 39.0156 41.014 38.5936 41.4061C38.462 41.5425 38.3305 41.6788 38.195 41.8193C36.8414 43.2211 36.8414 43.2211 35.8397 43.3592C35.2319 43.3502 34.879 43.1412 34.3748 42.8123C33.6307 42.33 33.2231 42.1945 32.3436 42.3436C31.8034 42.676 31.5947 42.8764 31.3823 43.4807C31.3418 43.6694 31.3013 43.8581 31.2596 44.0526C30.9475 45.2679 30.9475 45.2679 30.4686 45.6737C29.5872 46.1694 28.7539 46.1272 27.7635 46.1327C27.619 46.1359 27.4745 46.1391 27.3256 46.1424C26.4258 46.1475 25.7917 46.0623 24.9998 45.6248C24.5008 45.0718 24.3481 44.6137 24.2381 43.8963C24.1435 43.3556 24.0563 43.0179 23.6522 42.6366C23.0368 42.2947 22.556 42.174 21.8748 42.3436C21.5624 42.5185 21.2969 42.7096 21.0222 42.9387C20.4691 43.3657 19.8868 43.3264 19.2186 43.2811C18.3471 42.9416 17.7882 42.3852 17.1483 41.7284C17.0508 41.6314 16.9533 41.5344 16.8528 41.4345C16.2078 40.7818 15.7393 40.2727 15.7225 39.3163C15.7365 38.6049 15.955 38.2133 16.4061 37.6561C16.7941 37.0741 16.8347 36.6113 16.7186 35.9374C16.3808 35.298 16.1853 35.0783 15.4954 34.8601C15.1653 34.7841 14.8345 34.711 14.503 34.641C13.9617 34.506 13.6506 34.3249 13.2811 33.9061C12.8755 33.0565 12.9168 32.2622 12.9197 31.3377C12.916 31.0977 12.916 31.0977 12.9121 30.8528C12.9114 29.7932 13.0146 29.0708 13.7401 28.2518C14.2354 27.9586 14.6068 27.8714 15.1658 27.7538C15.8138 27.6055 16.0425 27.551 16.5233 27.0702C16.7527 26.4737 16.8091 26.1025 16.7186 25.4686C16.4371 24.9683 16.4371 24.9683 16.0936 24.5311C15.712 23.9588 15.6652 23.3249 15.7811 22.6561C16.1525 21.8509 16.8078 21.2764 17.4315 20.6639C17.5385 20.557 17.6456 20.45 17.7559 20.3398C18.5801 19.5229 18.984 19.3065 20.1646 19.3065C20.8148 19.4031 21.1841 19.7227 21.6984 20.1109C22.0725 20.3374 22.2632 20.3756 22.6951 20.3416C23.3996 20.1186 23.6428 19.9862 24.0623 19.3749C24.1956 18.9001 24.2998 18.423 24.4041 17.9411C24.5819 17.323 24.7973 17.092 25.3123 16.7186C26.086 16.4607 26.885 16.5204 27.6951 16.5135ZM26.7186 18.9061C26.6058 19.2251 26.493 19.5442 26.3768 19.8729C26.0757 20.6525 25.8372 21.2036 25.1561 21.7186C25.0078 21.8314 24.8596 21.9442 24.7069 22.0604C23.7029 22.6427 22.642 22.8437 21.5104 22.567C20.8219 22.35 20.3205 22.0985 19.6873 21.7186C19.2233 22.1827 18.7592 22.6467 18.2811 23.1249C18.5598 23.8653 18.5598 23.8653 18.8475 24.3749C19.2717 25.3882 19.2245 26.5126 18.9012 27.5462C18.4098 28.6437 17.8298 29.357 16.7186 29.8436C16.2456 29.9898 15.8034 30.0782 15.3123 30.1561C15.3123 30.878 15.3123 31.5999 15.3123 32.3436C15.5991 32.4274 15.886 32.5112 16.1815 32.5975C17.3044 32.9745 18.0367 33.4533 18.6522 34.4725C19.1614 35.5302 19.2531 36.732 18.9683 37.8783C18.7757 38.3958 18.5279 38.8812 18.2811 39.3748C18.9772 40.0709 18.9772 40.0709 19.6873 40.7811C19.9258 40.6522 20.1643 40.5233 20.41 40.3905C21.5967 39.8559 22.7936 39.7554 24.0471 40.1384C25.1227 40.6253 25.8472 41.2604 26.2889 42.3619C26.4443 42.8206 26.5828 43.285 26.7186 43.7498C27.4404 43.7498 28.1623 43.7498 28.9061 43.7498C28.9383 43.5468 28.9705 43.3438 29.0037 43.1346C29.2431 42.0659 29.7776 41.2449 30.6248 40.5565C31.753 39.9689 32.8058 39.8518 34.0623 39.9998C34.6798 40.2103 35.2024 40.4725 35.7811 40.7811C36.2451 40.317 36.7092 39.853 37.1873 39.3748C36.9723 38.8335 36.9723 38.8335 36.7418 38.2988C36.2521 37.1587 36.2428 36.1127 36.6795 34.951C37.2196 33.7551 37.8825 33.1985 39.0623 32.6561C39.4268 32.5271 39.7789 32.4319 40.1561 32.3436C40.1561 31.6217 40.1561 30.8999 40.1561 30.1561C39.9015 30.1045 39.6469 30.053 39.3846 29.9999C38.37 29.7174 37.6875 29.2626 37.0311 28.4374C36.4692 27.4199 36.2143 26.3103 36.4061 25.1561C36.5398 24.7746 36.6941 24.4229 36.8791 24.0636C37.1007 23.6131 37.1007 23.6131 37.1873 23.1249C36.955 22.768 36.955 22.768 36.6111 22.451C36.501 22.3388 36.3908 22.2266 36.2773 22.1111C35.9638 21.8405 35.9638 21.8405 35.6285 21.8968C35.2774 22.0459 34.9278 22.1971 34.5799 22.3534C33.4379 22.8122 32.4335 22.7919 31.2816 22.3589C30.2339 21.8369 29.6035 21.109 29.1704 20.0328C29.0552 19.6646 28.9817 19.2844 28.9061 18.9061C28.1842 18.9061 27.4623 18.9061 26.7186 18.9061Z" fill="#1A4D2E"/>
<path d="M33.008 25.4982C34.4681 26.8566 35.3687 28.8104 35.5007 30.7882C35.5361 33.1634 34.8261 35.1028 33.1862 36.8349C31.343 38.5758 29.3808 38.9984 26.9314 38.9595C24.9172 38.8746 23.2166 37.8117 21.8361 36.3869C20.4701 34.7582 19.9224 32.8006 20.0197 30.7033C20.2019 28.9705 20.7718 27.5948 21.8752 26.2502C21.9648 26.1392 22.0545 26.0282 22.1468 25.9139C24.9889 22.7431 29.8521 22.9675 33.008 25.4982ZM23.4713 27.9738C22.6618 29.0717 22.268 30.3733 22.3537 31.7385C22.6259 33.4947 23.459 34.7986 24.8696 35.8858C26.1628 36.6876 27.6527 36.8656 29.1244 36.5365C29.7892 36.3241 30.3575 36.0089 30.9377 35.6252C31.0763 35.535 31.2149 35.4447 31.3576 35.3518C32.4768 34.2628 33.1177 32.8923 33.1838 31.3283C33.1144 29.685 32.4038 28.252 31.2014 27.1389C28.7541 25.181 25.4973 25.6685 23.4713 27.9738Z" fill="#1A4D2E"/>
<path d="M59.2086 8.21822C60.4924 9.38885 61.0563 10.9903 61.1526 12.6958C61.1047 14.3109 60.4604 15.8464 59.3752 17.0317C58.17 18.135 56.6341 18.7464 55.0002 18.8286C53.2683 18.7387 51.7212 18.0676 50.469 16.8754C49.3839 15.5638 48.7895 14.0041 48.8522 12.2929C49.1149 10.2734 49.978 8.92155 51.495 7.61947C53.9417 5.84821 57.0039 6.40104 59.2086 8.21822ZM52.2665 10.0438C51.4915 10.9315 51.2066 11.956 51.2502 13.1254C51.4429 14.2595 51.9999 15.1579 52.9385 15.8263C53.8125 16.3496 54.6086 16.5358 55.6252 16.4067C56.7585 16.0539 57.7362 15.4789 58.3303 14.4243C58.7631 13.4569 58.8768 12.4795 58.5842 11.4555C58.1676 10.3932 57.4859 9.63711 56.4376 9.17586C54.8901 8.66736 53.4608 8.91595 52.2665 10.0438Z" fill="#1A4D2E"/>
<path d="M47.2712 30.1158C47.4551 30.1147 47.6389 30.1136 47.8282 30.1124C48.1323 30.113 48.1323 30.113 48.4425 30.1136C48.6573 30.1129 48.8721 30.1121 49.0869 30.1112C49.6712 30.1091 50.2555 30.109 50.8398 30.1094C51.3271 30.1096 51.8145 30.1088 52.3018 30.1081C53.4513 30.1063 54.6007 30.1063 55.7502 30.1072C56.937 30.1081 58.1239 30.1062 59.3107 30.1029C60.3288 30.1001 61.3468 30.0992 62.3649 30.0997C62.9733 30.1 63.5817 30.0996 64.1902 30.0974C64.7623 30.0954 65.3344 30.0957 65.9065 30.0978C66.2171 30.0983 66.5277 30.0966 66.8383 30.0947C67.1147 30.0964 67.1147 30.0964 67.3966 30.098C67.5571 30.098 67.7176 30.098 67.8829 30.098C68.2814 30.1565 68.2814 30.1565 68.5625 30.3665C68.8494 30.7622 68.887 31.0782 68.9064 31.5628C68.711 32.0022 68.711 32.0022 68.4376 32.344C67.9527 32.5057 67.6184 32.5203 67.11 32.5212C66.8421 32.5222 66.8421 32.5222 66.5689 32.5232C66.3729 32.5231 66.1769 32.523 65.9749 32.523C65.7665 32.5234 65.5581 32.524 65.3496 32.5246C64.7834 32.5259 64.2172 32.5263 63.6509 32.5264C63.1784 32.5266 62.7058 32.5271 62.2332 32.5277C61.1184 32.529 60.0036 32.5293 58.8888 32.5292C57.7385 32.5291 56.5881 32.5308 55.4378 32.5332C54.4504 32.5353 53.463 32.5361 52.4755 32.536C51.8857 32.536 51.2959 32.5364 50.706 32.5381C50.1513 32.5396 49.5967 32.5396 49.042 32.5385C48.7413 32.5382 48.4406 32.5395 48.14 32.5409C47.961 32.5402 47.782 32.5396 47.5976 32.5389C47.4421 32.539 47.2866 32.5391 47.1263 32.5392C46.6997 32.4984 46.4488 32.4252 46.0939 32.1878C45.8384 31.6652 45.744 31.3871 45.8985 30.8206C46.2757 30.1417 46.5253 30.1173 47.2712 30.1158Z" fill="#1A4D2E"/>
<path d="M47.5962 36.8354C47.775 36.8345 47.9538 36.8336 48.1379 36.8327C48.4311 36.8336 48.4311 36.8336 48.7303 36.8346C48.9387 36.8342 49.1471 36.8336 49.3556 36.8329C49.9212 36.8315 50.4867 36.8321 51.0523 36.8331C51.6443 36.8338 52.2362 36.8331 52.8282 36.8326C53.8222 36.8321 54.8163 36.8328 55.8103 36.8343C56.9596 36.836 58.1088 36.8354 59.258 36.8337C60.2447 36.8323 61.2315 36.8321 62.2182 36.8329C62.8075 36.8334 63.3968 36.8335 63.9862 36.8324C64.5402 36.8315 65.0942 36.8322 65.6483 36.834C65.9486 36.8346 66.2489 36.8337 66.5492 36.8327C66.8173 36.834 66.8173 36.834 67.0909 36.8354C67.3238 36.8355 67.3238 36.8355 67.5615 36.8357C67.9844 36.8766 68.2364 36.9619 68.5936 37.1875C68.8939 37.5879 68.9077 37.7863 68.8768 38.291C68.742 38.7784 68.6779 38.9233 68.2811 39.2188C67.8859 39.2778 67.8859 39.2778 67.4044 39.2783C67.1306 39.2803 67.1306 39.2803 66.8514 39.2823C66.651 39.2814 66.4505 39.2804 66.244 39.2794C66.031 39.2801 65.818 39.2809 65.605 39.2819C65.0261 39.2841 64.4473 39.2832 63.8685 39.2817C63.263 39.2806 62.6575 39.2817 62.052 39.2824C61.0349 39.2833 60.0178 39.2821 59.0008 39.2799C57.8248 39.2773 56.6489 39.2782 55.473 39.2808C54.4637 39.2829 53.4544 39.2832 52.4451 39.282C51.8422 39.2812 51.2392 39.2811 50.6363 39.2827C50.0693 39.284 49.5023 39.2831 48.9353 39.2804C48.6279 39.2795 48.3205 39.2809 48.0132 39.2823C47.8302 39.281 47.6473 39.2797 47.4588 39.2783C47.2204 39.278 47.2204 39.278 46.9771 39.2778C46.4973 39.2095 46.2847 39.0828 45.9373 38.75C45.7652 38.2829 45.765 38.0317 45.8885 37.5489C46.2835 36.8529 46.8447 36.8359 47.5962 36.8354Z" fill="#1A4D2E"/>
<path d="M47.4958 43.7067C47.6639 43.7055 47.6639 43.7055 47.8354 43.7043C48.2068 43.7021 48.5782 43.7022 48.9497 43.7026C49.2074 43.702 49.465 43.7013 49.7227 43.7006C50.2632 43.6994 50.8037 43.6994 51.3442 43.7003C52.0375 43.7012 52.7306 43.6985 53.4239 43.6949C53.9561 43.6926 54.4884 43.6925 55.0207 43.693C55.2763 43.6929 55.5319 43.692 55.7875 43.6905C56.1448 43.6886 56.5019 43.6896 56.8592 43.6914C57.1643 43.6913 57.1643 43.6913 57.4756 43.6911C57.9689 43.7496 57.9689 43.7496 58.2646 43.9644C58.5038 44.3156 58.5636 44.5757 58.5939 44.9996C58.4804 45.4429 58.406 45.6959 58.0226 45.9571C57.5324 46.1394 57.1143 46.1331 56.5913 46.1338C56.4855 46.1343 56.3798 46.1349 56.2708 46.1354C55.9221 46.1368 55.5734 46.1359 55.2247 46.1348C54.9819 46.1351 54.7391 46.1354 54.4962 46.1358C53.9877 46.1362 53.4791 46.1355 52.9705 46.1341C52.319 46.1323 51.6675 46.1333 51.016 46.1352C50.5147 46.1363 50.0134 46.136 49.5121 46.1352C49.2718 46.135 49.0316 46.1352 48.7914 46.1359C48.4556 46.1367 48.1198 46.1355 47.7839 46.1338C47.5929 46.1335 47.4019 46.1333 47.205 46.133C46.7374 46.0949 46.4755 46.0474 46.0939 45.7808C45.8384 45.2583 45.744 44.9802 45.8985 44.4137C46.3207 43.6538 46.6639 43.7096 47.4958 43.7067Z" fill="#1A4D2E"/>
<path d="M38.2811 53.9798C38.4175 53.9792 38.5538 53.9786 38.6943 53.978C38.9822 53.9776 39.2701 53.9787 39.558 53.9813C39.9984 53.9847 40.4384 53.9814 40.8788 53.9774C41.1587 53.9778 41.4387 53.9786 41.7186 53.9798C41.8502 53.9785 41.9817 53.9773 42.1172 53.976C42.7128 53.9855 43.0265 53.9923 43.5204 54.3463C43.8581 54.8489 43.8343 55.1905 43.7499 55.7816C43.4933 56.1634 43.292 56.3736 42.831 56.4646C42.4588 56.4895 42.0917 56.4932 41.7186 56.4896C41.5823 56.4902 41.4459 56.4908 41.3054 56.4914C41.0175 56.4918 40.7296 56.4907 40.4418 56.488C40.0014 56.4847 39.5614 56.488 39.121 56.492C38.841 56.4916 38.5611 56.4908 38.2811 56.4896C38.1496 56.4908 38.0181 56.4921 37.8826 56.4934C37.2869 56.4839 36.9733 56.4771 36.4794 56.1231C36.1416 55.6205 36.1654 55.2789 36.2499 54.6878C36.7787 53.9008 37.4151 53.9715 38.2811 53.9798Z" fill="#1A4D2E"/>
</svg>
