<svg width="122" height="120" viewBox="0 0 122 120" fill="none" xmlns="http://www.w3.org/2000/svg">
<path d="M60.4297 0.00337214C60.985 0.00432174 61.5403 0.00337939 62.0955 0.00225312C62.4522 0.0023709 62.809 0.00259898 63.1657 0.00294496C63.3299 0.00258426 63.4939 0.00223086 63.663 0.0018628C63.8191 0.00241489 63.975 0.00297452 64.1358 0.0035487C64.3385 0.00375481 64.3385 0.00375468 64.5452 0.00396816C65.1749 0.0342743 65.8005 0.1247 66.426 0.202567C66.426 3.69173 66.426 7.18095 66.426 10.7758C64.4221 10.8031 64.4221 10.8031 62.3776 10.8309C59.2749 10.8878 56.2182 10.9634 53.1524 11.4807C52.9742 11.5097 52.7961 11.5388 52.6125 11.5688C44.5962 12.9119 36.8277 16.2416 30.4987 21.3491C30.3363 21.477 30.1738 21.6048 30.0065 21.7366C27.3368 23.864 24.8165 26.2419 22.7115 28.9266C22.6262 29.0333 22.5409 29.14 22.453 29.2499C18.8482 33.762 16.0458 38.7797 14.2164 44.2577C14.1654 44.4096 14.1144 44.5614 14.0619 44.7178C9.87556 57.3844 11.2843 71.011 17.2611 82.853C18.6702 85.5671 20.3266 88.156 22.2991 90.4999C22.5346 90.7803 22.7655 91.0637 22.9963 91.3479C25.2142 94.0384 27.7215 96.6295 30.5592 98.673C30.8666 98.8961 31.1681 99.1265 31.4693 99.3576C33.2379 100.703 35.1171 101.84 37.0471 102.94C37.2351 103.048 37.2351 103.048 37.427 103.158C41.6763 105.586 46.3982 107.1 51.1724 108.105C51.3747 108.148 51.577 108.19 51.7854 108.235C54.6672 108.812 57.5044 108.993 60.4396 108.986C60.9692 108.986 61.4986 108.99 62.0281 108.994C65.1843 109.005 68.2946 108.67 71.3815 108.006C71.5553 107.969 71.729 107.931 71.908 107.893C82.463 105.561 92.6765 99.5166 99.345 90.9562C99.5231 90.7332 99.7013 90.5102 99.8795 90.2871C103.913 85.1909 106.635 79.5228 108.548 73.3342C94.6474 73.2761 80.7471 73.2179 66.426 73.1583C66.426 78.1595 66.426 83.16 66.426 88.3128C65.051 88.541 63.7583 88.7391 62.3776 88.7979C62.2055 88.8053 62.0334 88.8127 61.8561 88.82C59.7986 88.8863 57.6348 88.8119 55.6302 88.3128C55.6302 64.4121 55.6302 40.5113 55.6302 15.8862C65.7206 13.8768 77.4476 17.3843 85.8313 22.9433C87.3069 23.9483 88.6998 25.0374 90.0401 26.2154C90.2419 26.3924 90.4452 26.5681 90.6493 26.7428C92.6535 28.4655 94.5661 30.3418 96.1593 32.451C96.2443 32.5621 96.3286 32.6732 96.4166 32.7878C97.9159 34.7583 99.2259 36.797 100.407 38.9711C100.505 39.1516 100.505 39.1516 100.605 39.3357C103.773 45.2352 105.393 51.7702 105.661 58.4325C105.67 58.6436 105.678 58.8547 105.687 59.0722C105.697 59.3767 105.697 59.3767 105.707 59.6874C105.713 59.8679 105.719 60.0484 105.726 60.2343C105.714 60.9615 105.619 61.6856 105.539 62.4085C110.737 62.4085 115.935 62.4085 121.29 62.4085C121.083 66.5446 121.083 66.5446 120.815 68.3229C120.768 68.6333 120.768 68.6333 120.722 68.9499C118.578 82.8015 111.56 96.1025 100.761 105.23C100.6 105.371 100.439 105.512 100.274 105.657C96.872 108.609 93.0587 111.056 89.0798 113.16C88.9652 113.221 88.8506 113.282 88.7323 113.345C74.707 120.76 58.0986 121.799 42.987 117.357C32.4127 114.126 21.8228 107.557 14.9347 98.8188C14.5426 98.3226 14.1315 97.8456 13.7186 97.3664C9.95267 92.8621 7.02647 87.5649 4.83631 82.1456C4.7734 81.9903 4.71049 81.835 4.64567 81.6752C2.87816 77.2474 1.76344 72.5871 1.11968 67.8714C1.09522 67.6926 1.09522 67.6926 1.07026 67.5102C0.743956 65.0472 0.702032 62.5994 0.710413 60.1176C0.710736 59.9193 0.711058 59.7211 0.711391 59.5168C0.719457 56.5714 0.800772 53.688 1.29667 50.778C1.32704 50.5916 1.35741 50.4053 1.3887 50.2134C3.17285 39.4831 7.87608 29.1802 15.1012 20.9966C15.2094 20.8714 15.3176 20.7463 15.429 20.6173C17.2057 18.5674 19.0482 16.5879 21.1187 14.8289C21.3575 14.6203 21.3575 14.6203 21.6012 14.4076C30.8351 6.40478 42.5989 1.48677 54.7452 0.202567C54.8896 0.185702 55.0339 0.168838 55.1827 0.151458C56.9269 -0.026301 58.6785 -0.000190691 60.4297 0.00337214ZM66.426 26.8119C66.426 38.5588 66.426 50.3057 66.426 62.4085C75.7708 62.4085 85.1156 62.4085 94.7435 62.4085C94.819 57.7621 94.819 57.7621 94.212 53.2451C94.1669 53.0387 94.1669 53.0387 94.1203 52.8282C92.9256 47.6011 90.6389 42.7055 87.1332 38.6187C86.9602 38.4176 86.9602 38.4176 86.7842 38.2126C86.3783 37.752 85.9621 37.3031 85.54 36.8565C85.4461 36.7572 85.3529 36.6578 85.2561 36.5554C80.4403 31.4953 74.0249 28.084 67.134 26.8119C66.9004 26.8119 66.6668 26.8119 66.426 26.8119Z" fill="#1A4D2E"/>
<path d="M50.6736 16.7675C50.6736 20.4893 50.6736 24.2111 50.6736 28.0456C49.4471 28.5108 48.2206 28.976 46.9569 29.4554C43.9875 30.9055 41.3095 32.5748 38.8157 34.742C38.7262 34.8194 38.6367 34.8967 38.5444 34.9764C31.8832 40.7709 28.0749 49.0485 27.3562 57.7718C27.3379 58.1425 27.3228 58.5133 27.3119 58.8843C27.3048 59.0583 27.2978 59.2323 27.2905 59.4116C27.0944 68.4387 30.7405 76.8479 36.8689 83.3788C37.0033 83.5224 37.1377 83.6659 37.2761 83.8131C42.9978 89.7154 51.4876 93.3003 59.7052 93.4534C68.2934 93.5145 76.5239 91.0566 83.0616 85.317C83.2353 85.1654 83.4091 85.0137 83.5887 84.857C85.6033 83.0726 87.2645 81.0917 88.8518 78.929C88.9265 78.8274 89.0011 78.7258 89.0788 78.6213C89.1468 78.4998 89.2148 78.3791 89.2843 78.2547C89.6096 77.9161 89.6096 77.9161 90.1367 77.8314C90.3526 77.8329 90.5685 77.8343 90.791 77.8358C90.9699 77.8358 90.9699 77.8358 91.1518 77.8358C91.5458 77.8366 91.9391 77.8417 92.3324 77.8476C92.606 77.8483 92.8788 77.8498 93.1516 77.8505C93.8702 77.8527 94.5888 77.8601 95.3066 77.8675C96.04 77.8748 96.7734 77.8785 97.5061 77.8815C98.9448 77.8896 100.383 77.9013 101.821 77.9161C101.516 78.8428 101.139 79.6666 100.682 80.5263C100.604 80.6728 100.527 80.8193 100.447 80.9695C97.9748 85.5496 94.5533 90.1121 90.4945 93.4232C90.3452 93.552 90.1959 93.6809 90.0421 93.8141C85.4976 97.6949 80.1169 100.671 74.3891 102.411C74.1619 102.481 74.1619 102.481 73.9301 102.553C69.7699 103.816 65.5238 104.39 61.1819 104.394C60.9778 104.394 60.9778 104.394 60.7697 104.394C56.9026 104.389 53.1847 103.882 49.4346 102.94C49.2873 102.902 49.1399 102.865 48.9881 102.827C42.3095 101.102 36.0667 97.5669 31.0285 92.8947C30.7896 92.6886 30.55 92.4832 30.3096 92.2778C29.0269 91.1596 27.8886 89.9568 26.8246 88.6311C26.5656 88.3094 26.3026 87.9906 26.035 87.6756C24.2266 85.543 22.79 83.1918 21.4715 80.7354C21.4109 80.6235 21.3502 80.5116 21.2877 80.3968C15.7628 70.1264 14.9673 57.8699 18.2796 46.789C19.64 42.4439 21.6216 38.2591 24.3032 34.5658C24.4337 34.3843 24.5642 34.2028 24.6987 34.0158C26.027 32.2124 27.4575 30.4743 29.0817 28.9267C29.5107 28.5031 29.9361 28.0775 30.3531 27.6423C34.8759 22.975 43.8672 16.7675 50.6736 16.7675Z" fill="#7B8D6A"/>
<path d="M90.0404 26.2151C90.2422 26.3922 90.4455 26.5679 90.6496 26.7426C92.6538 28.4653 94.5664 30.3416 96.1596 32.4508C96.2439 32.5619 96.3289 32.6731 96.4169 32.7876C97.9162 34.7581 99.2262 36.7968 100.407 38.971C100.472 39.0912 100.538 39.2116 100.605 39.3356C103.773 45.235 105.393 51.77 105.661 58.4324C105.67 58.6435 105.678 58.8545 105.687 59.072C105.697 59.3766 105.697 59.3766 105.708 59.6872C105.714 59.8677 105.719 60.0481 105.725 60.2341C105.714 60.9614 105.62 61.6854 105.539 62.4084C101.976 62.4084 98.4137 62.4084 94.7431 62.4084C94.7253 61.5506 94.7068 60.6928 94.6884 59.809C94.44 51.0928 91.3874 43.2432 85.3635 36.8563C85.2756 36.7627 85.1876 36.669 85.0967 36.5725C79.9393 31.1313 73.6343 28.606 66.4263 26.8117C66.4263 47.1071 66.4263 67.4024 66.4263 88.3128C65.0512 88.541 63.7585 88.739 62.3778 88.7972C62.2057 88.8045 62.0336 88.8126 61.8563 88.82C59.7988 88.8863 57.635 88.8119 55.6304 88.3128C55.6304 64.4119 55.6304 40.5112 55.6304 15.886C67.4428 13.5337 81.2212 18.465 90.0404 26.2151Z" fill="#4E6F52"/>
</svg>
