<svg width="80" height="80" viewBox="0 0 80 80" fill="none" xmlns="http://www.w3.org/2000/svg">
<path d="M32.6515 3.49584C32.8915 3.49418 32.8915 3.49418 33.1364 3.49248C33.6743 3.48973 34.2121 3.49257 34.75 3.49539C35.1349 3.49459 35.5199 3.49345 35.9049 3.492C36.843 3.4894 37.7811 3.49046 38.7192 3.49326C39.4818 3.49545 40.2443 3.49606 41.0068 3.49554C41.1695 3.49543 41.1695 3.49543 41.3356 3.49531C41.556 3.49515 41.7764 3.49499 41.9967 3.49482C43.9463 3.49348 45.8959 3.49609 47.8455 3.50073C49.737 3.50523 51.6285 3.50634 53.5201 3.50393C55.5796 3.50131 57.6391 3.50068 59.6986 3.50342C59.9183 3.50371 60.1379 3.50399 60.3576 3.50428C60.4657 3.50442 60.5738 3.50456 60.6852 3.50471C61.4466 3.50559 62.2079 3.50507 62.9693 3.50404C63.9946 3.5027 65.0197 3.50473 66.045 3.50901C66.4215 3.51009 66.798 3.5101 67.1746 3.50898C67.6881 3.50763 68.2015 3.51011 68.7151 3.51358C68.8645 3.51229 69.014 3.51101 69.1679 3.50968C70.0455 3.52065 70.5558 3.62942 71.25 4.219C71.8112 4.84083 72.0524 5.29309 72.0465 6.13001C72.046 6.25539 72.0455 6.38077 72.045 6.50995C72.0437 6.64017 72.0424 6.77038 72.041 6.90454C72.0403 7.03657 72.0396 7.1686 72.0389 7.30463C72.037 7.63026 72.0342 7.95588 72.0312 8.2815C72.1249 8.27904 72.2186 8.27659 72.3151 8.27406C72.7446 8.26424 73.174 8.25819 73.6035 8.2522C73.7509 8.24827 73.8982 8.24435 74.05 8.2403C75.1961 8.22832 75.9552 8.35932 76.8457 9.13111C77.418 9.8015 77.5391 10.2355 77.5402 11.1186C77.5412 11.3173 77.5422 11.516 77.5433 11.7207C77.5428 11.9416 77.5423 12.1626 77.5418 12.3835C77.5424 12.6179 77.5431 12.8522 77.5439 13.0866C77.5458 13.7315 77.5458 14.3764 77.5454 15.0214C77.5454 15.7166 77.5471 16.4118 77.5486 17.107C77.5512 18.4694 77.552 19.8318 77.5522 21.1943C77.5524 22.3015 77.553 23.4088 77.554 24.5161C77.5567 27.6541 77.5582 30.7922 77.5579 33.9303C77.5579 34.0996 77.5579 34.2688 77.5579 34.4432C77.5579 34.6126 77.5579 34.7821 77.5579 34.9567C77.5577 37.7032 77.5607 40.4496 77.5651 43.1961C77.5696 46.015 77.5718 48.8339 77.5715 51.6528C77.5714 53.2358 77.5723 54.8189 77.5756 56.4019C77.5785 57.7498 77.5792 59.0976 77.577 60.4455C77.576 61.1333 77.576 61.821 77.5787 62.5088C77.5812 63.1385 77.5807 63.7681 77.578 64.3978C77.5775 64.6255 77.5781 64.8533 77.5798 65.081C77.595 67.2125 77.595 67.2125 76.875 68.1253C75.9174 68.8834 75.1669 68.9295 73.9798 68.9253C73.7761 68.9255 73.7761 68.9255 73.5683 68.9257C73.1124 68.9259 72.6566 68.9251 72.2008 68.9242C71.8743 68.9242 71.5479 68.9242 71.2215 68.9243C70.3344 68.9243 69.4473 68.9234 68.5602 68.9223C67.6335 68.9214 66.7068 68.9213 65.78 68.9211C64.0248 68.9206 62.2695 68.9193 60.5142 68.9177C58.516 68.916 56.5179 68.9151 54.5197 68.9144C50.409 68.9127 46.2982 68.91 42.1875 68.9065C42.1875 69.6284 42.1875 70.3503 42.1875 71.094C42.5388 71.0811 42.89 71.0682 43.252 71.0549C43.8507 71.033 43.8507 71.033 44.375 71.094C44.7379 71.4467 44.8366 71.6658 44.9044 72.1698C44.9049 72.3403 44.9055 72.5108 44.906 72.6864C44.9066 72.8726 44.9072 73.0588 44.9078 73.2507C44.9051 73.5415 44.9051 73.5415 44.9023 73.8381C44.9042 74.0326 44.906 74.2271 44.9078 74.4274C44.9072 74.6134 44.9066 74.7994 44.906 74.9911C44.9055 75.1614 44.9049 75.3317 44.9044 75.5072C44.8347 76.0019 44.7599 76.1057 44.375 76.4065C44.0799 76.4656 44.0799 76.4656 43.7403 76.4664C43.5458 76.4685 43.5458 76.4685 43.3475 76.4706C43.1339 76.4694 43.1339 76.4694 42.9159 76.4681C42.7646 76.4691 42.6134 76.47 42.4575 76.471C41.9483 76.4736 41.4391 76.4729 40.9299 76.4721C40.5657 76.4733 40.2016 76.4746 39.8374 76.4761C38.8467 76.4796 37.856 76.48 36.8652 76.4798C36.0393 76.4797 35.2133 76.4811 34.3873 76.4824C32.3281 76.4856 30.2688 76.4857 28.2095 76.4846C26.4199 76.4837 24.6304 76.487 22.8408 76.4921C21.0043 76.4974 19.1679 76.4998 17.3314 76.4991C16.2999 76.4987 15.2685 76.4996 14.237 76.5034C13.2674 76.5069 12.2979 76.5066 11.3284 76.5034C10.9718 76.5029 10.6152 76.5037 10.2586 76.5059C9.77327 76.5088 9.28816 76.5068 8.80281 76.5036C8.66041 76.5056 8.51801 76.5075 8.37129 76.5095C8.01159 76.5044 7.69258 76.4942 7.34375 76.4065C6.88046 75.8737 6.81607 75.4448 6.81824 74.7506C6.81834 74.5868 6.81844 74.4229 6.81854 74.2541C6.82106 74.0846 6.82358 73.9151 6.82617 73.7405C6.82542 73.4853 6.82542 73.4853 6.82465 73.225C6.83429 71.7997 6.83429 71.7997 7.1875 71.2503C7.88782 70.9001 8.74827 71.094 9.53125 71.094C9.53125 64.3909 9.53125 57.6877 9.53125 50.7815C8.39687 51.4002 7.2625 52.019 6.09375 52.6565C5.21619 52.481 4.93974 52.1836 4.38477 51.5432C4.30264 51.4504 4.22051 51.3576 4.13589 51.262C3.97441 51.0793 3.81353 50.896 3.65334 50.7121C3.47754 50.5141 3.29351 50.3234 3.1073 50.1351C2.65887 49.676 2.50435 49.4056 2.41211 48.7631C2.42386 48.4294 2.42386 48.4294 2.5 48.1252C2.865 47.8041 3.12907 47.633 3.55469 47.4221C3.79667 47.2913 4.03857 47.1602 4.2804 47.0291C4.41728 46.9568 4.55417 46.8846 4.69521 46.8102C5.51416 46.3706 6.31735 45.903 7.12301 45.4396C7.40581 45.2773 7.68908 45.1159 7.97256 44.9548C8.92348 44.4139 9.86704 43.8658 10.7959 43.2878C11.0938 43.1252 11.0938 43.1252 11.4062 43.1252C11.4038 42.962 11.4013 42.7988 11.3988 42.6307C11.3903 42.0253 11.3849 41.4199 11.3805 40.8145C11.3781 40.5524 11.3749 40.2904 11.3709 40.0284C11.3652 39.6517 11.3625 39.2752 11.3605 38.8986C11.3581 38.7814 11.3556 38.6642 11.3531 38.5434C11.353 38.1003 11.3593 37.7442 11.5712 37.3487C12.0418 37.0994 12.5123 37.1178 13.0322 37.12C13.1449 37.1192 13.2576 37.1184 13.3737 37.1175C13.6116 37.1165 13.8496 37.1167 14.0876 37.1181C14.4519 37.1194 14.8158 37.1149 15.1801 37.1099C15.4114 37.1097 15.6427 37.1098 15.874 37.1102C15.9829 37.1085 16.0918 37.1067 16.204 37.1049C16.6878 37.1119 16.9626 37.1269 17.3312 37.4538C17.5234 37.8625 17.5778 38.1833 17.6074 38.6331C17.6177 38.7724 17.628 38.9118 17.6385 39.0554C17.6473 39.2137 17.6473 39.2137 17.6562 39.3752C18.2684 39.0337 18.8803 38.6918 19.4922 38.3499C19.6628 38.2547 19.8334 38.1595 20.0092 38.0615C21.0383 37.486 22.0585 36.899 23.0696 36.2924C23.4375 36.094 23.4375 36.094 23.75 36.094C23.7488 35.9748 23.7477 35.8556 23.7465 35.7328C23.7189 32.827 23.6982 29.9213 23.6852 27.0154C23.6788 25.6102 23.67 24.205 23.6557 22.7997C23.6432 21.5744 23.6352 20.3491 23.6324 19.1237C23.6308 18.4753 23.627 17.8271 23.6178 17.1788C23.6093 16.5673 23.6067 15.9562 23.6086 15.3447C23.6083 15.1214 23.6058 14.8981 23.601 14.6749C23.5675 13.0473 23.9131 12.1455 25 10.9377C25.1613 10.7428 25.3223 10.5475 25.4828 10.3518C25.6305 10.182 25.7788 10.0127 25.9277 9.844C26.0908 9.65634 26.2538 9.46856 26.4166 9.28064C26.495 9.19033 26.5734 9.10002 26.6541 9.00698C27.0763 8.51623 27.4831 8.01308 27.8912 7.51062C28.4932 6.77117 29.1007 6.03635 29.7076 5.30096C29.8417 5.13821 29.8417 5.13821 29.9786 4.97217C30.0581 4.87592 30.1375 4.77967 30.2193 4.6805C30.4852 4.37229 30.4852 4.37229 30.6995 3.97168C31.2981 3.39828 31.8509 3.48598 32.6515 3.49584ZM32.8125 5.469C32.8102 5.65815 32.8079 5.84731 32.8056 6.04219C32.7965 6.74636 32.7844 7.45044 32.7715 8.15454C32.7663 8.45884 32.7619 8.76316 32.7584 9.06748C32.7531 9.50583 32.7449 9.94404 32.7362 10.3823C32.7352 10.5176 32.7342 10.6529 32.7332 10.7923C32.7142 11.579 32.6229 12.1316 32.1875 12.8127C30.2333 14.5763 29.2983 13.6453 25.625 13.7502C25.625 20.7627 25.625 27.7752 25.625 35.0002C26.0891 35.1549 26.5531 35.3096 27.0312 35.469C27.488 35.6957 27.488 35.6957 27.8845 35.9329C28.0358 36.0223 28.187 36.1117 28.3429 36.2039C28.4966 36.2965 28.6503 36.3892 28.8086 36.4846C29.2707 36.7595 29.7328 37.0338 30.1981 37.3034C30.612 37.5477 31.0054 37.8109 31.3985 38.0875C33.4542 39.4773 35.179 39.6108 37.6123 39.5608C37.9748 39.5599 38.3372 39.5598 38.6997 39.5606C39.6439 39.5606 40.5877 39.5508 41.5318 39.5384C43.0512 39.5203 44.5706 39.5181 46.09 39.5145C46.6194 39.512 47.1486 39.5057 47.6779 39.4987C48 39.4961 48.322 39.4936 48.6441 39.4912C48.7912 39.4883 48.9382 39.4854 49.0897 39.4824C49.2913 39.4816 49.2913 39.4816 49.497 39.4808C49.6137 39.4793 49.7304 39.4777 49.8506 39.4762C50.2481 39.5481 50.3886 39.6769 50.625 40.0002C50.5957 40.4885 50.5957 40.4885 50.4688 40.9377C49.9858 41.1792 49.4749 41.1221 48.9446 41.1261C48.8196 41.1276 48.6946 41.1292 48.5658 41.1308C48.1515 41.1357 47.7373 41.1396 47.323 41.1434C47.0362 41.1467 46.7494 41.1499 46.4626 41.1533C45.7068 41.1619 44.9511 41.1696 44.1954 41.1772C43.4246 41.185 42.6538 41.1937 41.8829 41.2023C40.3699 41.2192 38.8568 41.235 37.3438 41.2502C37.8751 41.6828 38.3901 42.0443 38.9923 42.3721C39.1609 42.4646 39.3295 42.5571 39.5032 42.6524C39.6832 42.7504 39.8633 42.8485 40.0488 42.9495C40.431 43.1592 40.8128 43.3698 41.1945 43.5806C41.3392 43.6605 41.3392 43.6605 41.4869 43.742C42.5876 44.3513 43.6744 44.9841 44.7576 45.624C45.4933 46.0583 46.231 46.4847 46.9818 46.8923C47.1206 46.9688 47.2594 47.0453 47.4023 47.1241C47.6615 47.2664 47.9221 47.4063 48.1842 47.5431C49.0134 48.0028 49.0134 48.0028 49.2517 48.597C49.2112 49.1699 49.077 49.3654 48.7012 49.7952C48.5864 49.9277 48.4716 50.0602 48.3533 50.1968C48.2264 50.3382 48.0995 50.4796 47.9688 50.6252C47.8337 50.7841 47.6991 50.9432 47.5647 51.1025C46.4085 52.4393 46.4085 52.4393 45.625 52.5002C45.2376 52.3459 45.2376 52.3459 44.8364 52.1054C44.6192 51.9777 44.6192 51.9777 44.3976 51.8475C44.2483 51.7567 44.0991 51.666 43.9453 51.5725C43.6468 51.3951 43.3481 51.2179 43.0493 51.0409C42.8518 50.9216 42.8518 50.9216 42.6503 50.7998C42.3799 50.6124 42.3799 50.6124 42.1875 50.6252C42.1875 51.3987 42.1875 52.1721 42.1875 52.969C42.4209 52.9705 42.6543 52.9719 42.8947 52.9734C43.7602 52.9797 44.6256 52.9899 45.491 53.0014C45.8657 53.0058 46.2403 53.0091 46.615 53.0113C47.1534 53.0147 47.6916 53.022 48.23 53.03C48.4815 53.0303 48.4815 53.0303 48.7381 53.0306C48.8944 53.0337 49.0508 53.0368 49.2119 53.04C49.3493 53.0413 49.4867 53.0427 49.6283 53.0442C50.1223 53.1519 50.3167 53.3571 50.625 53.7502C50.5781 54.4221 50.5781 54.4221 50.3125 54.6877C50.0585 54.7069 49.8036 54.7155 49.5489 54.7198C49.3863 54.7229 49.2236 54.7261 49.056 54.7293C48.8791 54.7319 48.7022 54.7345 48.5199 54.7372C48.3398 54.7404 48.1597 54.7437 47.9741 54.747C47.3961 54.7573 46.8182 54.7665 46.2402 54.7756C45.8495 54.7824 45.4588 54.7892 45.0681 54.7961C44.1079 54.813 43.1477 54.8285 42.1875 54.844C42.1875 57.2674 42.1875 59.6909 42.1875 62.1877C45.765 62.1983 49.3424 62.207 52.9199 62.212C54.5809 62.2145 56.2419 62.2178 57.9029 62.2231C59.3502 62.2278 60.7976 62.2308 62.245 62.2318C63.0117 62.2325 63.7784 62.2339 64.5451 62.2373C65.2662 62.2405 65.9873 62.2415 66.7084 62.2408C66.9736 62.2409 67.2387 62.2418 67.5038 62.2436C67.8649 62.2459 68.226 62.2454 68.5871 62.2441C68.7895 62.2445 68.9919 62.245 69.2003 62.2454C69.6727 62.2279 69.6727 62.2279 69.9487 62.0077C70.2446 61.5962 70.2148 61.2959 70.2148 60.7915C70.2159 60.5965 70.217 60.4016 70.2182 60.2007C70.2171 59.9832 70.2159 59.7656 70.2147 59.5481C70.2151 59.318 70.2158 59.0878 70.2166 58.8576C70.2183 58.2236 70.217 57.5896 70.2152 56.9555C70.2139 56.2724 70.2152 55.5892 70.2161 54.9061C70.2176 53.5671 70.2166 52.2282 70.2147 50.8893C70.2126 49.3312 70.2128 47.7731 70.2132 46.215C70.2137 43.4357 70.2118 40.6564 70.2088 37.8771C70.2058 35.1779 70.2047 32.4788 70.2056 29.7797C70.2065 26.843 70.2065 23.9064 70.2047 20.9698C70.2045 20.6569 70.2043 20.3439 70.2042 20.031C70.2041 19.877 70.204 19.723 70.2039 19.5644C70.2033 18.4774 70.2033 17.3904 70.2036 16.3034C70.2039 14.9794 70.2031 13.6554 70.2009 12.3314C70.1997 11.6554 70.1991 10.9794 70.1998 10.3034C70.2004 9.68524 70.1996 9.06709 70.1977 8.44893C70.1972 8.22465 70.1973 8.00038 70.1979 7.7761C70.1987 7.4725 70.1974 7.16888 70.196 6.86527C70.1959 6.69626 70.1957 6.52724 70.1956 6.3531C70.186 5.90213 70.186 5.90213 69.8438 5.469C69.3525 5.42306 68.892 5.40794 68.4003 5.41263C68.2488 5.41223 68.0974 5.41183 67.9413 5.41142C67.4305 5.41064 66.9197 5.41323 66.4089 5.41578C66.044 5.41592 65.6792 5.41584 65.3143 5.41558C64.321 5.41544 63.3277 5.4182 62.3344 5.42147C61.4023 5.4241 60.4702 5.42457 59.5382 5.42506C57.6917 5.42608 55.8452 5.4292 53.9987 5.43364C52.2047 5.43794 50.4108 5.44126 48.6168 5.44325C48.5063 5.44337 48.3957 5.4435 48.2819 5.44362C47.7274 5.44423 47.1729 5.44483 46.6184 5.44541C42.0164 5.45027 37.4145 5.45856 32.8125 5.469ZM30.7812 7.0315C30.4597 7.3856 30.1453 7.74281 29.834 8.10572C29.7421 8.21245 29.6501 8.31919 29.5554 8.42916C28.6027 9.5398 27.6782 10.6502 26.875 11.8752C27.4935 11.8888 28.1119 11.8972 28.7305 11.9045C28.9067 11.9085 29.0829 11.9124 29.2645 11.9164C29.5168 11.9187 29.5168 11.9187 29.7742 11.921C29.9296 11.9235 30.0851 11.9259 30.2453 11.9285C30.3706 11.9109 30.4959 11.8933 30.625 11.8752C30.9986 11.3148 30.974 11.0684 30.968 10.4037C30.967 10.2078 30.966 10.0119 30.965 9.81012C30.9623 9.60538 30.9597 9.40065 30.957 9.1897C30.9555 8.98106 30.954 8.77243 30.9528 8.56379C30.9491 8.053 30.9439 7.54226 30.9375 7.0315C30.8859 7.0315 30.8344 7.0315 30.7812 7.0315ZM72.0312 10.1565C72.0311 10.321 72.0311 10.321 72.031 10.4889C72.0254 16.9879 72.0165 23.487 72.0034 29.9861C72.0019 30.7662 72.0003 31.5464 71.9988 32.3266C71.9984 32.5595 71.9984 32.5595 71.9979 32.7972C71.9931 35.3129 71.9904 37.8285 71.9886 40.3442C71.9866 42.925 71.9823 45.5059 71.9758 48.0867C71.9719 49.6795 71.9698 51.2723 71.9701 52.8652C71.9701 53.9571 71.9678 55.049 71.9637 56.1409C71.9614 56.7711 71.9602 57.4012 71.9616 58.0314C71.9629 58.6085 71.9613 59.1855 71.9574 59.7626C71.9561 60.07 71.9579 60.3774 71.9598 60.6847C71.9495 61.7376 71.902 62.4363 71.25 63.2815C70.0942 64.1573 68.6901 63.9963 67.305 63.9918C67.0308 63.9932 66.7566 63.9948 66.4824 63.9967C65.7406 64.001 64.9989 64.0016 64.2571 64.0014C63.4809 64.0019 62.7048 64.0059 61.9286 64.0095C60.46 64.0159 58.9914 64.0191 57.5228 64.0211C55.8503 64.0236 54.1779 64.0296 52.5054 64.0359C49.0661 64.0487 45.6268 64.0571 42.1875 64.0627C42.1875 65.0424 42.1875 66.0221 42.1875 67.0315C46.4549 67.0423 50.7223 67.0507 54.9898 67.0558C56.9711 67.0582 58.9525 67.0615 60.9338 67.0669C62.6604 67.0715 64.387 67.0746 66.1135 67.0756C67.0281 67.0762 67.9426 67.0777 68.8572 67.0811C69.7175 67.0842 70.5777 67.0852 71.438 67.0845C71.7542 67.0846 72.0704 67.0856 72.3866 67.0874C72.8175 67.0897 73.2483 67.0891 73.6792 67.0879C73.805 67.0892 73.9309 67.0906 74.0605 67.092C74.5379 67.0882 74.9167 67.075 75.3444 66.8516C75.7375 66.4469 75.7033 66.1916 75.7037 65.6328C75.7061 65.3395 75.7061 65.3395 75.7086 65.0404C75.7072 64.8222 75.7058 64.6041 75.7044 64.3859C75.7051 64.1551 75.7061 63.9243 75.7073 63.6935C75.7099 63.0577 75.7086 62.4219 75.7067 61.7861C75.7053 61.101 75.7075 60.4159 75.7092 59.7309C75.712 58.3881 75.7114 57.0455 75.7096 55.7028C75.7081 54.6119 75.708 53.521 75.7086 52.4301C75.7088 52.1975 75.7088 52.1975 75.7089 51.9603C75.7091 51.6453 75.7093 51.3304 75.7095 51.0154C75.7113 48.0597 75.7093 45.104 75.7059 42.1483C75.7031 39.6102 75.7036 37.0721 75.7065 34.5339C75.7098 31.5891 75.7111 28.6442 75.7092 25.6993C75.709 25.3855 75.7088 25.0717 75.7086 24.7579C75.7085 24.6035 75.7084 24.4491 75.7083 24.29C75.7078 23.1999 75.7087 22.1099 75.7102 21.0199C75.7119 19.6921 75.7115 18.3644 75.7081 17.0367C75.7065 16.3588 75.7059 15.6809 75.7079 15.003C75.7098 14.3831 75.7088 13.7632 75.7054 13.1433C75.7047 12.9184 75.7051 12.6935 75.7066 12.4686C75.7085 12.1641 75.7062 11.8597 75.7037 11.5552C75.7035 11.3857 75.7034 11.2162 75.7033 11.0416C75.6612 10.6114 75.6612 10.6114 75.352 10.3356C74.9596 10.136 74.727 10.1019 74.2896 10.1107C74.0917 10.113 74.0917 10.113 73.8898 10.1153C73.6852 10.1212 73.6852 10.1212 73.4766 10.1272C73.3378 10.1293 73.199 10.1314 73.056 10.1336C72.7143 10.1391 72.3728 10.1468 72.0312 10.1565ZM24.776 37.4905C24.6027 37.5904 24.4294 37.6903 24.2508 37.7932C24.0611 37.9039 23.8714 38.0146 23.6816 38.1252C23.4845 38.2393 23.2872 38.3532 23.0899 38.467C22.6796 38.7038 22.2696 38.9411 21.8598 39.1787C20.9299 39.7174 19.996 40.2491 19.0625 40.7815C18.7899 40.9373 18.5173 41.0931 18.2447 41.2489C17.5096 41.6692 16.7743 42.089 16.0387 42.5083C15.5752 42.7724 15.1118 43.0367 14.6484 43.301C14.5118 43.379 14.5118 43.379 14.3724 43.4585C13.109 44.1796 11.8507 44.909 10.5957 45.6448C8.69377 46.7598 6.77106 47.8362 4.84375 48.9065C5.24442 49.5594 5.62802 50.0198 6.25 50.469C6.34069 50.4158 6.43138 50.3627 6.52481 50.3079C8.94681 48.8888 11.3792 47.4889 13.8181 46.099C14.6425 45.6291 15.4664 45.158 16.2903 44.6871C16.7427 44.4285 17.1952 44.1699 17.6477 43.9114C17.8296 43.8074 18.0116 43.7035 18.1935 43.5995C22.1082 41.3626 22.1082 41.3626 22.6079 41.0781C22.9773 40.8662 23.345 40.6524 23.7117 40.436C23.8096 40.3788 23.9075 40.3215 24.0083 40.2626C24.2826 40.1021 24.5562 39.9406 24.8298 39.779C25.2783 39.5491 25.5932 39.4065 26.0938 39.3752C26.4385 39.4949 26.4385 39.4949 26.7902 39.6932C26.9234 39.767 27.0566 39.8408 27.1938 39.9169C27.3367 39.9992 27.4797 40.0815 27.627 40.1663C27.7781 40.251 27.9292 40.3357 28.0848 40.423C29.3473 41.1345 30.5981 41.8667 31.8474 42.601C32.9684 43.2592 34.0984 43.8995 35.2344 44.5315C36.5191 45.2464 37.7946 45.9746 39.0625 46.719C40.3896 47.4978 41.724 48.2619 43.0664 49.0139C43.2304 49.1059 43.3943 49.1978 43.5632 49.2925C44.2952 49.7012 45.0263 50.1044 45.7812 50.469C45.9645 50.268 46.1466 50.066 46.3281 49.8635C46.4296 49.7511 46.5312 49.6387 46.6357 49.523C46.9072 49.2425 46.9072 49.2425 46.875 48.9065C46.7654 48.8439 46.6558 48.7812 46.5428 48.7167C42.0904 46.1724 37.6379 43.6282 33.1855 41.0839C33.045 41.0036 33.045 41.0036 32.9017 40.9217C32.7127 40.8138 32.5237 40.7058 32.3348 40.5978C31.8724 40.3335 31.4099 40.0694 30.9473 39.8055C30.0922 39.3177 29.2383 38.8279 28.3875 38.3328C28.2353 38.2446 28.0831 38.1564 27.9263 38.0656C27.6433 37.9015 27.3608 37.7367 27.0789 37.5709C26.955 37.4992 26.8311 37.4276 26.7035 37.3538C26.5963 37.2911 26.4892 37.2285 26.3787 37.1639C25.7316 36.8632 25.344 37.1607 24.776 37.4905ZM13.2812 39.0627C13.2812 39.9909 13.2812 40.919 13.2812 41.8752C14.5392 41.3959 14.5392 41.3959 15.625 40.6252C15.7668 40.0493 15.7061 39.6629 15.625 39.0627C14.8516 39.0627 14.0781 39.0627 13.2812 39.0627ZM24.8566 41.8081C24.7012 41.8955 24.5458 41.9829 24.3857 42.073C24.1339 42.2168 24.1339 42.2168 23.877 42.3635C23.7024 42.4622 23.5279 42.5609 23.3481 42.6626C22.019 43.4165 20.6989 44.1857 19.3813 44.9593C18.0954 45.7125 16.7979 46.4435 15.4941 47.1652C15.1969 47.3302 14.9025 47.5003 14.6113 47.6755C14.1889 47.9014 13.842 48.048 13.3947 48.1937C12.5947 48.4931 11.9228 48.8322 11.4062 49.5315C10.9392 50.9557 11.0887 52.5616 11.1369 54.044C11.1536 54.6441 11.1551 55.2442 11.1582 55.8445C11.1665 56.9792 11.1882 58.1132 11.215 59.2476C11.2447 60.5398 11.2593 61.8321 11.2726 63.1246C11.3003 65.7815 11.349 68.4375 11.4062 71.094C12.7469 71.094 14.0875 71.094 15.4688 71.094C15.471 70.6894 15.4733 70.2848 15.4757 69.8679C15.4835 68.5327 15.4939 67.1974 15.5056 65.8622C15.5126 65.0525 15.5187 64.2427 15.5229 63.433C15.5269 62.6519 15.5332 61.8708 15.5411 61.0897C15.5437 60.7913 15.5455 60.493 15.5465 60.1946C15.548 59.7774 15.5524 59.3604 15.5574 58.9432C15.5572 58.8193 15.557 58.6953 15.5568 58.5676C15.5709 57.7467 15.5709 57.7467 15.8119 57.345C16.1981 57.1295 16.4796 57.1314 16.9215 57.1345C17.0927 57.1346 17.264 57.1346 17.4404 57.1347C17.6202 57.1371 17.8 57.1395 17.9852 57.142C18.1506 57.1424 18.316 57.1429 18.4864 57.1434C19.1049 57.1459 19.7233 57.1524 20.3418 57.1585C22.4156 57.173 22.4156 57.173 24.5312 57.1877C24.5828 61.7768 24.6344 66.3659 24.6875 71.094C29.8438 71.094 35 71.094 40.3125 71.094C40.4219 67.3152 40.4219 67.3152 40.4956 63.536C40.5178 61.9932 40.5438 60.4512 40.5954 58.909C40.6329 57.7855 40.657 56.6625 40.6653 55.5383C40.6702 54.9435 40.6815 54.3504 40.709 53.7561C40.8988 51.2782 40.8988 51.2782 39.9441 49.1195C39.0436 48.409 38.0584 47.9395 36.9963 47.5194C36.4543 47.3002 35.9743 47.0294 35.4736 46.7288C35.1857 46.569 34.8976 46.4095 34.6094 46.2502C33.3015 45.523 32.0037 44.7809 30.7129 44.0237C29.5777 43.3588 28.4413 42.6965 27.2949 42.051C27.1791 41.9849 27.0633 41.9188 26.944 41.8507C26.0653 41.36 25.7234 41.3175 24.8566 41.8081ZM17.3438 58.9065C17.3438 62.9284 17.3438 66.9502 17.3438 71.094C19.1484 71.094 20.9531 71.094 22.8125 71.094C22.8125 67.0721 22.8125 63.0502 22.8125 58.9065C21.0078 58.9065 19.2031 58.9065 17.3438 58.9065ZM8.75 72.969C8.75 73.4846 8.75 74.0003 8.75 74.5315C20.0422 74.5315 31.3344 74.5315 42.9688 74.5315C42.9688 74.0159 42.9688 73.5003 42.9688 72.969C31.6766 72.969 20.3844 72.969 8.75 72.969Z" fill="#1A4D2E"/>
<path d="M54.543 32.5777C54.7385 32.5762 54.934 32.5748 55.1355 32.5732C55.3491 32.5749 55.5626 32.5767 55.7762 32.5786C55.9951 32.5785 56.214 32.5783 56.4329 32.5779C56.8916 32.5777 57.3502 32.5796 57.8089 32.5832C58.3969 32.5876 58.9847 32.5872 59.5727 32.5852C60.0247 32.5841 60.4767 32.5853 60.9287 32.5873C61.1455 32.588 61.3623 32.588 61.5791 32.5874C61.882 32.587 62.185 32.5899 62.4879 32.5929C62.7466 32.5942 62.7466 32.5942 63.0104 32.5955C63.4935 32.6641 63.5945 32.7704 63.9061 33.1248C64.1675 33.0779 64.4279 33.0255 64.6873 32.9686C65.0389 33.0565 65.0389 33.0565 65.3123 33.2811C65.4979 33.6912 65.4979 33.6912 65.4686 34.2186C65.0941 34.7704 64.6354 35.2487 64.126 35.6785C63.8448 36.0094 63.8471 36.1841 63.846 36.6142C63.8444 36.7503 63.8428 36.8864 63.8412 37.0266C63.8416 37.1731 63.8421 37.3196 63.8426 37.4705C63.8401 37.6968 63.8401 37.6968 63.8375 37.9276C63.8321 38.41 63.8297 38.8924 63.8279 39.3748C63.8257 40.0096 63.8204 40.6443 63.8133 41.2791C63.8138 41.4256 63.8142 41.5721 63.8147 41.723C63.8132 41.8591 63.8116 41.9952 63.8099 42.1354C63.8096 42.2551 63.8093 42.3748 63.809 42.4981C63.7498 42.8123 63.7498 42.8123 63.5691 43.0851C63.1601 43.3634 62.8555 43.3417 62.3628 43.3442C62.1741 43.3462 61.9853 43.3482 61.7908 43.3502C61.5867 43.3498 61.3826 43.3493 61.1723 43.3488C60.9608 43.3495 60.7493 43.3504 60.5377 43.3513C60.0944 43.3527 59.6512 43.3523 59.2079 43.3508C58.6402 43.349 58.0727 43.3521 57.505 43.3567C57.0682 43.3596 56.6313 43.3595 56.1945 43.3586C55.8836 43.3586 55.5727 43.3612 55.2618 43.3639C55.0725 43.3624 54.8833 43.361 54.6883 43.3595C54.5218 43.3594 54.3552 43.3594 54.1837 43.3594C53.6299 43.2594 53.4487 43.1132 53.1248 42.6561C53.0465 42.2292 53.0465 42.2292 53.0464 41.7344C53.045 41.5488 53.0435 41.3632 53.042 41.1719C53.0437 40.9721 53.0455 40.7722 53.0473 40.5662C53.047 40.2577 53.047 40.2577 53.0466 39.9428C53.0464 39.5078 53.0484 39.0728 53.0519 38.6378C53.0564 38.0809 53.0559 37.524 53.0539 36.9671C53.0526 36.435 53.055 35.903 53.0571 35.3709C53.0564 35.0711 53.0564 35.0711 53.0557 34.7652C53.0577 34.5796 53.0597 34.394 53.0617 34.2027C53.0625 34.0394 53.0634 33.8762 53.0643 33.7079C53.2011 32.7433 53.62 32.5778 54.543 32.5777ZM54.9998 34.5311C54.9998 36.7998 54.9998 39.0686 54.9998 41.4061C57.2686 41.4061 59.5373 41.4061 61.8748 41.4061C61.8748 40.2717 61.8748 39.1373 61.8748 37.9686C61.13 38.607 60.436 39.2367 59.7508 39.9309C59.3748 40.1561 59.3748 40.1561 58.8597 40.1707C58.1121 39.9499 57.6534 39.5753 57.0701 39.0721C56.866 38.9013 56.6617 38.7306 56.4573 38.56C56.3686 38.4841 56.2798 38.4082 56.1883 38.3299C55.9096 38.0954 55.9096 38.0954 55.4686 37.8123C55.3099 37.2966 55.2952 37.0823 55.4686 36.5623C56.388 36.3208 56.388 36.3208 56.8355 36.5397C57.1083 36.7409 57.3632 36.9527 57.617 37.1776C58.2494 37.7772 58.2494 37.7772 59.0623 37.9686C59.3524 37.709 59.6167 37.4503 59.8826 37.1678C60.3775 36.6528 60.8704 36.1615 61.4354 35.7225C61.6529 35.5195 61.6529 35.5195 61.8748 35.3123C61.8748 35.0545 61.8748 34.7967 61.8748 34.5311C59.6061 34.5311 57.3373 34.5311 54.9998 34.5311Z" fill="#1A4D2E"/>
<path d="M54.669 18.8253C54.8541 18.8233 55.0392 18.8214 55.23 18.8193C55.4294 18.8206 55.6287 18.8219 55.8342 18.8232C56.0395 18.8226 56.2449 18.822 56.4565 18.8214C56.8908 18.8204 57.3251 18.8218 57.7595 18.8247C58.3151 18.8283 58.8704 18.8262 59.426 18.8225C59.9573 18.8197 60.4885 18.8216 61.0197 18.8232C61.3183 18.8213 61.3183 18.8213 61.623 18.8193C61.9014 18.8223 61.9014 18.8223 62.1855 18.8253C62.3484 18.8258 62.5113 18.8263 62.6792 18.8268C63.2316 18.9252 63.4994 19.1545 63.9061 19.5312C63.9576 19.4796 64.0092 19.4281 64.0623 19.3749C64.5994 19.414 64.5994 19.414 65.1561 19.5312C65.4686 19.9999 65.4686 19.9999 65.454 20.4641C65.281 21.0421 65.0963 21.1431 64.6086 21.48C63.9296 22.1214 63.8087 22.6276 63.7557 23.5241C63.7382 24.3 63.7447 25.0737 63.7596 25.8495C63.7629 26.3273 63.7642 26.805 63.7641 27.2827C63.7648 27.5789 63.7676 27.875 63.773 28.1711C63.7751 28.3708 63.7751 28.3708 63.7773 28.5744C63.7795 28.6916 63.7816 28.8088 63.7839 28.9296C63.7498 29.2187 63.7498 29.2187 63.4373 29.5312C63.0292 29.5719 63.0292 29.5719 62.5057 29.5741C62.3101 29.5756 62.1146 29.5771 61.9131 29.5786C61.6987 29.5786 61.4843 29.5784 61.27 29.5782C61.0508 29.5788 60.8317 29.5795 60.6126 29.5802C60.153 29.5814 59.6934 29.5813 59.2338 29.5805C58.6446 29.5796 58.0555 29.5822 57.4663 29.5859C57.0136 29.5882 56.561 29.5883 56.1083 29.5878C55.8911 29.5879 55.6738 29.5887 55.4566 29.5903C55.1529 29.5922 54.8492 29.5909 54.5455 29.5894C54.3726 29.5894 54.1997 29.5895 54.0215 29.5896C53.5936 29.5312 53.5936 29.5312 53.3037 29.3506C53.0488 28.9399 53.0641 28.626 53.0617 28.1442C53.0597 27.9554 53.0577 27.7667 53.0557 27.5722C53.0561 27.3681 53.0566 27.164 53.0571 26.9537C53.0564 26.7421 53.0555 26.5306 53.0546 26.3191C53.0532 25.8758 53.0536 25.4325 53.0551 24.9892C53.0569 24.4215 53.0538 23.854 53.0492 23.2864C53.0463 22.8495 53.0464 22.4127 53.0473 21.9758C53.0473 21.6649 53.0447 21.354 53.042 21.0432C53.0435 20.8539 53.0449 20.6646 53.0464 20.4696C53.0465 20.3031 53.0465 20.1366 53.0465 19.965C53.2171 19.0203 53.7814 18.828 54.669 18.8253ZM54.9998 20.7812C54.9998 23.0499 54.9998 25.3187 54.9998 27.6562C57.2686 27.6562 59.5373 27.6562 61.8748 27.6562C61.8748 26.5218 61.8748 25.3874 61.8748 24.2187C61.1358 24.8521 60.4912 25.4437 59.8424 26.1504C59.4619 26.463 59.242 26.5467 58.7498 26.5624C58.0542 26.2399 57.4565 25.7168 56.8553 25.2441C56.7584 25.1694 56.6615 25.0948 56.5617 25.0179C55.5909 24.257 55.5909 24.257 55.3123 23.7499C55.4393 23.2421 55.4393 23.2421 55.6248 22.8124C56.4779 22.7255 56.8911 22.8514 57.5368 23.3678C57.6245 23.4424 57.7122 23.5169 57.8026 23.5937C57.9405 23.7055 57.9405 23.7055 58.0812 23.8195C58.306 24.0023 58.5282 24.1883 58.7498 24.3749C59.534 24.0268 60.0621 23.4388 60.6639 22.8417C60.8385 22.6748 60.8385 22.6748 61.0167 22.5045C61.1266 22.3956 61.2366 22.2868 61.3499 22.1746C61.5011 22.0266 61.5011 22.0266 61.6553 21.8757C61.9496 21.5196 61.9496 21.5196 61.8748 20.7812C59.6061 20.7812 57.3373 20.7812 54.9998 20.7812Z" fill="#1A4D2E"/>
<path d="M54.6883 46.1714C54.8775 46.17 55.0668 46.1685 55.2618 46.167C55.4656 46.1687 55.6694 46.1705 55.8793 46.1723C56.091 46.1723 56.3027 46.1721 56.5144 46.1716C56.9574 46.1714 57.4004 46.1734 57.8434 46.1769C58.4112 46.1814 58.979 46.1809 59.5468 46.1789C59.9837 46.1779 60.4205 46.1791 60.8573 46.181C61.1685 46.1821 61.4796 46.1814 61.7908 46.1807C61.9796 46.1827 62.1683 46.1847 62.3628 46.1867C62.5292 46.1875 62.6956 46.1884 62.8671 46.1893C63.338 46.2582 63.4509 46.3646 63.7498 46.7186C64.0561 46.7519 64.0561 46.7519 64.3748 46.7088C64.9614 46.6883 64.9614 46.6883 65.3221 46.9725C65.521 47.4765 65.4544 47.7618 65.3123 48.2811C64.9943 48.5601 64.9943 48.5601 64.608 48.8292C63.9373 49.4627 63.8103 49.9535 63.7597 50.8397C63.7448 51.5957 63.7526 52.3495 63.7694 53.1053C63.7746 53.5703 63.7779 54.0352 63.7787 54.5002C63.7798 54.7884 63.7837 55.0766 63.7907 55.3647C63.7921 55.4946 63.7936 55.6245 63.7951 55.7584C63.7988 55.9295 63.7988 55.9295 63.8027 56.1041C63.7498 56.4061 63.7498 56.4061 63.5711 56.677C63.1568 56.9596 62.8451 56.9355 62.346 56.938C62.1536 56.9399 61.9612 56.9419 61.763 56.944C61.5529 56.9436 61.3428 56.9432 61.1326 56.9426C60.9172 56.9433 60.7018 56.9441 60.4864 56.9451C60.0351 56.9465 59.5838 56.9461 59.1325 56.9445C58.554 56.9427 57.9756 56.9459 57.3971 56.9504C56.9523 56.9533 56.5076 56.9533 56.0628 56.9524C55.8495 56.9524 55.6362 56.9533 55.4229 56.9552C55.1248 56.9576 54.8267 56.9555 54.5286 56.9532C54.359 56.9532 54.1893 56.9532 54.0146 56.9531C53.5936 56.8748 53.5936 56.8748 53.3047 56.615C53.0805 56.1599 53.0643 55.8354 53.0617 55.3282C53.0597 55.1426 53.0577 54.9569 53.0557 54.7657C53.0561 54.5658 53.0566 54.3659 53.0571 54.16C53.0563 53.9543 53.0554 53.7485 53.0546 53.5366C53.0532 53.1016 53.0536 52.6666 53.0551 52.2316C53.0569 51.6746 53.0538 51.1178 53.0492 50.5608C53.0456 50.0288 53.0467 49.4967 53.0473 48.9647C53.0447 48.6648 53.0447 48.6648 53.042 48.359C53.0435 48.1733 53.0449 47.9877 53.0464 47.7965C53.0465 47.6332 53.0465 47.4699 53.0465 47.3017C53.2211 46.35 53.7981 46.1716 54.6883 46.1714ZM54.9998 48.1248C54.9998 50.3936 54.9998 52.6623 54.9998 54.9998C57.2686 54.9998 59.5373 54.9998 61.8748 54.9998C61.8748 53.8655 61.8748 52.7311 61.8748 51.5623C61.1257 52.2044 60.5069 52.7797 59.8729 53.5093C59.3534 53.8749 59.0621 53.8507 58.4373 53.7498C57.9397 53.4777 57.5103 53.139 57.0701 52.783C56.9523 52.6927 56.8345 52.6024 56.7131 52.5093C56.1262 52.048 55.6102 51.6422 55.3123 50.9373C55.4002 50.5076 55.4002 50.5076 55.6248 50.1561C55.8885 49.9901 55.8885 49.9901 56.2498 49.9998C57.179 50.4371 57.9539 51.076 58.7498 51.7186C59.534 51.3704 60.0621 50.7824 60.6639 50.1854C60.8385 50.0184 60.8385 50.0184 61.0167 49.8482C61.1266 49.7393 61.2366 49.6304 61.3499 49.5183C61.5011 49.3703 61.5011 49.3703 61.6553 49.2193C61.9496 48.8632 61.9496 48.8632 61.8748 48.1248C59.6061 48.1248 57.3373 48.1248 54.9998 48.1248Z" fill="#1A4D2E"/>
<path d="M29.7535 56.9727C29.8928 56.9717 30.032 56.9707 30.1754 56.9697C30.4003 56.9719 30.4003 56.9719 30.6297 56.9741C30.784 56.974 30.9383 56.9739 31.0972 56.9739C31.4235 56.9742 31.7498 56.9757 32.076 56.9783C32.576 56.982 33.0759 56.9815 33.5759 56.9805C33.8926 56.9814 34.2094 56.9825 34.5262 56.9839C34.751 56.9836 34.751 56.9836 34.9804 56.9834C35.1197 56.9849 35.2589 56.9864 35.4023 56.9879C35.5248 56.9887 35.6472 56.9894 35.7734 56.9901C36.0936 57.0308 36.0936 57.0308 36.5623 57.3433C36.7317 57.8516 36.7394 58.2243 36.7413 58.759C36.7423 58.954 36.7432 59.1491 36.7443 59.35C36.7445 59.5631 36.7447 59.7762 36.7448 59.9892C36.7453 60.2078 36.7458 60.4263 36.7464 60.6448C36.7473 61.1028 36.7476 61.5608 36.7475 62.0188C36.7475 62.6054 36.7496 63.1919 36.7523 63.7784C36.7541 64.2297 36.7544 64.6811 36.7543 65.1324C36.7545 65.3486 36.7552 65.5648 36.7564 65.7811C36.7579 66.0836 36.7573 66.3862 36.7565 66.6887C36.7567 66.8608 36.757 67.0329 36.7572 67.2101C36.7187 67.6546 36.6508 67.9113 36.4061 68.2808C36.0422 68.4628 35.8253 68.4588 35.4201 68.4623C35.2112 68.4645 35.2112 68.4645 34.9982 68.4668C34.7721 68.4678 34.7721 68.4678 34.5414 68.4688C34.3097 68.4702 34.3097 68.4702 34.0732 68.4715C33.746 68.473 33.4188 68.474 33.0917 68.4746C32.5903 68.4762 32.089 68.481 31.5876 68.4859C31.2702 68.4869 30.9527 68.4878 30.6352 68.4884C30.4096 68.4913 30.4096 68.4913 30.1794 68.4942C30.0397 68.4937 29.9 68.4933 29.756 68.4928C29.5716 68.4936 29.5716 68.4936 29.3835 68.4945C29.0623 68.4371 29.0623 68.4371 28.7884 68.2622C28.5005 67.828 28.534 67.4795 28.5329 66.9616C28.5321 66.8602 28.5313 66.7587 28.5304 66.6542C28.5284 66.3191 28.5297 65.9841 28.5313 65.649C28.531 65.4161 28.5305 65.1832 28.5299 64.9503C28.5293 64.4622 28.5303 63.9741 28.5324 63.486C28.5351 62.8602 28.5336 62.2345 28.5308 61.6087C28.5291 61.1277 28.5296 60.6468 28.5308 60.1659C28.5311 59.9351 28.5308 59.7044 28.5297 59.4736C28.5285 59.1511 28.5303 58.8288 28.5329 58.5064C28.5333 58.3229 28.5337 58.1393 28.534 57.9502C28.5936 57.4996 28.5936 57.4996 28.7885 57.2059C29.1339 56.9851 29.3447 56.9723 29.7535 56.9727ZM30.4686 58.9058C30.4686 61.4324 30.4686 63.959 30.4686 66.5621C31.9123 66.5621 33.3561 66.5621 34.8436 66.5621C34.8436 64.0355 34.8436 61.509 34.8436 58.9058C33.3998 58.9058 31.9561 58.9058 30.4686 58.9058Z" fill="#1A4D2E"/>
<path d="M31.8705 20.8793C32.0308 20.8782 32.1912 20.8771 32.3564 20.876C32.6201 20.8778 32.6201 20.8778 32.8892 20.8796C33.0745 20.879 33.2597 20.8785 33.4506 20.8779C33.9587 20.8768 34.4668 20.8779 34.9749 20.88C35.5065 20.8817 36.038 20.8811 36.5696 20.8808C37.4622 20.8806 38.3549 20.8824 39.2475 20.8852C40.2799 20.8885 41.3122 20.8891 42.3445 20.8881C43.3372 20.8872 44.3299 20.8881 45.3226 20.8899C45.7453 20.8906 46.1679 20.8907 46.5905 20.8904C47.1805 20.8903 47.7704 20.8923 48.3604 20.8949C48.6241 20.8943 48.6241 20.8943 48.8932 20.8937C49.0536 20.8948 49.2139 20.8959 49.3792 20.897C49.5885 20.8975 49.5885 20.8975 49.802 20.898C50.1561 20.9378 50.1561 20.9378 50.6248 21.2503C50.7615 21.6995 50.7615 21.6995 50.7811 22.1878C50.5968 22.5259 50.5968 22.5259 50.3123 22.8128C49.9558 22.891 49.9558 22.891 49.5295 22.8911C49.3678 22.8926 49.2061 22.8942 49.0395 22.8957C48.8623 22.8942 48.685 22.8927 48.5023 22.8912C48.2222 22.8924 48.2222 22.8924 47.9363 22.8937C47.424 22.8953 46.9117 22.8942 46.3994 22.8916C45.8635 22.8894 45.3275 22.8904 44.7916 22.891C43.8916 22.8914 42.9916 22.8893 42.0916 22.8857C41.0507 22.8815 40.0099 22.8812 38.969 22.8831C37.9682 22.8848 36.9673 22.8838 35.9664 22.8816C35.5403 22.8807 35.1142 22.8807 34.688 22.8814C34.0932 22.8819 33.4984 22.8793 32.9036 22.8759C32.7263 22.8766 32.549 22.8773 32.3663 22.878C32.2046 22.8765 32.043 22.8749 31.8764 22.8733C31.6654 22.8728 31.6654 22.8728 31.4501 22.8722C31.0193 22.8004 30.8797 22.6942 30.6248 22.344C30.5248 21.5438 30.5248 21.5438 30.8143 21.1465C31.1844 20.8699 31.4106 20.8792 31.8705 20.8793Z" fill="#1A4D2E"/>
<path d="M31.7075 25.7396C31.8703 25.7383 32.033 25.737 32.2007 25.7356C32.38 25.7357 32.5594 25.7359 32.7441 25.736C32.9324 25.735 33.1206 25.7339 33.3146 25.7329C33.8318 25.7304 34.3489 25.7294 34.8661 25.7292C35.2975 25.7289 35.7289 25.7277 36.1604 25.7266C37.178 25.7241 38.1956 25.7233 39.2132 25.7235C40.2638 25.7237 41.3142 25.7204 42.3648 25.7155C43.266 25.7114 44.1673 25.7097 45.0686 25.7099C45.6072 25.71 46.1457 25.7091 46.6843 25.7058C47.2848 25.7022 47.8852 25.7036 48.4857 25.7055C48.6647 25.7038 48.8437 25.702 49.0281 25.7002C49.1913 25.7015 49.3545 25.7028 49.5227 25.7042C49.7357 25.7039 49.7357 25.7039 49.9531 25.7037C50.3125 25.7814 50.3125 25.7814 50.5968 26.0737C50.7812 26.4064 50.7812 26.4064 50.7715 26.8068C50.5913 27.2753 50.4254 27.3976 50 27.6564C49.632 27.7154 49.632 27.7154 49.2172 27.716C48.9806 27.7179 48.9806 27.7179 48.7393 27.72C48.5672 27.719 48.3951 27.7181 48.2178 27.7171C48.0358 27.7179 47.8538 27.7187 47.6664 27.7196C47.064 27.7216 46.4617 27.7203 45.8594 27.7187C45.4414 27.719 45.0234 27.7195 44.6054 27.72C43.729 27.7209 42.8527 27.7198 41.9763 27.7175C40.9634 27.715 39.9506 27.7158 38.9377 27.7184C38.0677 27.7205 37.1977 27.7208 36.3278 27.7196C35.8083 27.7189 35.2889 27.719 34.7694 27.7203C34.1903 27.7215 33.6113 27.7197 33.0322 27.7171C32.7741 27.7185 32.7741 27.7185 32.5107 27.72C32.2741 27.718 32.2741 27.718 32.0328 27.716C31.8275 27.7157 31.8275 27.7157 31.618 27.7154C31.1645 27.6427 30.9496 27.5101 30.625 27.1877C30.5664 26.631 30.5664 26.631 30.625 26.0939C31.0213 25.6976 31.1583 25.7417 31.7075 25.7396Z" fill="#1A4D2E"/>
<path d="M31.7075 34.6459C31.8703 34.6446 32.033 34.6432 32.2007 34.6419C32.38 34.642 32.5594 34.6421 32.7441 34.6423C32.9324 34.6412 33.1206 34.6402 33.3146 34.6391C33.8318 34.6366 34.3489 34.6356 34.8661 34.6354C35.2975 34.6351 35.7289 34.634 36.1604 34.6329C37.178 34.6303 38.1956 34.6296 39.2132 34.6298C40.2638 34.63 41.3142 34.6267 42.3648 34.6217C43.266 34.6176 44.1673 34.616 45.0686 34.6162C45.6072 34.6162 46.1457 34.6153 46.6843 34.612C47.2848 34.6085 47.8852 34.6099 48.4857 34.6118C48.6647 34.61 48.8437 34.6083 49.0281 34.6064C49.1913 34.6078 49.3545 34.6091 49.5227 34.6104C49.7357 34.6102 49.7357 34.6102 49.9531 34.6099C50.3125 34.6877 50.3125 34.6877 50.5981 34.9794C50.7812 35.3127 50.7812 35.3127 50.752 35.7228C50.625 36.0939 50.625 36.0939 50.3125 36.4064C49.9723 36.4458 49.9723 36.4458 49.5415 36.4461C49.297 36.4474 49.297 36.4474 49.0475 36.4488C48.868 36.4481 48.6884 36.4475 48.5034 36.4469C48.3149 36.4474 48.1264 36.448 47.9321 36.4485C47.4143 36.4497 46.8965 36.4494 46.3787 36.4484C45.8375 36.4476 45.2963 36.4483 44.7551 36.4488C43.8461 36.4494 42.9372 36.4487 42.0282 36.4472C40.9764 36.4455 39.9247 36.446 38.8729 36.4477C37.9709 36.4492 37.0688 36.4494 36.1667 36.4485C35.6275 36.4481 35.0883 36.448 34.5492 36.449C33.9483 36.4501 33.3474 36.4486 32.7466 36.4469C32.4772 36.4478 32.4772 36.4478 32.2025 36.4488C32.0395 36.4479 31.8765 36.447 31.7085 36.4461C31.5663 36.446 31.4242 36.4459 31.2777 36.4458C30.9375 36.4064 30.9375 36.4064 30.625 36.0939C30.5859 35.5471 30.5859 35.5471 30.625 35.0002C31.0213 34.6039 31.1583 34.6479 31.7075 34.6459Z" fill="#1A4D2E"/>
</svg>
