<svg width="40" height="40" viewBox="0 0 40 40" fill="none" xmlns="http://www.w3.org/2000/svg">
<rect width="40" height="40" rx="20" fill="#7B8D6A"/>
<g clip-path="url(#clip0_1003_12552)">
<path d="M14.2451 16.9417H9.73459V30.8333H14.2451V16.9417Z" fill="white"/>
<path d="M11.9903 10C10.5359 10 9.58583 11.0425 9.61526 12.4311C9.58583 13.7581 10.5345 14.8314 11.9595 14.8314C13.3845 14.8314 14.3934 13.7581 14.3934 12.4311C14.364 11.0425 13.4448 10 11.9903 10Z" fill="white"/>
<path d="M25.4619 16.6152C23.4974 16.6152 22.148 17.547 21.3955 18.3892V16.9417H16.885V30.8334H21.3955V23.0847C21.3955 22.6685 21.4544 22.2243 21.5735 21.9567C21.8705 21.1258 22.6118 20.2654 23.8589 20.2654C25.4913 20.2654 26.1443 21.5419 26.1443 23.4111V30.8334H30.6548V22.8479C30.6548 18.5741 28.4297 16.6166 25.4619 16.6166V16.6152Z" fill="white"/>
</g>
<defs>
<clipPath id="clip0_1003_12552">
<rect width="21.0393" height="20.8333" fill="white" transform="translate(9.61548 10)"/>
</clipPath>
</defs>
</svg>
