<svg width="40" height="40" viewBox="0 0 40 40" fill="none" xmlns="http://www.w3.org/2000/svg">
<rect width="40" height="40" rx="20" fill="white"/>
<g clip-path="url(#clip0_245_5955)">
<path d="M14.2451 16.9417H9.73462V30.8333H14.2451V16.9417Z" fill="#1A4D2E"/>
<path d="M11.9902 10C10.5358 10 9.58574 11.0425 9.61517 12.4311C9.58574 13.7581 10.5344 14.8314 11.9594 14.8314C13.3844 14.8314 14.3933 13.7581 14.3933 12.4311C14.3639 11.0425 13.4447 10 11.9902 10Z" fill="#1A4D2E"/>
<path d="M25.4619 16.6152C23.4974 16.6152 22.148 17.547 21.3955 18.3891V16.9417H16.885V30.8333H21.3955V23.0846C21.3955 22.6684 21.4544 22.2243 21.5735 21.9566C21.8705 21.1257 22.6118 20.2654 23.8589 20.2654C25.4913 20.2654 26.1443 21.5419 26.1443 23.4111V30.8333H30.6548V22.8478C30.6548 18.5741 28.4297 16.6166 25.4619 16.6166V16.6152Z" fill="#1A4D2E"/>
</g>
<defs>
<clipPath id="clip0_245_5955">
<rect width="21.0393" height="20.8333" fill="white" transform="translate(9.61548 10)"/>
</clipPath>
</defs>
</svg>
