<svg width="16" height="21" viewBox="0 0 16 21" fill="none" xmlns="http://www.w3.org/2000/svg">
<path d="M8.00008 0.5C4.00613 0.5 0.756836 3.7493 0.756836 7.7432C0.756836 12.6998 7.23883 19.9763 7.5148 20.2836C7.77402 20.5723 8.2266 20.5718 8.48535 20.2836C8.76133 19.9763 15.2433 12.6998 15.2433 7.7432C15.2432 3.7493 11.994 0.5 8.00008 0.5ZM8.00008 11.3875C5.99062 11.3875 4.35586 9.75266 4.35586 7.7432C4.35586 5.73375 5.99066 4.09898 8.00008 4.09898C10.0095 4.09898 11.6443 5.73379 11.6443 7.74324C11.6443 9.7527 10.0095 11.3875 8.00008 11.3875Z" fill="#4E6F52"/>
</svg>
