<svg width="80" height="80" viewBox="0 0 80 80" fill="none" xmlns="http://www.w3.org/2000/svg">
<path d="M43.8191 1.22104C44.1607 1.23093 44.5023 1.24038 44.8438 1.24971C49.4906 1.37755 54.1353 1.57906 58.771 1.92999C59.1202 1.95625 59.4694 1.98135 59.8187 2.00518C63.3042 2.24867 63.3042 2.24867 64.3749 3.28169C65.0022 4.08066 65.3322 4.77748 65.3312 5.80422C65.3315 6.05367 65.3315 6.05367 65.3318 6.30816C65.3312 6.49056 65.3307 6.67297 65.3301 6.86091C65.3301 7.053 65.3301 7.24509 65.3302 7.443C65.3301 7.96982 65.3293 8.49663 65.3282 9.02345C65.3272 9.57398 65.3271 10.1245 65.327 10.675C65.3265 11.7176 65.3252 12.7601 65.3236 13.8027C65.3219 14.9896 65.321 16.1764 65.3202 17.3633C65.3186 19.8049 65.3158 22.2464 65.3124 24.6879C65.4273 24.687 65.5423 24.6861 65.6607 24.6851C65.8894 24.684 65.8894 24.684 66.1226 24.6829C66.3483 24.6815 66.3483 24.6815 66.5784 24.6801C67.2564 24.6919 67.9148 24.7783 68.5838 24.8833C68.7867 24.9147 68.7867 24.9147 68.9936 24.9468C70.7094 25.2287 72.7256 25.6786 73.9061 27.061C74.3726 27.717 74.3981 28.1403 74.3979 28.9238C74.3984 29.0395 74.399 29.1553 74.3996 29.2745C74.4013 29.6643 74.4019 30.0542 74.4025 30.444C74.4035 30.7227 74.4045 31.0014 74.4056 31.2801C74.4084 32.0388 74.41 32.7974 74.4113 33.5561C74.4121 34.0299 74.413 34.5037 74.414 34.9775C74.417 36.4594 74.4192 37.9412 74.4205 39.423C74.4221 41.1346 74.4262 42.8462 74.4325 44.5577C74.4372 45.8799 74.4395 47.2021 74.44 48.5243C74.4404 49.3144 74.4418 50.1043 74.4457 50.8944C74.4494 51.6377 74.45 52.381 74.4484 53.1243C74.4483 53.3971 74.4493 53.6698 74.4515 53.9425C74.4542 54.3152 74.4531 54.6876 74.4511 55.0602C74.4528 55.1679 74.4545 55.2756 74.4563 55.3866C74.4432 56.3654 74.0223 56.9087 73.3592 57.5883C71.5932 58.9615 69.1862 59.1948 67.0354 59.3883C66.8842 59.4022 66.733 59.4162 66.5773 59.4306C66.2078 59.4647 65.8382 59.4984 65.4686 59.5317C65.468 59.7227 65.4675 59.9137 65.4669 60.1105C65.4611 61.9129 65.4521 63.7152 65.4399 65.5176C65.4337 66.4441 65.4287 67.3706 65.4263 68.2972C65.4239 69.1918 65.4185 70.0863 65.4111 70.9809C65.4088 71.3218 65.4075 71.6627 65.4074 72.0035C65.407 72.4819 65.4028 72.9602 65.3977 73.4386C65.3984 73.5787 65.3992 73.7189 65.4 73.8633C65.3812 75.0061 65.061 75.8061 64.326 76.6801C63.1036 77.7035 62.1819 77.7469 60.619 77.7361C60.394 77.7368 60.1691 77.7378 59.9441 77.739C59.3272 77.7416 58.7104 77.7403 58.0935 77.7384C57.4277 77.737 56.7619 77.7392 56.0961 77.7409C54.7923 77.7437 53.4885 77.7431 52.1847 77.7413C51.1249 77.7398 50.0652 77.7397 49.0055 77.7403C48.8546 77.7404 48.7038 77.7405 48.5484 77.7406C48.242 77.7408 47.9356 77.741 47.6291 77.7412C44.7557 77.743 41.8823 77.741 39.0089 77.7376C36.5438 77.7348 34.0787 77.7353 31.6136 77.7382C28.7507 77.7415 25.8878 77.7428 23.0249 77.7409C22.7196 77.7407 22.4143 77.7405 22.1089 77.7403C21.8836 77.7402 21.8836 77.7402 21.6537 77.74C20.5954 77.7395 19.5371 77.7404 18.4788 77.7419C17.1889 77.7436 15.8989 77.7432 14.609 77.7398C13.9509 77.7382 13.2929 77.7375 12.6348 77.7396C12.0321 77.7415 11.4295 77.7404 10.8268 77.7371C10.609 77.7364 10.3913 77.7368 10.1735 77.7383C8.79892 77.7471 7.81216 77.6762 6.72044 76.7754C6.65216 76.6924 6.58388 76.6094 6.51354 76.5239C6.44324 76.4425 6.37295 76.3611 6.30052 76.2773C5.55237 75.0502 5.55665 73.888 5.56113 72.4877C5.56015 72.2639 5.55896 72.04 5.55758 71.8162C5.55442 71.2032 5.55417 70.5903 5.55443 69.9774C5.5542 69.3155 5.55129 68.6536 5.54876 67.9918C5.54375 66.5459 5.54221 65.1 5.54132 63.654C5.54073 62.751 5.53936 61.848 5.5378 60.945C5.5336 58.4441 5.53008 55.9432 5.5297 53.4423C5.52966 53.2024 5.52966 53.2024 5.52962 52.9577C5.52958 52.6335 5.52953 52.3094 5.52949 51.9852C5.52947 51.8243 5.52944 51.6634 5.52942 51.4976C5.5294 51.3364 5.52938 51.1753 5.52936 51.0093C5.52887 48.3969 5.52314 45.7844 5.5151 43.172C5.50691 40.4888 5.5028 37.8057 5.50289 35.1226C5.50285 33.6165 5.50109 32.1104 5.49489 30.6042C5.48965 29.3223 5.48816 28.0404 5.49158 26.7584C5.49321 26.1044 5.49308 25.4506 5.48818 24.7966C5.48373 24.1976 5.48436 23.5989 5.48898 22.9999C5.48977 22.7835 5.48872 22.5671 5.48561 22.3507C5.46128 20.5357 5.46128 20.5357 6.14839 19.7561C6.337 19.5756 6.5269 19.3964 6.71861 19.2192C7.00541 18.8153 7.00541 18.8153 7.22687 18.4282C7.3136 18.2845 7.40032 18.1408 7.48967 17.9927C7.58201 17.8394 7.67435 17.6862 7.76949 17.5282C9.26924 15.1204 10.9553 12.8797 12.7733 10.7036C12.8559 10.6042 12.9386 10.5048 13.0237 10.4024C21.2149 0.607611 32.0306 0.876529 43.8191 1.22104ZM25.1561 4.21919C25.1547 4.49743 25.1547 4.49743 25.1533 4.78129C25.1444 6.53081 25.133 8.2803 25.1193 10.0298C25.1123 10.9292 25.1062 11.8286 25.102 12.728C25.0979 13.5962 25.0916 14.4645 25.0837 15.3327C25.0811 15.6637 25.0793 15.9946 25.0784 16.3256C25.0769 16.7898 25.0725 17.2539 25.0674 17.7181C25.0678 17.9226 25.0678 17.9226 25.0681 18.1312C25.052 19.1798 24.8614 19.9201 24.1698 20.7426C23.2407 21.5205 22.4826 21.6324 21.3146 21.6305C21.0927 21.6329 21.0927 21.6329 20.8663 21.6353C20.3793 21.64 19.8924 21.6415 19.4054 21.6429C19.0669 21.6455 18.7284 21.6484 18.39 21.6514C17.5007 21.6588 16.6114 21.6635 15.7221 21.6676C14.814 21.6722 13.906 21.6795 12.9979 21.6865C11.2173 21.7 9.43673 21.7105 7.65611 21.7192C7.64539 28.414 7.63713 35.1088 7.63218 41.8036C7.63159 42.5935 7.63098 43.3835 7.63036 44.1735C7.63024 44.3307 7.63012 44.488 7.62999 44.65C7.62795 47.1982 7.62426 49.7464 7.61995 52.2946C7.61557 54.9083 7.61296 57.522 7.61201 60.1357C7.61137 61.7491 7.60933 63.3626 7.60553 64.976C7.60306 66.0816 7.6023 67.1873 7.60291 68.2929C7.60321 68.9313 7.60274 69.5696 7.60024 70.208C7.59796 70.7922 7.59784 71.3764 7.59944 71.9605C7.59974 72.2725 7.59771 72.5845 7.59561 72.8964C7.59654 73.0814 7.59747 73.2664 7.59844 73.457C7.59826 73.6166 7.59808 73.7763 7.5979 73.9408C7.68407 74.5842 7.95016 74.9989 8.4276 75.4301C9.02262 75.7908 9.57825 75.8013 10.2642 75.8018C10.4466 75.8023 10.6291 75.8028 10.8171 75.8033C11.0177 75.8031 11.2183 75.8028 11.425 75.8026C11.6401 75.8029 11.8552 75.8032 12.0704 75.8037C12.6622 75.8046 13.254 75.8046 13.8458 75.8044C14.4838 75.8044 15.1218 75.8052 15.7598 75.806C17.01 75.8073 18.2602 75.8077 19.5104 75.8078C20.5264 75.8079 21.5424 75.8082 22.5584 75.8087C25.4379 75.8101 28.3174 75.8108 31.1969 75.8107C31.3521 75.8107 31.5074 75.8107 31.6674 75.8107C31.8229 75.8106 31.9784 75.8106 32.1386 75.8106C34.6588 75.8106 37.1791 75.8121 39.6993 75.8143C42.286 75.8165 44.8727 75.8176 47.4594 75.8175C48.9121 75.8174 50.3648 75.8178 51.8174 75.8195C53.0542 75.8209 54.2909 75.8213 55.5276 75.8202C56.1588 75.8197 56.7899 75.8197 57.421 75.8211C57.9987 75.8223 58.5764 75.8221 59.1541 75.8207C59.4622 75.8203 59.7703 75.8215 60.0784 75.8228C60.2616 75.822 60.4449 75.8213 60.6337 75.8206C60.8705 75.8206 60.8705 75.8206 61.112 75.8207C61.8279 75.7587 62.3598 75.5692 62.9435 75.1524C63.42 74.4968 63.3856 73.985 63.3698 73.1936C63.3699 73.0442 63.37 72.8947 63.3702 72.7407C63.3696 72.2477 63.3635 71.755 63.3574 71.262C63.356 70.9199 63.3548 70.5777 63.3541 70.2355C63.3511 69.3356 63.3434 68.4358 63.3348 67.536C63.3268 66.6175 63.3232 65.699 63.3193 64.7804C63.3109 62.9787 63.2976 61.1771 63.2811 59.3754C63.189 59.3674 63.0969 59.3593 63.0021 59.3509C62.5772 59.3132 62.1525 59.2745 61.7278 59.2357C61.583 59.223 61.4382 59.2103 61.289 59.1972C58.8577 58.9728 56.7384 58.399 54.6874 57.0317C54.2429 57.1267 54.2429 57.1267 53.7694 57.3149C51.049 58.3138 47.8578 58.0508 45.2141 56.9524C43.2851 56.0576 41.3909 54.6419 40.2681 52.7957C40.0216 52.466 40.0216 52.466 39.6204 52.4225C39.3951 52.4225 39.3951 52.4226 39.1652 52.4226C38.9947 52.421 38.8242 52.4194 38.6485 52.4178C38.4644 52.4191 38.2803 52.4204 38.0907 52.4217C37.9017 52.4202 37.7127 52.4188 37.518 52.4172C36.913 52.4128 36.308 52.4123 35.703 52.4126C35.0979 52.412 34.493 52.4105 33.8879 52.4062C33.5111 52.4035 33.1343 52.4031 32.7575 52.4051C32.5869 52.404 32.4164 52.4029 32.2408 52.4018C32.0906 52.402 31.9403 52.4021 31.7856 52.4023C31.4061 52.3442 31.4061 52.3442 31.1177 52.1416C30.9374 51.8754 30.9374 51.8754 30.9667 51.309C31.0086 51.135 31.0504 50.961 31.0936 50.7817C31.4681 50.5945 31.7118 50.601 32.1301 50.5934C32.2802 50.5902 32.4303 50.5871 32.585 50.5839C32.7475 50.5813 32.9099 50.5787 33.0773 50.576C33.2433 50.5728 33.4093 50.5695 33.5804 50.5662C34.1121 50.5559 34.6439 50.5467 35.1756 50.5376C35.5356 50.5308 35.8955 50.524 36.2554 50.5171C37.1389 50.5004 38.0225 50.4845 38.9061 50.4692C38.8854 50.3655 38.8646 50.2617 38.8432 50.1549C38.76 49.7388 38.6768 49.3228 38.5936 48.9067C38.5654 48.7735 38.5372 48.6404 38.5082 48.5031C38.4449 48.1657 38.4074 47.8446 38.3879 47.5023C38.3781 47.3369 38.3781 47.3369 38.3681 47.1681C38.3619 47.0554 38.3558 46.9427 38.3495 46.8266C38.3427 46.7109 38.336 46.5952 38.329 46.476C38.3126 46.1925 38.2968 45.909 38.2811 45.6254C38.15 45.6236 38.15 45.6236 38.0163 45.6216C37.1089 45.6082 36.2015 45.5927 35.2942 45.5759C34.9553 45.5699 34.6164 45.5644 34.2775 45.5595C33.7911 45.5524 33.3048 45.5434 32.8185 45.5339C32.6663 45.5321 32.5141 45.5303 32.3573 45.5284C32.2165 45.5253 32.0758 45.5222 31.9308 45.519C31.8066 45.5169 31.6824 45.5149 31.5544 45.5127C31.2499 45.4692 31.2499 45.4692 30.9374 45.1567C30.8983 44.6879 30.8983 44.6879 30.9374 44.2192C31.3182 43.8383 31.4223 43.8654 31.9451 43.8569C32.1609 43.8522 32.1609 43.8522 32.3811 43.8475C32.6145 43.8448 32.6145 43.8448 32.8526 43.842C33.0117 43.839 33.1708 43.8359 33.3347 43.8328C33.8442 43.8235 34.3537 43.8162 34.8631 43.809C35.208 43.8031 35.5528 43.797 35.8977 43.7907C36.7442 43.7757 37.5908 43.7624 38.4374 43.7504C38.4829 43.623 38.4829 43.623 38.5294 43.493C38.6692 43.1034 38.8102 42.7143 38.9513 42.3253C38.999 42.1916 39.0468 42.058 39.096 41.9202C40.1755 38.9548 42.3801 36.7455 45.2092 35.3972C46.5414 34.837 47.9268 34.4398 49.3749 34.3754C49.4869 34.3674 49.5988 34.3593 49.7142 34.351C51.2829 34.2879 52.8459 34.6939 54.3749 35.0004C54.3758 34.9121 54.3767 34.8238 54.3776 34.7328C54.3876 33.8127 54.4008 32.8926 54.4159 31.9725C54.4211 31.6293 54.4254 31.286 54.429 30.9427C54.4342 30.4489 54.4424 29.9552 54.4512 29.4615C54.4522 29.3083 54.4532 29.1551 54.4542 28.9973C54.4744 28.0586 54.5781 27.4839 55.2367 26.7778C57.2116 25.2121 60.0398 24.9768 62.4677 24.7604C62.6206 24.7467 62.7735 24.733 62.931 24.7189C63.0465 24.7087 63.1621 24.6985 63.2811 24.6879C63.2957 22.1753 63.3067 19.6626 63.3135 17.1499C63.3167 15.9831 63.3211 14.8165 63.3283 13.6498C63.3345 12.6328 63.3385 11.6159 63.3399 10.599C63.3407 10.0605 63.3426 9.52213 63.3472 8.98371C63.3522 8.38253 63.3524 7.7814 63.3521 7.1802C63.3554 6.91265 63.3554 6.91265 63.3589 6.63971C63.3552 5.94367 63.3515 5.45104 63.0325 4.82514C62.152 4.13871 61.1165 4.17459 60.0487 4.18161C59.8991 4.18134 59.7495 4.18108 59.5954 4.1808C59.0956 4.18029 58.5959 4.182 58.0962 4.18371C57.7374 4.1838 57.3785 4.18375 57.0197 4.18357C56.0465 4.18348 55.0732 4.18532 54.1 4.1875C53.0825 4.18946 52.0651 4.18964 51.0477 4.19001C49.3402 4.19087 47.6328 4.19282 45.9254 4.19561C44.1671 4.19848 42.4088 4.2007 40.6505 4.20202C40.4878 4.20215 40.4878 4.20215 40.3218 4.20227C39.7777 4.20268 39.2336 4.20307 38.6894 4.20346C34.1783 4.2067 29.6672 4.21223 25.1561 4.21919ZM22.4278 6.45889C22.3119 6.57436 22.196 6.68983 22.0766 6.8088C21.8846 7.00129 21.8846 7.00129 21.6887 7.19767C21.5545 7.33153 21.4204 7.46539 21.2822 7.6033C20.9133 7.97168 20.5447 8.34041 20.1762 8.70932C19.7915 9.09444 19.4064 9.47917 19.0214 9.86397C18.3747 10.5104 17.7284 11.1571 17.0822 11.804C16.334 12.553 15.5853 13.3015 14.8362 14.0497C14.1943 14.6908 13.5528 15.3323 12.9115 15.974C12.5279 16.3578 12.1442 16.7415 11.7603 17.125C11.3325 17.5522 10.9054 17.9801 10.4783 18.408C10.35 18.536 10.2217 18.664 10.0895 18.7959C9.974 18.9118 9.85853 19.0277 9.73957 19.1471C9.63837 19.2484 9.53718 19.3497 9.43292 19.454C9.20102 19.6543 9.20102 19.6543 9.21861 19.8442C10.8295 19.8551 12.4404 19.8634 14.0513 19.8685C14.7994 19.8709 15.5475 19.8742 16.2955 19.8796C17.0179 19.8847 17.7402 19.8875 18.4626 19.8887C18.7377 19.8895 19.0129 19.8912 19.288 19.8938C19.6744 19.8972 20.0606 19.8976 20.447 19.8974C20.6164 19.8999 20.6164 19.8999 20.7893 19.9025C21.5872 19.8977 22.1195 19.7459 22.8124 19.3754C23.2021 18.7908 23.1667 18.3394 23.1603 17.663C23.1604 17.5364 23.1604 17.4099 23.1605 17.2795C23.1603 16.861 23.1578 16.4425 23.1554 16.024C23.1548 15.7339 23.1544 15.4438 23.154 15.1537C23.1528 14.39 23.1498 13.6264 23.1463 12.8627C23.1431 12.0835 23.1417 11.3043 23.1401 10.525C23.1368 8.996 23.1314 7.46697 23.1249 5.93794C22.8279 5.93794 22.6247 6.26218 22.4278 6.45889ZM56.4061 28.2817C57.475 29.5376 59.6828 29.8176 61.2499 30.0004C61.3967 30.0178 61.5435 30.0351 61.6948 30.0529C65.0998 30.3921 69.1408 30.3351 72.1874 28.5942C72.0353 28.2048 71.9371 28.0067 71.574 27.7879C69.2318 26.9024 66.944 26.6824 64.4628 26.6801C64.2842 26.6799 64.2842 26.6799 64.1021 26.6797C61.4612 26.682 58.7043 26.8268 56.4061 28.2817ZM56.4061 30.7817C56.3788 31.2894 56.3622 31.7969 56.3475 32.3051C56.3397 32.4489 56.3318 32.5928 56.3237 32.7409C56.3149 33.1484 56.3206 33.508 56.4061 33.9067C58.3407 35.744 62.4404 35.6864 64.9462 35.6492C68.9075 35.5637 68.9075 35.5637 72.3436 33.9067C72.3572 33.6741 72.3603 33.4408 72.3589 33.2078C72.3584 33.0674 72.3579 32.9269 72.3573 32.7821C72.356 32.6344 72.3547 32.4866 72.3534 32.3344C72.3527 32.1861 72.352 32.0377 72.3512 31.8849C72.3494 31.5172 72.3468 31.1494 72.3436 30.7817C72.1754 30.8345 72.0072 30.8872 71.834 30.9416C66.8637 32.4718 61.3446 32.4941 56.4061 30.7817ZM42.9686 39.3754C42.8717 39.4675 42.7749 39.5595 42.675 39.6544C42.0313 40.3096 41.6155 41.0543 41.201 41.8657C41.1482 41.9682 41.0954 42.0707 41.041 42.1764C39.9662 44.3791 39.9595 47.224 40.7427 49.5219C41.8856 52.3308 43.9415 54.278 46.7186 55.4692C49.1608 56.3395 51.6616 56.2383 54.0538 55.2293C56.6113 54.0029 58.4246 52.0893 59.4286 49.4481C59.7004 48.6024 59.9315 47.7637 59.9999 46.8754C60.012 46.7292 60.012 46.7292 60.0243 46.58C60.1444 43.8778 59.0091 41.2862 57.2502 39.2808C55.523 37.5592 53.2157 36.443 50.7811 36.2504C50.679 36.242 50.5769 36.2335 50.4717 36.2248C47.6003 36.1063 44.9279 37.3286 42.9686 39.3754ZM71.388 36.5124C66.8895 37.9843 62.0739 37.6774 57.4999 36.7192C57.9208 37.2156 58.34 37.7091 58.7853 38.184C59.3823 38.823 59.8494 39.3364 60.1659 40.1567C60.3283 40.5157 60.3283 40.5157 60.6249 40.7817C61.4512 41.0333 62.2655 41.0703 63.1249 41.0942C63.3279 41.1029 63.5309 41.1115 63.7401 41.1204C66.5577 41.1801 69.7015 40.9735 72.1874 39.5317C72.3774 39.3763 72.3774 39.3763 72.3614 39.0708C72.3605 38.9407 72.3597 38.8106 72.3589 38.6766C72.3584 38.5361 72.3579 38.3956 72.3573 38.2509C72.356 38.1031 72.3547 37.9554 72.3534 37.8032C72.3527 37.6548 72.352 37.5065 72.3512 37.3537C72.3494 36.9859 72.3468 36.6182 72.3436 36.2504C72.012 36.2504 71.7003 36.4091 71.388 36.5124ZM71.4061 42.0024C68.2147 43.0725 64.8862 42.9915 61.5624 42.9692C61.7171 44.1036 61.8717 45.2379 62.0311 46.4067C65.263 46.8684 69.2988 46.6758 72.1874 45.0004C72.3774 44.845 72.3774 44.845 72.3614 44.5396C72.3605 44.4095 72.3597 44.2794 72.3589 44.1453C72.3584 44.0049 72.3579 43.8644 72.3573 43.7196C72.356 43.5719 72.3547 43.4241 72.3534 43.2719C72.3527 43.1236 72.352 42.9752 72.3512 42.8224C72.3494 42.4547 72.3468 42.0869 72.3436 41.7192C72.0268 41.7192 71.6985 41.8963 71.4061 42.0024ZM71.4061 47.4711C68.2684 48.5233 64.9885 48.4628 61.7186 48.4379C61.691 48.5207 61.6635 48.6034 61.635 48.6887C61.2983 49.6989 60.9616 50.709 60.6249 51.7192C64.3389 52.2723 68.8209 52.4217 72.1874 50.4692C72.3774 50.3138 72.3774 50.3138 72.3614 50.0083C72.3605 49.8782 72.3597 49.7481 72.3589 49.6141C72.3584 49.4736 72.3579 49.3331 72.3573 49.1884C72.356 49.0406 72.3547 48.8929 72.3534 48.7407C72.3527 48.5923 72.352 48.444 72.3512 48.2912C72.3494 47.9234 72.3468 47.5557 72.3436 47.1879C72.0268 47.1879 71.6985 47.3651 71.4061 47.4711ZM71.4061 52.9399C68.5908 53.8828 65.3447 54.1899 62.4108 53.7779C60.5185 53.4138 60.5185 53.4138 58.7633 53.9342C58.4501 54.226 58.2347 54.5133 57.9808 54.8649C57.6024 55.387 57.2666 55.6107 56.7186 55.9379C59.0703 57.9222 63.7483 57.6515 66.6171 57.4201C69.699 57.1793 69.699 57.1793 72.3436 55.7817C72.3572 55.5491 72.3603 55.3158 72.3589 55.0828C72.3584 54.9424 72.3579 54.8019 72.3573 54.6571C72.356 54.5094 72.3547 54.3616 72.3534 54.2094C72.3527 54.0611 72.352 53.9127 72.3512 53.7599C72.3494 53.3922 72.3468 53.0244 72.3436 52.6567C72.0268 52.6567 71.6985 52.8338 71.4061 52.9399Z" fill="#1A4D2E"/>
<path d="M15.3362 23.7067C15.4476 23.7059 15.559 23.7051 15.6737 23.7043C16.0412 23.7021 16.4086 23.7022 16.7761 23.7026C17.0322 23.702 17.2883 23.7013 17.5444 23.7006C18.0811 23.6994 18.6178 23.6994 19.1544 23.7003C19.841 23.7012 20.5274 23.6985 21.2139 23.6949C21.7429 23.6926 22.2718 23.6925 22.8008 23.693C23.0538 23.6929 23.3069 23.6921 23.5599 23.6905C23.9144 23.6885 24.2688 23.6896 24.6233 23.6914C24.8248 23.6913 25.0262 23.6912 25.2338 23.6911C25.8477 23.7567 26.2081 23.8713 26.7187 24.2183C27.1858 24.9077 27.2466 25.4731 27.2482 26.2945C27.249 26.4043 27.2498 26.5142 27.2506 26.6274C27.2527 26.9882 27.2513 27.3488 27.2498 27.7096C27.2501 27.9617 27.2505 28.2138 27.2511 28.466C27.2518 28.9935 27.2508 29.5209 27.2486 30.0483C27.2459 30.723 27.2475 31.3975 27.2503 32.0721C27.252 32.5925 27.2514 33.1128 27.2502 33.6332C27.2499 33.8819 27.2503 34.1306 27.2514 34.3792C27.2526 34.7274 27.2508 35.0754 27.2482 35.4235C27.2478 35.6212 27.2474 35.8189 27.247 36.0226C27.1798 36.6316 27.0625 36.9922 26.7187 37.4996C26.026 37.9696 25.454 38.028 24.6283 38.0315C24.4612 38.0331 24.4612 38.0331 24.2907 38.0347C23.9249 38.0376 23.5592 38.037 23.1934 38.0361C22.9377 38.0368 22.6821 38.0376 22.4264 38.0386C21.8916 38.04 21.3568 38.0396 20.822 38.038C20.1379 38.0362 19.4539 38.0394 18.7699 38.044C18.2422 38.0468 17.7147 38.0468 17.187 38.0459C16.9349 38.0459 16.6827 38.0468 16.4305 38.0488C16.0775 38.0511 15.7247 38.0494 15.3717 38.0467C15.1712 38.0467 14.9707 38.0467 14.7641 38.0467C14.0241 37.9404 13.5234 37.6641 13.0692 37.0625C12.924 36.5649 12.9264 36.1047 12.9234 35.5865C12.9223 35.4736 12.9213 35.3608 12.9202 35.2444C12.9172 34.8719 12.9166 34.4994 12.9163 34.1268C12.9153 33.8672 12.9142 33.6076 12.9131 33.348C12.9112 32.804 12.9107 32.2599 12.9108 31.7159C12.9109 31.0199 12.9066 30.324 12.9012 29.628C12.8977 29.0918 12.8971 28.5557 12.8973 28.0195C12.8969 27.7629 12.8955 27.5064 12.8931 27.2499C12.89 26.8905 12.891 26.5313 12.8928 26.1719C12.8924 25.9676 12.8919 25.7634 12.8915 25.553C12.9829 24.8984 13.1721 24.5666 13.5938 24.0621C14.129 23.659 14.6829 23.709 15.3362 23.7067ZM15 25.7808C15 29.1324 15 32.484 15 35.9371C18.3516 35.9371 21.7031 35.9371 25.1562 35.9371C25.1562 32.5855 25.1562 29.234 25.1562 25.7808C21.8047 25.7808 18.4531 25.7808 15 25.7808Z" fill="#1A4D2E"/>
<path d="M15.5162 59.1579C15.6263 59.1571 15.7364 59.1563 15.8499 59.1554C16.2114 59.1534 16.5728 59.1547 16.9343 59.1563C17.1868 59.156 17.4393 59.1555 17.6918 59.1549C18.22 59.1543 18.7481 59.1553 19.2762 59.1574C19.9522 59.1601 20.6281 59.1586 21.3042 59.1558C21.8252 59.1541 22.3462 59.1546 22.8673 59.1558C23.1165 59.1561 23.3658 59.1558 23.615 59.1547C23.9635 59.1535 24.3119 59.1553 24.6605 59.1579C24.9576 59.1585 24.9576 59.1585 25.2607 59.159C26.0122 59.245 26.5489 59.5771 27.0313 60.1561C27.2134 60.7022 27.2097 61.1338 27.2128 61.7102C27.2139 61.8749 27.2139 61.8749 27.2151 62.043C27.2174 62.4062 27.2185 62.7695 27.2193 63.1327C27.2202 63.3856 27.2211 63.6384 27.222 63.8912C27.2237 64.4214 27.2246 64.9517 27.2251 65.4819C27.226 66.1602 27.2297 66.8385 27.2342 67.5168C27.2371 68.0392 27.2379 68.5615 27.2381 69.0839C27.2386 69.3339 27.2399 69.5839 27.2419 69.8339C27.2446 70.1843 27.2443 70.5346 27.2433 70.885C27.2441 71.1837 27.2441 71.1837 27.245 71.4884C27.1638 72.2558 26.9708 72.7593 26.3708 73.2576C25.8201 73.486 25.3843 73.498 24.788 73.5004C24.6751 73.5015 24.5622 73.5026 24.4459 73.5037C24.0741 73.5065 23.7025 73.5059 23.3308 73.5051C23.0714 73.5058 22.812 73.5066 22.5526 73.5075C22.0095 73.5089 21.4665 73.5086 20.9234 73.507C20.2286 73.5052 19.5339 73.5084 18.8392 73.5129C18.3036 73.5158 17.7681 73.5157 17.2326 73.5149C16.9765 73.5148 16.7204 73.5158 16.4643 73.5177C16.1057 73.5201 15.7473 73.5184 15.3886 73.5157C15.1849 73.5157 14.9811 73.5156 14.7712 73.5156C14.0267 73.4101 13.5264 73.1365 13.0692 72.5316C12.9239 72.033 12.9277 71.5722 12.9259 71.053C12.9251 70.9399 12.9243 70.8267 12.9235 70.7102C12.9213 70.3369 12.9215 69.9636 12.9218 69.5903C12.9212 69.3303 12.9206 69.0703 12.9198 68.8103C12.9186 68.2657 12.9187 67.721 12.9195 67.1763C12.9204 66.4789 12.9178 65.7815 12.9141 65.0841C12.9118 64.5473 12.9117 64.0105 12.9122 63.4736C12.9121 63.2165 12.9113 62.9594 12.9097 62.7023C12.9078 62.3425 12.9088 61.9829 12.9107 61.6231C12.9106 61.4185 12.9105 61.214 12.9104 61.0032C12.9744 60.4174 13.062 60.1388 13.4376 59.6873C14.1355 59.2303 14.6914 59.1595 15.5162 59.1579ZM15.0001 61.2498C15.0001 64.6014 15.0001 67.9529 15.0001 71.4061C18.3516 71.4061 21.7032 71.4061 25.1563 71.4061C25.1563 68.0545 25.1563 64.7029 25.1563 61.2498C21.8048 61.2498 18.4532 61.2498 15.0001 61.2498Z" fill="#1A4D2E"/>
<path d="M15.2253 41.4993C15.3996 41.4977 15.3996 41.4977 15.5774 41.4961C15.9608 41.4932 16.3442 41.4938 16.7277 41.4947C16.9947 41.494 17.2617 41.4932 17.5286 41.4922C18.0881 41.4908 18.6474 41.4912 19.2068 41.4928C19.9232 41.4946 20.6394 41.4914 21.3557 41.4868C21.9071 41.484 22.4584 41.484 23.0097 41.4849C23.2738 41.4849 23.5379 41.484 23.8019 41.4821C24.1715 41.4797 24.5408 41.4814 24.9103 41.4841C25.0191 41.4826 25.1278 41.481 25.2398 41.4795C25.7768 41.4876 26.0796 41.5538 26.5386 41.8408C27.1938 42.5164 27.2272 42.993 27.2327 43.9299C27.2337 44.0413 27.2348 44.1527 27.2359 44.2674C27.2388 44.6349 27.2395 45.0023 27.2398 45.3698C27.2408 45.6259 27.2418 45.882 27.2429 46.1381C27.2448 46.6748 27.2454 47.2115 27.2452 47.7481C27.2452 48.4347 27.2494 49.1211 27.2548 49.8077C27.2583 50.3366 27.2589 50.8655 27.2588 51.3945C27.2591 51.6475 27.2605 51.9006 27.2629 52.1536C27.266 52.5082 27.2651 52.8625 27.2632 53.217C27.2637 53.4185 27.2641 53.6199 27.2646 53.8275C27.1732 54.4747 26.9711 54.808 26.5623 55.3125C26.0022 55.6859 25.5978 55.6722 24.9508 55.6728C24.8349 55.6741 24.719 55.6754 24.5995 55.6768C24.216 55.6805 23.8325 55.6819 23.4489 55.6829C23.1821 55.6843 22.9152 55.6858 22.6484 55.6872C22.0887 55.6898 21.5291 55.691 20.9694 55.6915C20.2532 55.6923 19.5372 55.6982 18.8211 55.7053C18.2697 55.71 17.7184 55.7111 17.1671 55.7113C16.9031 55.7119 16.6392 55.7139 16.3752 55.7171C16.0053 55.7213 15.6357 55.7206 15.2657 55.7186C15.1573 55.7209 15.0489 55.7232 14.9373 55.7256C14.0687 55.7126 13.7086 55.4431 13.1248 54.8437C12.9412 54.2929 12.9464 53.8542 12.9434 53.2727C12.9422 53.1054 12.9422 53.1054 12.941 52.9346C12.9387 52.5655 12.9377 52.1964 12.9368 51.8274C12.9359 51.5707 12.935 51.314 12.9341 51.0573C12.9325 50.519 12.9316 49.9807 12.931 49.4425C12.9302 48.7533 12.9264 48.0642 12.922 47.375C12.919 46.8447 12.9182 46.3145 12.918 45.7842C12.9175 45.5301 12.9163 45.2761 12.9142 45.0221C12.9115 44.6664 12.9118 44.3108 12.9129 43.9551C12.9123 43.7529 12.9117 43.5506 12.9111 43.3422C12.9881 42.6324 13.2179 42.2589 13.7064 41.752C14.2058 41.4861 14.6732 41.4958 15.2253 41.4993ZM14.9998 43.5937C14.9998 46.9453 14.9998 50.2968 14.9998 53.75C18.3514 53.75 21.7029 53.75 25.1561 53.75C25.1561 50.3984 25.1561 47.0468 25.1561 43.5937C21.8045 43.5937 18.4529 43.5937 14.9998 43.5937Z" fill="#1A4D2E"/>
<path d="M32.0971 25.8959C32.277 25.8946 32.4568 25.8932 32.6421 25.8919C32.8404 25.892 33.0388 25.8921 33.2431 25.8923C33.4532 25.8913 33.6634 25.8903 33.8736 25.8891C34.4453 25.8863 35.0171 25.8856 35.5888 25.8854C36.0656 25.8851 36.5425 25.884 37.0193 25.8829C38.1441 25.8803 39.2688 25.8796 40.3936 25.8798C41.5549 25.88 42.7161 25.8767 43.8774 25.8717C44.8736 25.8676 45.8697 25.866 46.8659 25.8662C47.4612 25.8662 48.0565 25.8653 48.6519 25.862C49.2117 25.859 49.7715 25.859 50.3313 25.8613C50.6352 25.8618 50.9391 25.8591 51.2429 25.8564C51.4232 25.8578 51.6035 25.8591 51.7893 25.8604C52.0248 25.8602 52.0248 25.8602 52.2651 25.8599C52.6562 25.9377 52.6562 25.9377 52.946 26.2196C53.2171 26.7393 53.1123 27.1026 52.9687 27.6564C52.4415 28.0079 52.2643 28.0086 51.647 28.0107C51.4698 28.012 51.2926 28.0134 51.11 28.0148C50.9154 28.0146 50.7208 28.0145 50.5204 28.0143C50.3156 28.0154 50.1108 28.0164 49.8997 28.0175C49.3377 28.0203 48.7757 28.021 48.2136 28.0212C47.7445 28.0215 47.2755 28.0226 46.8064 28.0238C45.6998 28.0263 44.5933 28.0271 43.4867 28.0268C42.3449 28.0266 41.2031 28.0299 40.0612 28.0349C39.0811 28.039 38.101 28.0406 37.1209 28.0404C36.5354 28.0404 35.95 28.0413 35.3645 28.0446C34.7117 28.0481 34.0589 28.0467 33.4061 28.0448C33.2118 28.0466 33.0176 28.0484 32.8174 28.0502C32.6398 28.0489 32.4621 28.0475 32.2791 28.0462C32.0475 28.0464 32.0475 28.0464 31.8113 28.0467C31.2875 27.9461 31.0979 27.767 30.7812 27.3439C30.8188 26.2544 31.0087 25.8995 32.0971 25.8959Z" fill="#1A4D2E"/>
<path d="M50.7812 9.6875C51.098 9.99649 51.3476 10.3418 51.6016 10.7031C52.0947 11.3955 52.0947 11.3955 52.6562 12.0312C52.7137 11.9563 52.7711 11.8814 52.8303 11.8042C53.0925 11.4648 53.3577 11.1279 53.623 10.791C53.7134 10.6731 53.8037 10.5552 53.8968 10.4337C53.9859 10.3214 54.075 10.2091 54.1669 10.0934C54.2479 9.98947 54.3289 9.88555 54.4123 9.77848C54.7588 9.46714 55.0094 9.41737 55.4687 9.375C55.8916 9.5277 56.0473 9.59455 56.25 10C56.316 10.7352 56.2185 11.0957 55.7715 11.6785C55.6728 11.8094 55.5741 11.9403 55.4724 12.0752C55.3681 12.2089 55.2637 12.3427 55.1562 12.4805C55.0519 12.6178 54.9476 12.7552 54.8401 12.8967C54.5828 13.2348 54.3236 13.5712 54.0625 13.9062C54.5455 14.6456 55.0254 15.3691 55.5957 16.0449C56.011 16.5735 56.2825 16.9573 56.25 17.6562C56.0937 18.0273 56.0937 18.0273 55.7812 18.2812C55.2832 18.4082 55.2832 18.4082 54.6875 18.2812C53.926 17.6235 53.3376 16.7909 52.8125 15.9375C52.0529 16.1907 51.7672 16.8996 51.3354 17.5488C50.9375 17.9688 50.9375 17.9688 50.3687 18.1201C49.8437 18.125 49.8437 18.125 49.4531 17.8906C49.1153 17.3275 49.2176 17.0377 49.375 16.4062C49.6302 15.9982 49.9362 15.6438 50.2539 15.2832C50.5584 14.936 50.8254 14.5973 51.0937 14.2188C51.0184 13.5764 50.6541 13.178 50.2637 12.6758C48.9091 10.9249 48.9091 10.9249 48.8965 10.2832C49.0625 9.84375 49.0625 9.84375 49.4043 9.53125C49.9974 9.32037 50.2141 9.42327 50.7812 9.6875Z" fill="#1A4D2E"/>
<path d="M43.734 9.44777C44.3893 9.77152 44.596 10.2314 44.8983 10.8647C44.9576 10.9823 45.0168 11.1 45.0778 11.2211C45.2665 11.5972 45.4508 11.9751 45.635 12.3534C45.7593 12.6037 45.8839 12.8538 46.0088 13.1038C46.1896 13.4658 46.3701 13.8278 46.549 14.1907C46.9037 14.909 47.2733 15.6131 47.6833 16.3018C47.8911 16.7202 47.8989 17.0475 47.8127 17.4999C47.5721 17.8671 47.3807 17.9541 46.9729 18.1151C46.5627 18.1249 46.5627 18.1249 46.1721 17.9198C45.6164 17.3224 45.3413 16.678 45.0002 15.9374C43.969 15.8858 42.9377 15.8342 41.8752 15.7811C41.8237 16.0389 41.7721 16.2967 41.719 16.5624C41.5493 16.9353 41.5493 16.9353 41.3479 17.2948C41.2822 17.4146 41.2166 17.5345 41.1489 17.6579C40.9377 17.9686 40.9377 17.9686 40.469 18.2811C39.8928 18.2691 39.6266 18.2171 39.2092 17.8124C38.7979 16.4962 40.198 14.5149 40.7815 13.3299C40.8959 13.0959 41.0102 12.8618 41.1245 12.6277C41.4256 12.0116 41.7278 11.396 42.0315 10.7811C42.1133 10.6087 42.195 10.4364 42.2793 10.2588C42.6291 9.60156 42.9819 9.3266 43.734 9.44777ZM43.2815 12.9686C43.1784 13.2264 43.0752 13.4842 42.969 13.7499C43.2784 13.7499 43.5877 13.7499 43.9065 13.7499C43.8034 13.4921 43.7002 13.2342 43.594 12.9686C43.4909 12.9686 43.3877 12.9686 43.2815 12.9686Z" fill="#1A4D2E"/>
<path d="M32.7574 61.3636C32.8954 61.3628 33.0334 61.362 33.1756 61.3612C33.6324 61.359 34.0892 61.3592 34.546 61.3595C34.863 61.3589 35.18 61.3582 35.497 61.3575C36.1617 61.3563 36.8263 61.3564 37.4909 61.3572C38.3437 61.3581 39.1965 61.3555 40.0492 61.3518C40.7039 61.3495 41.3585 61.3494 42.0132 61.3499C42.3277 61.3498 42.6422 61.349 42.9567 61.3474C43.3958 61.3455 43.8349 61.3465 44.2741 61.3483C44.4047 61.3472 44.5352 61.346 44.6697 61.3447C45.561 61.3529 45.561 61.3529 45.888 61.6262C46.1412 61.9326 46.2267 62.1016 46.2501 62.5003C46.0708 62.8508 45.9049 63.158 45.6251 63.4378C45.1862 63.456 44.7511 63.464 44.3121 63.4654C44.1744 63.4665 44.0367 63.4675 43.8948 63.4685C43.437 63.4716 42.9793 63.4734 42.5215 63.475C42.3656 63.4756 42.2096 63.4763 42.0489 63.4769C41.2236 63.4802 40.3982 63.4824 39.5728 63.4839C38.7189 63.4856 37.8651 63.491 37.0113 63.4972C36.356 63.5013 35.7007 63.5026 35.0453 63.5032C34.7305 63.5039 34.4157 63.5057 34.101 63.5086C33.6606 63.5124 33.2204 63.5123 32.7801 63.5112C32.6496 63.5132 32.5192 63.5152 32.3848 63.5173C31.82 63.5122 31.475 63.4862 31.0074 63.1561C30.7814 62.8128 30.7814 62.8128 30.7912 62.2464C31.0783 61.2126 31.8464 61.3609 32.7574 61.3636Z" fill="#1A4D2E"/>
<path d="M34.5298 9.34374C34.7133 9.3424 34.7133 9.3424 34.9005 9.34104C35.1593 9.33956 35.418 9.33854 35.6767 9.33794C36.0715 9.33642 36.4661 9.33157 36.8607 9.32665C37.1124 9.32563 37.3641 9.32481 37.6157 9.32421C37.7921 9.32131 37.7921 9.32131 37.9719 9.31836C38.6748 9.32133 39.1321 9.40254 39.6873 9.84422C39.8933 10.3335 39.8751 10.5435 39.6842 11.0387C39.3748 11.4067 39.3748 11.4067 38.8163 11.483C38.6019 11.4778 38.3876 11.4685 38.1736 11.4556C38.0091 11.4503 38.0091 11.4503 37.8413 11.4449C37.571 11.4357 37.301 11.4217 37.031 11.4067C37.0563 11.4836 37.0815 11.5604 37.1075 11.6395C37.2202 12.1938 37.2127 12.7436 37.2135 13.3067C37.214 13.4296 37.2146 13.5525 37.2151 13.679C37.2159 13.9382 37.2163 14.1973 37.2162 14.4564C37.2166 14.8531 37.2194 15.2498 37.2224 15.6465C37.2228 15.8985 37.2231 16.1505 37.2233 16.4025C37.2244 16.5211 37.2255 16.6398 37.2267 16.762C37.2241 17.3537 37.2112 17.6208 36.8748 18.1255C36.3796 18.2654 36.0659 18.3269 35.576 18.1548C35.3123 17.9692 35.3123 17.9692 35.156 17.6567C35.1314 17.1899 35.1156 16.7262 35.1066 16.259C35.1033 16.1207 35.1001 15.9825 35.0968 15.84C35.0865 15.3974 35.0773 14.9548 35.0681 14.5122C35.0614 14.2125 35.0546 13.9128 35.0477 13.6131C35.0309 12.8777 35.0151 12.1422 34.9998 11.4067C34.8473 11.4122 34.6948 11.4176 34.5377 11.4232C34.2395 11.4295 34.2395 11.4295 33.9353 11.436C33.6389 11.4442 33.6389 11.4442 33.3366 11.4525C32.8123 11.4067 32.8123 11.4067 32.5114 11.1998C32.2486 10.7898 32.2843 10.4742 32.3435 10.0005C32.8831 9.2554 33.6914 9.34845 34.5298 9.34374Z" fill="#1A4D2E"/>
<path d="M54.0624 40.6254C54.3749 41.0942 54.3749 41.0942 54.3694 41.5965C54.1799 42.3397 53.8446 42.7807 53.369 43.3696C53.1963 43.5914 53.0238 43.8133 52.8514 44.0355C52.7652 44.1455 52.679 44.2556 52.5902 44.3689C52.2381 44.8245 51.904 45.2917 51.5721 45.7621C51.4456 45.9404 51.3191 46.1186 51.1925 46.2968C51.1271 46.389 51.0617 46.4811 50.9943 46.576C50.4131 47.3923 49.8263 48.2046 49.2357 49.0141C48.9318 49.4317 48.6371 49.853 48.3519 50.2836C47.5335 51.4959 47.5335 51.4959 46.9908 51.6874C46.6503 51.6996 46.6503 51.6996 46.0936 51.5629C45.7811 51.2504 45.7811 51.2504 45.7012 50.6926C45.7259 49.8146 46.217 49.2755 46.7479 48.6137C46.9503 48.3508 47.1525 48.0877 47.3546 47.8245C47.4576 47.6923 47.5606 47.56 47.6667 47.4238C48.1232 46.831 48.5587 46.224 48.994 45.6157C49.16 45.3853 49.326 45.155 49.4921 44.9247C49.7534 44.5618 50.0146 44.1987 50.2758 43.8356C50.4617 43.577 50.6478 43.3186 50.8339 43.0602C51.0086 42.8176 51.183 42.575 51.3573 42.3322C52.7842 40.3515 52.7842 40.3515 54.0624 40.6254Z" fill="#1A4D2E"/>
<path d="M32.4001 68.2181C32.5751 68.2165 32.5751 68.2165 32.7537 68.2148C33.1395 68.212 33.5252 68.2126 33.9111 68.2135C34.179 68.2128 34.447 68.2119 34.7149 68.211C35.2766 68.2096 35.8382 68.21 36.3998 68.2115C37.1202 68.2133 37.8405 68.2102 38.5609 68.2056C39.1142 68.2027 39.6676 68.2028 40.2209 68.2037C40.4865 68.2037 40.7522 68.2027 41.0178 68.2008C41.3889 68.1985 41.7598 68.2001 42.131 68.2028C42.241 68.2013 42.3511 68.1998 42.4645 68.1982C42.9628 68.2058 43.2174 68.2214 43.588 68.5687C43.8215 69.0555 43.7557 69.3361 43.5937 69.8437C43.2203 70.2267 43.0017 70.3085 42.4657 70.373C42.1674 70.3743 42.1674 70.3743 41.8631 70.3756C41.753 70.3767 41.6429 70.3777 41.5295 70.3788C41.1663 70.3817 40.8032 70.3811 40.44 70.3802C40.187 70.3809 39.9341 70.3818 39.6811 70.3827C39.1511 70.3841 38.6211 70.3837 38.0912 70.3822C37.4127 70.3804 36.7343 70.3835 36.0558 70.3881C35.5334 70.391 35.011 70.3909 34.4887 70.39C34.2385 70.39 33.9884 70.3909 33.7383 70.3929C33.3882 70.3952 33.0383 70.3935 32.6883 70.3909C32.4892 70.3908 32.2902 70.3908 32.0852 70.3908C31.4707 70.2987 31.2091 70.1317 30.7812 69.6875C30.7018 69.2012 30.677 68.9113 30.9485 68.4908C31.4041 68.174 31.8647 68.2147 32.4001 68.2181Z" fill="#1A4D2E"/>
<path d="M32.7778 32.6309C32.9384 32.6297 32.9384 32.6297 33.1021 32.6285C33.456 32.6262 33.8098 32.6252 34.1637 32.6243C34.4099 32.6234 34.6561 32.6225 34.9023 32.6216C35.4185 32.62 35.9346 32.6191 36.4508 32.6185C37.1116 32.6177 37.7724 32.6139 38.4332 32.6095C38.9417 32.6065 39.4503 32.6057 39.9589 32.6055C40.2025 32.605 40.446 32.6038 40.6896 32.6017C41.0307 32.599 41.3717 32.5993 41.7128 32.6004C41.9067 32.5998 42.1006 32.5992 42.3004 32.5986C42.8588 32.6613 43.1533 32.7801 43.5936 33.1248C43.7675 33.6354 43.824 33.9083 43.5874 34.3998C43.1423 34.8177 42.7105 34.7736 42.1309 34.7657C42.0143 34.7665 41.8976 34.7674 41.7774 34.7683C41.3915 34.7702 41.0059 34.7676 40.62 34.7648C40.3521 34.7648 40.0841 34.7651 39.8162 34.7655C39.2545 34.7657 38.6929 34.7638 38.1312 34.7602C37.4108 34.7558 36.6905 34.7562 35.9701 34.7582C35.4168 34.7593 34.8635 34.7581 34.3102 34.7561C34.0445 34.7554 33.7789 34.7554 33.5133 34.756C33.1422 34.7564 32.7712 34.7538 32.4001 34.7504C32.235 34.7515 32.235 34.7515 32.0665 34.7526C31.621 34.7458 31.3196 34.7354 30.9473 34.4783C30.6858 34.0695 30.7222 33.753 30.7811 33.2811C31.2884 32.5806 31.9758 32.6353 32.7778 32.6309Z" fill="#1A4D2E"/>
<path d="M48.0467 39.326C48.7233 39.9518 49.1808 40.4889 49.3748 41.4061C49.3902 42.3528 49.2134 43.0095 48.5936 43.7498C47.7732 44.4902 47.1376 44.5872 46.0612 44.5744C45.3874 44.5075 45.068 44.3224 44.5311 43.9061C43.824 42.9943 43.618 42.225 43.7498 41.0936C44.0177 40.2638 44.413 39.6949 45.1561 39.2186C46.0989 38.9043 47.1506 38.8939 48.0467 39.326ZM46.0936 41.0936C45.7289 41.5281 45.7289 41.5281 45.8397 41.9822C45.8719 42.1015 45.9041 42.2207 45.9373 42.3436C46.4014 42.4209 46.4014 42.4209 46.8748 42.4998C47.0295 42.2936 47.1842 42.0873 47.3436 41.8748C47.153 41.4544 47.153 41.4544 46.8748 41.0936C46.4908 41.0415 46.4908 41.0415 46.0936 41.0936Z" fill="#1A4D2E"/>
<path d="M54.531 46.8753C55.3554 47.2728 55.865 47.8473 56.2889 48.6526C56.5547 49.5832 56.4334 50.2837 55.9812 51.1154C55.6063 51.6607 55.1245 52.0473 54.531 52.344C53.3736 52.4512 52.4902 52.4536 51.5623 51.719C50.8482 50.7982 50.6737 50.0446 50.781 48.9065C51.0792 48.0905 51.5683 47.4761 52.3112 47.0132C53.0166 46.731 53.7868 46.7945 54.531 46.8753ZM53.1248 48.9065C52.763 49.3393 52.763 49.3393 52.8611 49.7854C52.9333 50.1464 52.9333 50.1464 53.1248 50.3128C53.4903 50.2679 53.8551 50.216 54.2185 50.1565C54.3388 49.7901 54.3388 49.7901 54.3748 49.3753C54.2155 49.0727 54.2155 49.0727 53.906 48.9065C53.5088 48.8284 53.5088 48.8284 53.1248 48.9065Z" fill="#1A4D2E"/>
<path d="M23.9063 63.5935C24.1504 64.033 24.1504 64.033 24.2188 64.531C23.8833 65.2671 23.3442 65.7071 22.7344 66.2107C22.6378 66.2918 22.5413 66.373 22.4418 66.4566C22.1498 66.7014 21.8563 66.9445 21.5625 67.1873C21.4325 67.2953 21.4325 67.2953 21.2998 67.4056C19.4961 68.9045 19.4961 68.9045 18.8709 68.9121C18.0804 68.6945 17.6877 68.2949 17.1289 67.7146C17.0308 67.6201 16.9327 67.5257 16.8317 67.4284C16.2214 66.8102 15.9353 66.3756 15.9375 65.4685C16.1719 65.0779 16.1719 65.0779 16.5625 64.8435C17.186 64.7955 17.5232 64.8886 18.0048 65.2909C18.3168 65.6018 18.6158 65.9186 18.9063 66.2498C19.5372 65.9866 20.017 65.5499 20.5274 65.1072C20.787 64.8842 21.0468 64.6613 21.3066 64.4385C21.4782 64.291 21.6492 64.143 21.8196 63.9943C22.5735 63.3468 22.977 63.1388 23.9063 63.5935Z" fill="#1A4D2E"/>
<path d="M23.1543 45.3708C23.75 45.4684 23.75 45.4684 24.082 45.8005C24.2648 46.4009 24.1696 46.6184 23.9063 47.1872C23.5763 47.5549 23.2047 47.8617 22.8223 48.1735C22.7177 48.2613 22.6131 48.3491 22.5054 48.4395C22.1927 48.7011 21.8778 48.9599 21.5625 49.2184C21.3889 49.3628 21.2153 49.5072 21.0419 49.6518C19.4899 50.9358 19.4899 50.9358 18.8709 50.9433C18.0804 50.7256 17.6877 50.326 17.1289 49.7458C17.0308 49.6513 16.9327 49.5568 16.8317 49.4595C16.2214 48.8413 15.9353 48.4068 15.9375 47.4997C16.1719 47.109 16.1719 47.109 16.5625 46.8747C17.186 46.8267 17.5232 46.9198 18.0048 47.3221C18.3168 47.633 18.6158 47.9498 18.9063 48.2809C19.5372 48.0178 20.017 47.5811 20.5274 47.1383C20.7871 46.9153 21.047 46.6923 21.3073 46.4699C21.4776 46.3229 21.6462 46.1741 21.8131 46.0234C22.5651 45.359 22.5651 45.359 23.1543 45.3708Z" fill="#1A4D2E"/>
<path d="M23.5936 28.1246C24.0624 28.4371 24.0624 28.4371 24.2382 28.8472C24.2072 29.6845 23.7175 30.0705 23.1249 30.6246C22.7144 30.9798 22.297 31.3218 21.8706 31.6579C21.5424 31.9214 21.229 32.1859 20.9172 32.4672C20.8358 32.5393 20.7544 32.6115 20.6705 32.6858C20.4415 32.8893 20.2145 33.0951 19.9877 33.301C19.3952 33.6804 19.1294 33.731 18.4374 33.5933C17.9701 33.2746 17.5949 32.8895 17.2069 32.48C17.1014 32.3761 16.9958 32.2722 16.8871 32.1651C16.4293 31.6963 16.1303 31.3624 15.9258 30.7326C15.9374 30.3121 15.9374 30.3121 16.2596 29.8531C16.7186 29.5308 16.7186 29.5308 17.1581 29.482C17.9058 29.7899 18.3725 30.3425 18.9061 30.9371C19.5469 30.7223 19.9414 30.4337 20.4296 29.9703C22.6552 27.9235 22.6552 27.9235 23.5936 28.1246Z" fill="#1A4D2E"/>
</svg>
