<svg width="20" height="21" viewBox="0 0 20 21" fill="none" xmlns="http://www.w3.org/2000/svg">
<path d="M16.8508 10.9845C16.5833 10.9845 16.3664 10.7676 16.3664 10.5C16.3664 10.2325 16.5833 10.0156 16.8508 10.0156H17.3628C17.2533 8.33442 16.5784 6.80526 15.5267 5.61644L15.1746 5.96863C15.08 6.06324 14.9559 6.11058 14.832 6.11058C14.7081 6.11058 14.5842 6.06324 14.4895 5.9687C14.3003 5.77954 14.3003 5.4728 14.4895 5.28365L14.8392 4.93388C13.6568 3.90472 12.1447 3.2456 10.4847 3.13745V3.64944C10.4847 3.91698 10.2678 4.13388 10.0003 4.13388C9.73271 4.13388 9.51581 3.91698 9.51581 3.64944V3.13745C7.84961 3.246 6.33251 3.90971 5.14827 4.94546L5.52847 5.32567C5.71763 5.51489 5.71763 5.82156 5.52847 6.01078C5.43386 6.10533 5.30982 6.15267 5.18591 6.15267C5.06194 6.15267 4.93796 6.10533 4.84335 6.01078L4.46214 5.62957C3.41702 6.81651 2.74679 8.34068 2.6377 10.0156H3.20921C3.47675 10.0156 3.69365 10.2325 3.69365 10.5C3.69365 10.7676 3.47675 10.9845 3.20921 10.9845H2.6377C2.74584 12.6445 3.40497 14.1566 4.43413 15.3389L4.84328 14.9297C5.03251 14.7405 5.33911 14.7405 5.52834 14.9296C5.71756 15.1188 5.71756 15.4255 5.5284 15.6147L5.11662 16.0265C6.30544 17.0782 7.8346 17.7531 9.51574 17.8626V17.2911C9.51574 17.0235 9.73264 16.8066 10.0002 16.8066C10.2677 16.8066 10.4846 17.0235 10.4846 17.2911V17.8626C12.1596 17.7535 13.6837 17.0832 14.8706 16.0381L14.4894 15.6569C14.3003 15.4677 14.3003 15.161 14.4894 14.9718C14.6786 14.7827 14.9853 14.7827 15.1745 14.9718L15.5547 15.352C16.5905 14.1678 17.2543 12.6507 17.3627 10.9845H16.8508ZM13.2568 10.9845H10.0003C9.73271 10.9845 9.51581 10.7676 9.51581 10.5V5.81382C9.51581 5.54627 9.73271 5.32937 10.0003 5.32937C10.2678 5.32937 10.4847 5.54627 10.4847 5.81382V10.0156H13.2568C13.5243 10.0156 13.7412 10.2325 13.7412 10.5001C13.7412 10.7676 13.5243 10.9845 13.2568 10.9845Z" fill="#4E6F52"/>
<path d="M10 0.5C4.48599 0.5 0 4.98599 0 10.5C0 16.014 4.48599 20.5 10 20.5C15.514 20.5 20 16.014 20 10.5C20 4.98599 15.514 0.5 10 0.5ZM10 18.8477C5.39704 18.8477 1.65226 15.103 1.65226 10.5C1.65226 5.89704 5.39704 2.15226 10 2.15226C14.603 2.15226 18.3477 5.89704 18.3477 10.5C18.3477 15.103 14.603 18.8477 10 18.8477Z" fill="#4E6F52"/>
</svg>
